<?xml version="1.0" standalone="no"?>
<!DOCTYPE svg PUBLIC "-//W3C//DTD SVG 1.1//EN" "http://www.w3.org/Graphics/SVG/1.1/DTD/svg11.dtd">
<svg xmlns="http://www.w3.org/2000/svg" xmlns:xlink="http://www.w3.org/1999/xlink" viewBox="0 0 1188.08 262.99" width="1188.0799560546875" height="262.989990234375"><defs><style>.cls-1{fill:url(#linear-gradient-2);}.cls-2{fill:#f47721;}.cls-3{fill:url(#linear-gradient-4);}.cls-4{fill:#fff;}.cls-5{fill:#f4782b;}.cls-6{fill:url(#linear-gradient-3);}.cls-7{fill:url(#linear-gradient-5);}.cls-8{fill:#44c8f5;}.cls-9{fill:url(#linear-gradient);}</style><linearGradient id="linear-gradient" x1="188.61" y1="66.03" x2="169.49" y2="34.91" gradientUnits="userSpaceOnUse"><stop offset="0" stop-color="#f47721"/><stop offset="1" stop-color="#faa61a"/></linearGradient><linearGradient id="linear-gradient-2" x1="326.12" y1="265.51" x2="130.63" y2="154.67" xlink:href="#linear-gradient"/><linearGradient id="linear-gradient-3" x1="380.97" y1="267.66" x2="390.25" y2="60.71" gradientUnits="userSpaceOnUse"><stop offset="0" stop-color="#12a6c8"/><stop offset="1" stop-color="#44c8f5"/></linearGradient><linearGradient id="linear-gradient-4" x1="273.68" y1="8.74" x2="228.9" y2="126.14" xlink:href="#linear-gradient-3"/><linearGradient id="linear-gradient-5" x1="262.62" y1="156.73" x2="302.48" y2="146.36" xlink:href="#linear-gradient-3"/></defs><path class="cls-4" d="M484.91,193.56v-21.2h35.57v90.63h-45.8c-18.03,0-27.04-9.83-27.04-29.48v-115.48c0-19.98,9.01-29.97,27.04-29.97h16.08c19.81,0,29.72,10.15,29.72,30.45v19h-23.39v-15.59c0-8.44-3.33-12.67-9.99-12.67h-5.85c-6.82,0-10.23,4.23-10.23,12.67v107.2c0,8.45,3.41,12.67,10.23,12.67h15.84v-48.24h-12.18Z"/><path class="cls-4" d="M561.65,262.99h-23.39V118.04c0-19.98,9.34-29.97,28.02-29.97h17.54c18.68,0,28.02,9.99,28.02,29.97v144.96h-23.39v-69.43h-26.8v69.43ZM588.45,172.36v-52.87c0-6.82-3.41-10.23-10.23-10.23h-6.33c-6.82,0-10.23,3.41-10.23,10.23v52.87h26.8Z"/><path class="cls-4" d="M669.82,109.26v153.73h-23.39V109.26h-22.41v-21.2h68.22v21.2h-22.41Z"/><path class="cls-4" d="M757.77,262.99v-69.43h-28.75v69.43h-23.39V88.07h23.39v84.3h28.75v-84.3h23.39v174.93h-23.39Z"/><path class="cls-4" d="M803.08,262.99V88.07h57.98v21.2h-34.6v63.1h30.7v21.2h-30.7v48.24h34.6v21.2h-57.98Z"/><path class="cls-4" d="M877.87,88.07h45.8c17.86,0,26.8,9.99,26.8,29.97v43.12c0,15.27-4.63,24.93-13.89,28.99l16.32,72.85h-22.17l-15.35-70.65h-14.13v70.65h-23.39V88.07ZM901.26,172.36h15.35c6.98,0,10.48-4.22,10.48-12.67v-37.76c0-8.44-3.49-12.67-10.48-12.67h-15.35v63.1Z"/><polygon class="cls-4" points="1072.36 88.07 1072.36 200.38 1038.66 88.07 1019.88 88.07 1015.27 88.07 1015.27 262.99 1038.66 262.99 1038.66 150.68 1072.36 262.99 1091.15 262.99 1095.75 262.99 1095.75 88.07 1072.36 88.07"/><path class="cls-4" d="M1152.51,193.56v-21.2h35.57v90.63h-45.8c-18.03,0-27.04-9.83-27.04-29.48v-115.48c0-19.98,9.01-29.97,27.04-29.97h16.08c19.81,0,29.72,10.15,29.72,30.45v19h-23.39v-15.59c0-8.44-3.33-12.67-9.99-12.67h-5.85c-6.82,0-10.23,4.23-10.23,12.67v107.2c0,8.45,3.41,12.67,10.23,12.67h15.84v-48.24h-12.18Z"/><polygon class="cls-4" points="993.35 88.07 969.96 88.07 969.96 127.48 993.35 107.22 993.35 88.07"/><polygon class="cls-4" points="969.96 134.89 969.96 262.99 993.35 262.99 993.35 114.64 969.96 134.89"/><path class="cls-4" d="M465.36,8.2v59.49h-9.05V8.2h-8.67V0h26.4v8.2h-8.67Z"/><path class="cls-4" d="M499.39,67.69v-26.87h-11.12v26.87h-9.05V0h9.05v32.62h11.12V0h9.05v67.69h-9.05Z"/><path class="cls-4" d="M516.92,67.69V0h22.44v8.2h-13.39v24.42h11.88v8.2h-11.88v18.67h13.39v8.2h-22.44Z"/><rect class="cls-5" x="139.69" y="137.81" width=".11" transform="translate(-54.05 168.83) rotate(-53.7)"/><polygon class="cls-9" points="212.7 38.52 240.97 .05 193.23 .05 139.77 137.77 212.7 38.52"/><polygon class="cls-2" points="139.71 137.85 139.77 137.77 193.23 .05 164.95 38.52 0 262.99 47.75 262.99 116.92 168.86 139.71 137.85 139.71 137.85"/><polygon class="cls-2" points="116.92 168.86 245.03 262.99 310 262.99 116.92 168.86"/><polygon class="cls-1" points="139.71 137.85 116.92 168.86 310 262.99 139.71 137.85"/><polygon class="cls-8" points="214.85 126.36 161.11 134.61 335.82 262.99 400.79 262.99 401.04 262.99 362.57 234.91 214.85 126.36"/><polygon class="cls-6" points="401.04 262.99 401.04 53.83 362.57 234.91 401.04 262.99"/><polygon class="cls-8" points="401.04 53.83 287.1 53.83 287.1 53.9 287.07 53.88 236.21 123.1 289.99 114.88 306.58 92.31 362.57 92.31 362.57 234.91 401.04 53.83"/><polygon class="cls-8" points="401.04 38.52 401.04 .05 259.92 .05 279.39 38.52 401.04 38.52"/><polygon class="cls-3" points="279.39 38.52 259.92 .05 214.85 126.36 279.39 38.52"/><polygon class="cls-8" points="259.92 .05 172.49 119.03 172.54 119.06 161.11 134.61 214.85 126.36 259.92 .05"/><polygon class="cls-8" points="317.61 135.18 289.99 114.88 317.61 182.92 317.61 135.18"/><polygon class="cls-7" points="317.61 182.92 289.99 114.88 236.21 123.1 317.61 182.92"/></svg>
