<?xml version="1.0" encoding="UTF-8"?>
<svg width="471.58" height="617.22" version="1.0" xmlns="http://www.w3.org/2000/svg" xmlns:cc="http://creativecommons.org/ns#" xmlns:dc="http://purl.org/dc/elements/1.1/" xmlns:rdf="http://www.w3.org/1999/02/22-rdf-syntax-ns#">
 <metadata>
  <rdf:RDF>
   <cc:Work rdf:about="">
    <dc:format>image/svg+xml</dc:format>
    <dc:type rdf:resource="http://purl.org/dc/dcmitype/StillImage"/>
   </cc:Work>
  </rdf:RDF>
 </metadata>
 <g fill="#fcd205" stroke="#231f20" stroke-linecap="square" stroke-miterlimit="2" stroke-width=".04">
  <path transform="matrix(12.912 0 0 -12.912 322.91 51.031)" d="m0 0c-0.215 0.063-0.506 0.152-0.747 0.228-0.076-0.254-0.203-0.672-0.254-0.836-0.266 0.076-0.493 0.139-0.734 0.203 0.08 0.316 0.135 0.527 0.215 0.848-0.253 0.063-0.697 0.152-0.874 0.19-0.038-0.19-0.494-2.736-0.494-2.736l2.014-0.582z"/>
  <path transform="matrix(12.912 0 0 -12.912 251.31 37.405)" d="m0 0c-0.225 4e-3 -0.529 0.012-0.781 0.022-6e-3 -0.265-0.018-0.702-0.023-0.874-0.277 3e-3 -0.513 4e-3 -0.762 1e-3 -7e-3 0.327-0.01 0.545-0.017 0.876-0.261-7e-3 -0.712-0.038-0.893-0.049 0.014-0.193 0.248-2.769 0.248-2.769l2.097-0.028z"/>
  <path transform="matrix(12.912 0 0 -12.912 148.88 51.031)" d="m0 0c0.216 0.063 0.507 0.152 0.748 0.228 0.075-0.254 0.202-0.672 0.253-0.836 0.266 0.076 0.494 0.139 0.734 0.203-0.063 0.291-0.126 0.544-0.215 0.848 0.253 0.063 0.697 0.152 0.874 0.19 0.038-0.19 0.494-2.736 0.494-2.736l-2.014-0.582z"/>
  <path transform="matrix(12.912 0 0 -12.912 337.45 98.788)" d="m0 0-0.634-1.241s-3.065 1.621-7.244 1.621c-4.18 0-7.233-1.634-7.233-1.634l-0.595 1.228s3.192 1.825 7.828 1.799c4.787-0.026 7.878-1.773 7.878-1.773"/>
  <path transform="matrix(12.912 0 0 -12.912 137.6 117.43)" d="m0 0c-0.091 0.196-0.042 0.355 0.161 0.456 0.236 0.119 3.259 1.697 7.439 1.697 4.23 0 7.171-1.557 7.397-1.663 0.287-0.135 0.303-0.338 0.228-0.49-0.076-0.152-0.245-0.235-0.482-0.126-0.731 0.336-3.47 1.621-7.093 1.621-3.977 0-6.925-1.499-7.169-1.621-0.253-0.127-0.394-0.062-0.481 0.126"/>
  <path transform="matrix(12.912 0 0 -12.912 112.52 51.795)" d="m0 0 1.596-3.378 2.162 0.862-1.166 3.546z"/>
  <path transform="matrix(12.912 0 0 -12.912 153.18 87.234)" d="m0 0s-0.663 1.786-0.764 2.065c-0.102 0.279-0.458 0.431-0.773 0.3-0.33-0.139-0.469-0.41-0.329-0.74 0.106-0.251 0.878-2.021 0.878-2.021z"/>
  <path transform="matrix(12.912 0 0 -12.912 106.61 55.532)" d="M 0,0 C 1.14,0.589 2.501,1.108 3.59,1.438 3.388,2.147 3.109,3.013 3.033,3.266 2.806,3.19 2.417,3.076 2.214,3 2.29,2.772 2.418,2.402 2.469,2.225 2.26,2.153 1.948,2.039 1.746,1.963 1.657,2.204 1.528,2.521 1.452,2.73 1.23,2.647 0.833,2.485 0.631,2.39 0.758,2.086 0.87,1.824 0.945,1.647 0.775,1.564 0.414,1.406 0.255,1.336 0.112,1.645 0.029,1.83 -0.085,2.084 -0.363,1.957 -0.615,1.837 -0.862,1.704 -0.684,1.374 0,0 0,0"/>
  <path transform="matrix(12.912 0 0 -12.912 174.39 30.095)" d="m0 0 0.798-3.686 2.939 0.392-0.203 3.813z"/>
  <path transform="matrix(12.912 0 0 -12.912 359.28 51.795)" d="m0 0-1.596-3.378-2.162 0.862 1.165 3.546z"/>
  <path transform="matrix(12.912 0 0 -12.912 318.6 87.234)" d="m0 0s0.663 1.786 0.764 2.065 0.458 0.431 0.773 0.3c0.329-0.139 0.468-0.41 0.329-0.74-0.106-0.251-0.878-2.021-0.878-2.021z"/>
  <path transform="matrix(12.912 0 0 -12.912 365.18 55.532)" d="m0 0c-1.14 0.589-2.501 1.108-3.591 1.438 0.203 0.709 0.481 1.575 0.558 1.828 0.228-0.076 0.616-0.19 0.819-0.266-0.077-0.228-0.205-0.598-0.256-0.775 0.209-0.072 0.522-0.186 0.724-0.262 0.089 0.241 0.218 0.558 0.294 0.767 0.221-0.083 0.619-0.245 0.821-0.34-0.127-0.304-0.239-0.566-0.315-0.743 0.171-0.083 0.532-0.241 0.691-0.311 0.143 0.309 0.226 0.494 0.339 0.748 0.279-0.127 0.53-0.247 0.777-0.38-0.177-0.33-0.861-1.704-0.861-1.704"/>
  <path transform="matrix(12.912 0 0 -12.912 297.4 30.095)" d="m0 0-0.798-3.686-2.939 0.392 0.203 3.813z"/>
  <path transform="matrix(12.912 0 0 -12.912 211.44 73.692)" d="m0 0s-0.19 1.868-0.224 2.163c-0.035 0.294-0.316 0.567-0.752 0.505-0.447-0.064-0.657-0.422-0.616-0.692 0.04-0.269 0.367-2.15 0.367-2.15z"/>
  <path transform="matrix(12.912 0 0 -12.912 260.34 73.692)" d="m0 0s0.19 1.868 0.224 2.163c0.035 0.294 0.317 0.567 0.752 0.505 0.446-0.064 0.657-0.422 0.617-0.692-0.041-0.269-0.369-2.15-0.369-2.15z"/>
  <path transform="matrix(12.912 0 0 -12.912 167.95 32.91)" d="M 0,0 C 1.523,0.363 2.976,0.566 4.551,0.62 4.516,1.357 4.501,2.263 4.486,2.527 4.247,2.505 3.652,2.492 3.437,2.464 3.459,2.225 3.5,1.836 3.509,1.651 3.289,1.629 2.857,1.603 2.643,1.575 2.612,1.83 2.571,2.167 2.545,2.388 2.311,2.359 1.697,2.279 1.478,2.233 1.532,1.908 1.568,1.625 1.602,1.436 1.416,1.394 0.927,1.325 0.757,1.293 0.688,1.626 0.65,1.813 0.597,2.086 0.297,2.026 -0.178,1.929 -0.449,1.856 -0.36,1.469 0,0 0,0"/>
  <path transform="matrix(12.912 0 0 -12.912 303.83 32.91)" d="m0 0c-1.523 0.363-2.976 0.566-4.551 0.62 0.035 0.737 0.049 1.643 0.065 1.907 0.24-0.022 0.834-0.035 1.048-0.063-0.021-0.239-0.062-0.628-0.07-0.813 0.219-0.022 0.65-0.048 0.865-0.076 0.032 0.255 0.072 0.592 0.098 0.813 0.235-0.029 0.848-0.109 1.067-0.155-0.054-0.325-0.09-0.608-0.123-0.797 0.185-0.042 0.673-0.111 0.844-0.143 0.069 0.333 0.107 0.52 0.16 0.793 0.3-0.06 0.775-0.157 1.046-0.23-0.089-0.387-0.449-1.856-0.449-1.856"/>
  <path transform="matrix(12.912 0 0 -12.912 129.42 101.4)" d="m0 0c-0.086 0.177-0.047 0.374 0.203 0.481 0.229 0.099 3.513 1.824 8.03 1.824 4.535 0 7.748-1.686 8.005-1.807 0.308-0.143 0.304-0.346 0.228-0.498s-0.244-0.235-0.481-0.127c-0.732 0.336-3.598 1.774-7.701 1.774-4.4 0-7.525-1.652-7.803-1.782-0.256-0.121-0.394-0.045-0.481 0.135"/>
 </g>
 <g stroke="#231f20" stroke-linecap="square">
  <path transform="matrix(12.912 0 0 -12.912 236.01 616.42)" d="m0 0c-1.419 2.735-2.853 2.301-4.974 2.131-6.012-0.484-9.182 2.674-9.15 8.346v18.432c-0.015 3.016-3.398 5.274-4.082 5.733 2.707 2.557 4.104 3.867 4.104 3.867l28.255 4e-3s3.479-3.293 4.019-3.833c-0.675-0.44-4.059-2.736-4.027-5.775 0.026-2.568-8e-3 -18.389-8e-3 -18.389-0.015-5.728-3.275-8.899-9.084-8.29-2.151 0.225-3.601 0.509-5.053-2.226" fill="#fff" stroke-miterlimit="10" stroke-width=".091"/>
  <g stroke-width=".04">
   <path transform="matrix(12.912 0 0 -12.912 140.76 247.06)" d="m0 0c-0.494-0.25-0.954-0.634-1.292-1.174 0.414 0 1.056 0.11 1.807 0.347-0.287-0.347-0.515-0.719-0.667-1.09 0.313 0.042 1.005 0.253 1.342 0.405-0.194-0.228-0.472-0.785-0.574-1.182 0.296 0.059 0.878 0.295 1.258 0.574-0.185-0.262-0.464-0.953-0.455-1.393 0.362 0.127 0.945 0.608 1.241 0.996-0.025-0.262-0.093-0.827-0.025-1.13 0.152 0.092 0.532 0.379 0.894 0.835-0.152-0.498-0.219-0.988-0.118-1.57 0.347 0.269 0.777 0.97 1.022 1.586 0-0.312 0.146-0.873 0.146-0.873-0.186-0.364-0.735-1.562-0.853-1.841-0.633-0.21-1.199-0.658-1.326-0.726-0.211 9e-3 -0.515-8e-3 -0.608-0.668 0 0 0.786 0.508 1.57 0.71-0.16-0.431-0.219-0.718-0.219-0.802s0.169-0.616 0.743-0.667c-0.295 0.38-0.244 0.676-0.228 0.785 0.017 0.11 0.236 0.574 0.389 0.785 0.169 9e-3 0.549 0.042 1.148-0.117-0.152 0.312-0.557 0.557-0.785 0.624 0.143 0.279 0.346 0.65 0.557 0.845l-2e-3 4e-3c2.124-7.617-1.98-7.731-2.93-5.413-1.051-1.533-0.24-3.547 1.482-3.547 2.279 0 3.496 4.143 3.85 5.434 0.368-1.33 1.571-5.434 3.851-5.434 1.722 0 2.533 2.014 1.482 3.547-0.95-2.318-5.045-2.22-2.922 5.395 0.212-0.194 0.414-0.565 0.557-0.843-0.228-0.069-0.633-0.314-0.785-0.626 0.6 0.161 0.98 0.128 1.149 0.119 0.152-0.212 0.371-0.676 0.388-0.786s0.068-0.405-0.228-0.785c0.574 0.05 0.743 0.582 0.743 0.667s-0.059 0.372-0.219 0.802c0.785-0.202 1.57-0.708 1.57-0.708-0.092 0.658-0.397 0.674-0.608 0.666-0.126 0.068-0.692 0.515-1.326 0.727-0.118 0.278-0.667 1.477-0.852 1.84 0.033 0.127 0.185 0.515 0.194 0.988 0.118-0.245 0.49-1.208 1.072-1.723 0.085 0.338 0.043 1.115-0.084 1.613 0.127-0.185 0.608-0.659 0.87-0.819 0.042 0.194 0.05 0.634-0.043 1.157 0.245-0.304 0.828-0.963 1.233-1.131-0.016 0.295-0.211 1.038-0.414 1.494 0.245-0.177 0.71-0.498 1.149-0.608-0.042 0.321-0.22 0.819-0.507 1.199 0.27-0.11 0.87-0.346 1.309-0.388-0.084 0.227-0.245 0.633-0.608 1.08 0.321-0.117 1.207-0.404 1.74-0.388-0.152 0.304-0.515 0.786-1.174 1.2 0.785-0.06 2.292-0.212 2.968 0.084-0.423 0.262-1.671 0.605-2.533 0.817-0.077 0.4 1.591 0.048 2.14-0.028 0.554-0.077 2.084-0.283 2.379 0.329l-4.212 0.523c0.042 0.526 1.791 0.171 2.441 0.095s2.314-0.376 2.522 0.302c0 0-3.832 0.512-4.642 0.655 0.084 0.599 1.347 0.224 2.453 0.079 1.183-0.155 2.443-0.452 2.691 0.386-7.125 1.165-8.203 2.176-10.236-0.685-1.114 0.2-1.304 0.602-2.242 0.218-0.189 0.526-0.462 1.481-0.589 2.102s0.216 1.255 0.306 1.845c0.146 0.957-0.882 1.52-0.882 1.52-0.981 0.4-1.398-0.209-1.425-0.364-0.314-0.028-0.757-0.043-0.928-0.487 0.399 0.038 0.665-0.028 0.832-0.094-0.019-0.515 0.464-0.775 0.806-1.078 0.095-0.584-8e-3 -1.101-0.153-1.554-0.088-0.299-0.513-1.34-0.488-1.903-0.836 0.441-1.371-0.09-2.156-0.229-1.951 2.989-3.492 1.891-10.22 0.768 0.358-0.761 1.768-0.494 2.338-0.425 1.153 0.139 2.778 0.53 2.867-0.066-1.254-0.177-4.135-0.545-4.68-0.609 0.228-0.734 1.386-0.473 2.02-0.403 1.38 0.152 2.812 0.495 2.964-0.037-0.899-0.126-3.935-0.472-4.315-0.502 0.401-0.715 1.463-0.501 1.871-0.461 0.507 0.051 2.739 0.535 2.79 0.155 0 0-2.129-0.456-2.711-0.823 0.924-0.443 3.12-0.122 3.12-0.122" fill="#231f20"/>
   <path transform="matrix(12.912 0 0 -12.912 229.35 146.88)" d="m0 0c-0.141-0.047-0.311-0.253-0.391-0.22-0.054 0.023-0.219 0.283-0.159 0.443 0.047 0.125 1.073 0.414 1.268-0.409-0.372 0.287-0.642 0.211-0.718 0.186" fill="#ed1c24" stroke-linejoin="round" stroke-miterlimit="2"/>
   <path transform="matrix(12.912 0 0 -12.912 228.08 151.67)" d="m0 0c0 0.145 0.117 0.263 0.262 0.263 0.146 0 0.263-0.118 0.263-0.263s-0.117-0.263-0.263-0.263c-0.145 0-0.262 0.118-0.262 0.263" fill="#fff" stroke-miterlimit="2"/>
  </g>
 </g>
 <g fill="#17ae65" stroke="#231f20" stroke-linecap="square" stroke-miterlimit="2" stroke-width=".04">
  <path transform="matrix(12.912 0 0 -12.912 324.04 410.88)" d="m0 0h0.489c-0.236-0.372-1.941-2.998-1.941-2.998l-0.389 0.152z"/>
  <path transform="matrix(12.912 0 0 -12.912 335.81 410.99)" d="m0 0c0.16 0 0.354-0.033 0.489-0.033-0.236-0.372-2.094-3.184-2.094-3.184l-0.388 0.152z"/>
  <path transform="matrix(12.912 0 0 -12.912 346.72 411.65)" d="m0 0c0.161 0 0.304-0.05 0.439-0.05-0.236-0.372-2.162-3.235-2.162-3.235l-0.422 0.085z"/>
  <path transform="matrix(12.912 0 0 -12.912 356.53 413.39)" d="m0 0c0.16 0 0.338-0.135 0.473-0.135-0.237-0.372-2.077-3.049-2.077-3.049h-0.558z"/>
  <path transform="matrix(12.912 0 0 -12.912 365.91 416.66)" d="m0 0c0.144-0.034 0.287-0.118 0.439-0.187-0.236-0.371-1.655-2.507-1.655-2.507l-0.727-0.203z"/>
  <path transform="matrix(12.912 0 0 -12.912 375.61 420.8)" d="m0 0c0.143-0.05 0.27-0.118 0.406-0.203-0.237-0.371-1.098-1.63-1.098-1.63l-0.777-0.354z"/>
  <path transform="matrix(12.912 0 0 -12.912 398.26 453.78)" d="m0 0c-0.034-0.118-0.118-0.279-0.195-0.389-0.692 0.186-2.537 0.629-2.537 0.629l0.452 0.283z"/>
  <path transform="matrix(12.912 0 0 -12.912 388.99 465.88)" d="m0 0c-0.135-0.135-0.236-0.229-0.38-0.305-0.844 0.423-2.369 1.187-2.369 1.187l0.486 0.198z"/>
  <path transform="matrix(12.912 0 0 -12.912 376.45 475.06)" d="m0 0c-0.084-0.084-0.219-0.177-0.362-0.253-0.795 0.608-1.964 1.626-1.964 1.626l0.452 0.165z"/>
  <path transform="matrix(12.912 0 0 -12.912 365.22 481.15)" d="m0 0c-0.118-0.068-0.253-0.126-0.397-0.187-0.743 0.811-1.608 1.897-1.608 1.897l0.401 0.097z"/>
  <path transform="matrix(12.912 0 0 -12.912 352.9 485.94)" d="m0 0c-0.152-0.051-0.321-0.06-0.464-0.085-0.524 0.928-1.17 2.082-1.17 2.082l0.368 0.063z"/>
  <path transform="matrix(12.912 0 0 -12.912 339.82 487.59)" d="m0 0c-0.135-0.033-0.338-0.025-0.481-0.017-0.372 0.929-0.832 2.183-0.832 2.183l0.384-0.021z"/>
  <path transform="matrix(12.912 0 0 -12.912 325.76 487.29)" d="m0 0c-0.118 0.017-0.304 0.042-0.448 0.051-0.187 1.017-0.392 2.166-0.392 2.166l0.384-0.055z"/>
  <path transform="matrix(12.912 0 0 -12.912 314.31 485.65)" d="m0 0c-0.118 0.017-0.304 0.043-0.448 0.085-0.068 0.847-0.173 2.2-0.173 2.2l0.418-0.123z"/>
  <path transform="matrix(12.912 0 0 -12.912 304.06 483.68)" d="m0 0c-0.118 0.017-0.287 0.076-0.431 0.118-0.035 0.848-0.071 2.183-0.071 2.183l0.418-0.122z"/>
  <path transform="matrix(12.912 0 0 -12.912 332.32 314.33)" d="m0 0c0.212 0 0.304 0.017 0.507 0-0.237-0.372-1.571-2.288-1.571-2.288l-0.321 0.202z"/>
  <path transform="matrix(12.912 0 0 -12.912 344.54 314.56)" d="m0 0c0.186 0.017 0.262 0 0.464-0.017-0.236-0.371-1.79-2.601-1.79-2.601l-0.389 0.211z"/>
  <path transform="matrix(12.912 0 0 -12.912 355.77 315.54)" d="m0 0c0.144-8e-3 0.279-0.034 0.397-0.058-0.236-0.373-1.892-2.778-1.892-2.778l-0.388 0.151z"/>
  <path transform="matrix(12.912 0 0 -12.912 365.15 317.28)" d="m0 0c0.118-0.017 0.27-0.084 0.354-0.126-0.236-0.372-1.765-2.678-1.765-2.678l-0.439 0.034z"/>
  <path transform="matrix(12.912 0 0 -12.912 373.97 320.88)" d="m0 0c0.11-0.025 0.279-0.101 0.355-0.143-0.237-0.372-1.528-2.264-1.528-2.264l-0.541-0.109z"/>
  <path transform="matrix(12.912 0 0 -12.912 382.7 324.8)" d="m0 0c0.144-0.051 0.253-0.126 0.363-0.203-0.236-0.371-0.971-1.444-0.971-1.444l-0.642-0.253z"/>
  <path transform="matrix(12.912 0 0 -12.912 327.09 385.53)" d="m0 0c-0.16 0.017-0.312 0.084-0.448 0.144-0.067 0.43-0.481 2.693-0.481 2.693l0.456-0.228z"/>
  <path transform="matrix(12.912 0 0 -12.912 337.01 387.22)" d="m0 0c-0.169 0-0.262 9e-3 -0.398 0.067-0.016 0.085-0.539 2.559-0.539 2.559l0.362-0.168z"/>
  <path transform="matrix(12.912 0 0 -12.912 349.99 387.44)" d="m0 0c-0.143-0.016-0.236-0.042-0.397-0.025-0.287 0.683-0.887 2.432-0.887 2.432l0.364-0.119z"/>
  <path transform="matrix(12.912 0 0 -12.912 362.63 385.04)" d="m0 0c-0.152-0.042-0.262-0.076-0.397-0.085-0.313 0.549-1.182 2.162-1.182 2.162l0.456-0.025z"/>
  <path transform="matrix(12.912 0 0 -12.912 374.79 380.88)" d="m0 0c-0.11-0.058-0.262-0.126-0.405-0.161-0.549 0.677-1.448 1.905-1.448 1.905l0.426 0.064z"/>
  <path transform="matrix(12.912 0 0 -12.912 384.53 373.21)" d="m0 0c-0.102-0.093-0.211-0.203-0.338-0.279-0.633 0.558-1.667 1.533-1.667 1.533l0.484 0.139z"/>
  <path transform="matrix(12.912 0 0 -12.912 392.7 363.78)" d="m0 0c-0.076-0.118-0.16-0.245-0.287-0.321-0.65 0.371-1.76 1.034-1.76 1.034l0.418 0.165z"/>
  <path transform="matrix(12.912 0 0 -12.912 398.2 353.53)" d="m0 0c-0.034-0.118-0.101-0.245-0.177-0.354-0.693 0.184-1.761 0.476-1.761 0.476l0.367 0.249z"/>
 </g>
 <path transform="matrix(12.912 0 0 -12.912 287.73 327.2)" d="m0 0c0.785-0.203 1.571-0.709 1.571-0.709s1.714-1.124 2.491-1.242 1.764 0.084 2.761 0.558c0.034-0.084 0.16-0.203 0.211-0.287-0.811-0.574-1.788-0.773-2.482-0.794-1.632-0.048-3.674 1.571-4.341 1.697-8e-3 0.182-0.05 0.346-0.211 0.777" fill="#df6e3a" stroke="#231f20" stroke-linecap="square" stroke-width=".04"/>
 <g fill="#17ae65" stroke="#231f20" stroke-linecap="square" stroke-miterlimit="2" stroke-width=".04">
  <path transform="matrix(12.912 0 0 -12.912 287.51 499.09)" d="m0 0c0.178 0.017 0.405 0.05 0.591 0.05-0.236-0.371-1.114-1.596-1.114-1.596l-0.557-0.033z"/>
  <path transform="matrix(12.912 0 0 -12.912 300.38 498.33)" d="m0 0c0.177 0.017 0.422 0 0.541-0.017-0.237-0.371-1.149-1.714-1.149-1.714l-0.49 0.118z"/>
  <path transform="matrix(12.912 0 0 -12.912 312.37 499.09)" d="m0 0c0.11 0 0.355-0.034 0.473-0.05-0.271-0.372-1.301-1.816-1.301-1.816l-0.405 0.118z"/>
  <path transform="matrix(12.912 0 0 -12.912 322.62 500.18)" d="m0 0c0.143 0 0.338-0.034 0.456-0.05-0.287-0.406-1.384-2.002-1.384-2.002l-0.389 0.119z"/>
  <path transform="matrix(12.912 0 0 -12.912 332.21 502.15)" d="m0 0c0.143 0 0.321-0.05 0.456-0.101-0.287-0.405-1.436-2.052-1.436-2.052l-0.388 0.135z"/>
  <path transform="matrix(12.912 0 0 -12.912 341.37 504.77)" d="m0 0c0.144-0.033 0.321-0.084 0.439-0.152-0.287-0.404-1.368-1.95-1.368-1.95l-0.439 0.068z"/>
  <path transform="matrix(12.912 0 0 -12.912 350.31 508.47)" d="m0 0c0.161-0.033 0.338-0.118 0.439-0.185-0.287-0.405-1.097-1.562-1.097-1.562l-0.592-0.085z"/>
  <path transform="matrix(12.912 0 0 -12.912 359.04 512.83)" d="m0 0c0.126-0.034 0.27-0.152 0.338-0.219-0.287-0.405-0.659-0.921-0.659-0.921l-0.574-0.169z"/>
  <path transform="matrix(12.912 0 0 -12.912 377.66 535.45)" d="m0 0c-0.084-0.135-0.22-0.279-0.313-0.354-0.692 0.185-2.098 0.476-2.098 0.476l0.638 0.232z"/>
  <path transform="matrix(12.912 0 0 -12.912 365.77 545.92)" d="m0 0c-0.084-0.084-0.22-0.211-0.363-0.287-0.844 0.422-2.014 1.034-2.014 1.034l0.553 0.131z"/>
  <path transform="matrix(12.912 0 0 -12.912 352.36 553.99)" d="m0 0c-0.128-0.074-0.288-0.16-0.431-0.203-0.658 0.693-1.473 1.558-1.473 1.558l0.435 0.047z"/>
  <path transform="matrix(12.912 0 0 -12.912 340.69 558.13)" d="m0 0c-0.118-0.067-0.304-0.093-0.448-0.118-0.523 0.743-1.236 1.929-1.236 1.929l0.519-0.089z"/>
  <path transform="matrix(12.912 0 0 -12.912 326.84 560.34)" d="m0 0c-0.135-0.017-0.355-8e-3 -0.498 0-0.321 0.895-0.832 2.183-0.832 2.183l0.469-0.14z"/>
  <path transform="matrix(12.912 0 0 -12.912 313.92 560.18)" d="m0 0c-0.118 0.017-0.321 0.043-0.465 0.051-0.186 1.016-0.426 2.301-0.426 2.301l0.401-0.123z"/>
  <path transform="matrix(12.912 0 0 -12.912 302.47 558.75)" d="m0 0c-0.135 0-0.287 8e-3 -0.448 0.034-0.068 0.847-0.206 2.385-0.206 2.385l0.417-0.123z"/>
  <path transform="matrix(12.912 0 0 -12.912 290.27 557.22)" d="m0 0c-0.118 0.016-0.271 0.042-0.414 0.084-0.035 0.848 0.013 2.351 0.013 2.351l0.418-0.088z"/>
  <path transform="matrix(12.912 0 0 -12.912 279.94 555.32)" d="m0 0c-0.118 0-0.253 0.026-0.431 0.017 0.016 0.865-4e-3 2.25-4e-3 2.25l0.435 0.013z"/>
  <path transform="matrix(12.912 0 0 -12.912 147.82 410.67)" d="m0 0h-0.49c0.237-0.371 1.942-2.997 1.942-2.997l0.389 0.152z"/>
  <path transform="matrix(12.912 0 0 -12.912 136.04 410.77)" d="m0 0c-0.16 0-0.354-0.034-0.489-0.034 0.236-0.371 2.094-3.183 2.094-3.183l0.388 0.152z"/>
  <path transform="matrix(12.912 0 0 -12.912 125.14 411.42)" d="m0 0c-0.161 0-0.304-0.051-0.439-0.051 0.236-0.372 2.162-3.234 2.162-3.234l0.422 0.084z"/>
  <path transform="matrix(12.912 0 0 -12.912 115.32 413.18)" d="m0 0c-0.16 0-0.338-0.135-0.473-0.135 0.237-0.371 2.077-3.048 2.077-3.048h0.558z"/>
  <path transform="matrix(12.912 0 0 -12.912 105.95 416.45)" d="m0 0c-0.143-0.034-0.287-0.118-0.439-0.186 0.236-0.371 1.655-2.507 1.655-2.507l0.727-0.203z"/>
  <path transform="matrix(12.912 0 0 -12.912 96.245 420.59)" d="m0 0c-0.144-0.05-0.27-0.118-0.405-0.203 0.236-0.371 1.098-1.629 1.098-1.629l0.776-0.354z"/>
  <path transform="matrix(12.912 0 0 -12.912 73.595 453.57)" d="m0 0c0.034-0.118 0.118-0.279 0.194-0.388 0.692 0.185 2.538 0.629 2.538 0.629l-0.452 0.283z"/>
  <path transform="matrix(12.912 0 0 -12.912 82.862 465.67)" d="m0 0c0.135-0.135 0.236-0.228 0.38-0.303 0.844 0.421 2.369 1.186 2.369 1.186l-0.486 0.198z"/>
  <path transform="matrix(12.912 0 0 -12.912 95.399 474.82)" d="m0 0c0.084-0.084 0.219-0.178 0.363-0.254 0.794 0.608 1.964 1.626 1.964 1.626l-0.452 0.165z"/>
  <path transform="matrix(12.912 0 0 -12.912 106.63 480.94)" d="m0 0c0.118-0.067 0.253-0.126 0.397-0.185 0.743 0.81 1.608 1.896 1.608 1.896l-0.401 0.097z"/>
  <path transform="matrix(12.912 0 0 -12.912 118.95 485.73)" d="m0 0c0.152-0.05 0.321-0.058 0.464-0.084 0.524 0.929 1.17 2.082 1.17 2.082l-0.367 0.063z"/>
  <path transform="matrix(12.912 0 0 -12.912 132.03 487.37)" d="m0 0c0.135-0.034 0.338-0.025 0.481-0.017 0.372 0.928 0.832 2.183 0.832 2.183l-0.384-0.021z"/>
  <path transform="matrix(12.912 0 0 -12.912 146.1 487.07)" d="m0 0c0.118 0.017 0.304 0.042 0.448 0.051 0.187 1.016 0.392 2.166 0.392 2.166l-0.384-0.055z"/>
  <path transform="matrix(12.912 0 0 -12.912 157.55 485.43)" d="m0 0c0.118 0.017 0.304 0.042 0.448 0.084 0.069 0.848 0.173 2.2 0.173 2.2l-0.418-0.122z"/>
  <path transform="matrix(12.912 0 0 -12.912 167.8 483.46)" d="m0 0c0.118 0.016 0.287 0.075 0.43 0.118 0.036 0.847 0.072 2.182 0.072 2.182l-0.418-0.122z"/>
  <path transform="matrix(12.912 0 0 -12.912 139.53 314.11)" d="m0 0c-0.211 0-0.304 0.016-0.506 0 0.235-0.371 1.57-2.288 1.57-2.288l0.321 0.202z"/>
  <path transform="matrix(12.912 0 0 -12.912 127.32 314.33)" d="m0 0c-0.186 0.017-0.262 0-0.464-0.017 0.236-0.371 1.79-2.601 1.79-2.601l0.388 0.211z"/>
  <path transform="matrix(12.912 0 0 -12.912 116.09 315.32)" d="m0 0c-0.144-9e-3 -0.279-0.033-0.397-0.059 0.237-0.372 1.892-2.778 1.892-2.778l0.388 0.152z"/>
  <path transform="matrix(12.912 0 0 -12.912 106.71 317.07)" d="m0 0c-0.118-0.016-0.27-0.084-0.355-0.126 0.237-0.372 1.765-2.676 1.765-2.676l0.439 0.033z"/>
  <path transform="matrix(12.912 0 0 -12.912 97.878 320.66)" d="m0 0c-0.11-0.025-0.279-0.101-0.355-0.144 0.237-0.371 1.529-2.263 1.529-2.263l0.54-0.109z"/>
  <path transform="matrix(12.912 0 0 -12.912 89.156 324.59)" d="m0 0c-0.144-0.05-0.253-0.126-0.363-0.203 0.236-0.371 0.971-1.443 0.971-1.443l0.642-0.254z"/>
  <path transform="matrix(12.912 0 0 -12.912 144.77 385.31)" d="m0 0c0.16 0.017 0.312 0.084 0.448 0.143 0.067 0.431 0.481 2.693 0.481 2.693l-0.456-0.226z"/>
  <path transform="matrix(12.912 0 0 -12.912 134.84 387)" d="m0 0c0.169 0 0.262 8e-3 0.397 0.067 0.017 0.085 0.54 2.559 0.54 2.559l-0.363-0.169z"/>
  <path transform="matrix(12.912 0 0 -12.912 121.87 387.22)" d="m0 0c0.144-0.017 0.236-0.042 0.397-0.025 0.287 0.684 0.887 2.432 0.887 2.432l-0.364-0.119z"/>
  <path transform="matrix(12.912 0 0 -12.912 109.22 384.83)" d="m0 0c0.152-0.042 0.262-0.076 0.397-0.084 0.313 0.549 1.182 2.162 1.182 2.162l-0.456-0.026z"/>
  <path transform="matrix(12.912 0 0 -12.912 97.061 380.66)" d="m0 0c0.11-0.059 0.262-0.126 0.405-0.16 0.549 0.675 1.449 1.904 1.449 1.904l-0.427 0.064z"/>
  <path transform="matrix(12.912 0 0 -12.912 87.332 372.99)" d="m0 0c0.101-0.093 0.211-0.203 0.338-0.279 0.633 0.557 1.667 1.532 1.667 1.532l-0.485 0.139z"/>
  <path transform="matrix(12.912 0 0 -12.912 79.154 363.56)" d="m0 0c0.076-0.118 0.161-0.245 0.287-0.321 0.65 0.371 1.761 1.034 1.761 1.034l-0.418 0.165z"/>
  <path transform="matrix(12.912 0 0 -12.912 73.647 353.31)" d="m0 0c0.034-0.118 0.101-0.245 0.177-0.355 0.693 0.186 1.761 0.477 1.761 0.477l-0.367 0.249z"/>
 </g>
 <path transform="matrix(12.912 0 0 -12.912 184.12 326.98)" d="m0 0c-0.785-0.203-1.57-0.71-1.57-0.71s-1.714-1.123-2.491-1.24c-0.777-0.119-1.765 0.084-2.761 0.556-0.034-0.084-0.161-0.202-0.212-0.287 0.811-0.574 1.789-0.772 2.483-0.793 1.631-0.048 3.673 1.57 4.34 1.697 9e-3 0.181 0.051 0.346 0.211 0.777" fill="#df6e3a" stroke="#231f20" stroke-linecap="square" stroke-width=".04"/>
 <g fill="#17ae65" stroke="#231f20" stroke-linecap="square" stroke-miterlimit="2" stroke-width=".04">
  <path transform="matrix(12.912 0 0 -12.912 184.34 498.87)" d="m0 0c-0.178 0.017-0.405 0.051-0.591 0.051 0.236-0.372 1.114-1.597 1.114-1.597l0.558-0.033z"/>
  <path transform="matrix(12.912 0 0 -12.912 171.47 498.11)" d="m0 0c-0.177 0.016-0.422 0-0.541-0.017 0.237-0.371 1.149-1.714 1.149-1.714l0.49 0.118z"/>
  <path transform="matrix(12.912 0 0 -12.912 159.48 498.87)" d="m0 0c-0.109 0-0.354-0.034-0.473-0.051 0.27-0.372 1.301-1.815 1.301-1.815l0.405 0.119z"/>
  <path transform="matrix(12.912 0 0 -12.912 149.23 499.96)" d="m0 0c-0.143 0-0.338-0.034-0.456-0.051 0.287-0.406 1.385-2.002 1.385-2.002l0.389 0.119z"/>
  <path transform="matrix(12.912 0 0 -12.912 139.64 501.92)" d="m0 0c-0.143 0-0.321-0.051-0.456-0.102 0.287-0.406 1.436-2.052 1.436-2.052l0.388 0.135z"/>
  <path transform="matrix(12.912 0 0 -12.912 130.48 504.53)" d="m0 0c-0.144-0.034-0.321-0.084-0.439-0.152 0.287-0.406 1.368-1.952 1.368-1.952l0.439 0.069z"/>
  <path transform="matrix(12.912 0 0 -12.912 121.54 508.24)" d="m0 0c-0.161-0.034-0.338-0.118-0.439-0.187 0.287-0.405 1.097-1.561 1.097-1.561l0.592-0.085z"/>
  <path transform="matrix(12.912 0 0 -12.912 112.81 512.61)" d="m0 0c-0.126-0.034-0.27-0.152-0.338-0.22 0.288-0.405 0.659-0.92 0.659-0.92l0.574-0.169z"/>
  <path transform="matrix(12.912 0 0 -12.912 94.201 535.23)" d="m0 0c0.084-0.136 0.219-0.279 0.312-0.355 0.693 0.186 2.099 0.477 2.099 0.477l-0.638 0.232z"/>
  <path transform="matrix(12.912 0 0 -12.912 106.08 545.7)" d="m0 0c0.084-0.084 0.22-0.211 0.363-0.287 0.844 0.422 2.014 1.034 2.014 1.034l-0.553 0.131z"/>
  <path transform="matrix(12.912 0 0 -12.912 119.5 553.76)" d="m0 0c0.128-0.075 0.288-0.161 0.431-0.203 0.658 0.693 1.473 1.558 1.473 1.558l-0.435 0.046z"/>
  <path transform="matrix(12.912 0 0 -12.912 131.16 557.91)" d="m0 0c0.118-0.068 0.304-0.093 0.448-0.118 0.523 0.742 1.237 1.929 1.237 1.929l-0.52-0.089z"/>
  <path transform="matrix(12.912 0 0 -12.912 145.01 560.12)" d="m0 0c0.135-0.017 0.355-8e-3 0.498 0 0.321 0.895 0.832 2.183 0.832 2.183l-0.469-0.14z"/>
  <path transform="matrix(12.912 0 0 -12.912 157.93 559.96)" d="m0 0c0.118 0.017 0.321 0.042 0.465 0.051 0.186 1.016 0.426 2.301 0.426 2.301l-0.401-0.123z"/>
  <path transform="matrix(12.912 0 0 -12.912 169.38 558.53)" d="m0 0c0.135 0 0.287 8e-3 0.448 0.033 0.068 0.848 0.206 2.385 0.206 2.385l-0.418-0.122z"/>
  <path transform="matrix(12.912 0 0 -12.912 181.59 557.02)" d="m0 0c0.118 0.017 0.27 0.043 0.414 0.085 0.035 0.848-0.013 2.351-0.013 2.351l-0.418-0.088z"/>
  <path transform="matrix(12.912 0 0 -12.912 191.91 555.1)" d="m0 0c0.118 0 0.253 0.025 0.43 0.017-0.015 0.865 5e-3 2.251 5e-3 2.251l-0.435 0.011z"/>
 </g>
 <path transform="matrix(12.912 0 0 -12.912 235.89 346.72)" d="m0 0c1.076 1.254 2.183 1.495 2.183 1.495 0.599 0.16 0.961 0.116 1.148 0.118 0.152-0.212 0.372-0.676 0.389-0.786 0 0-1.47 0.524-3.074-1.57l0.135-7.651c0.355 0.339 1.115 1.098 2.229 1.132 1.115 0.034 2.871-1.029 4.459-1.029 1.047 0 1.976 0.506 2.769 0.843 0.068-0.085 0.119-0.236 0.153-0.337-1.014-0.625-2.044-1.064-3.159-1.064-1.655 0-2.871 0.794-4.154 0.776-0.981-0.012-1.909-1.316-2.263-1.857l0.017-4.24c0.439 0.322 1.537 0.884 2.499 0.896 1.317 0.017 2.804-0.791 3.395-0.929 0.794-0.186 1.604 0 2.533 0.27 0.051-0.084 0.085-0.27 0.118-0.354-0.962-0.355-1.637-0.484-2.33-0.457-1.03 0.041-2.483 0.912-3.918 0.828-1.064-0.062-1.824-0.979-2.263-1.554l0.075-4.056c-0.165-0.155-0.661-0.788-0.931-1.362-0.237 0.524-0.718 1.149-0.938 1.385l0.069 4.05c-0.439 0.575-1.2 1.491-2.263 1.554-1.436 0.084-2.889-0.787-3.919-0.827-0.693-0.028-1.367 0.101-2.33 0.456 0.034 0.084 0.068 0.27 0.118 0.354 0.929-0.27 1.74-0.456 2.534-0.27 0.589 0.138 2.077 0.946 3.394 0.929 0.963-0.013 2.061-0.575 2.5-0.895l0.016 4.239c-0.354 0.54-1.282 1.845-2.263 1.858-1.283 0.017-2.499-0.777-4.154-0.777-1.115 0-2.145 0.438-3.158 1.064 0.033 0.101 0.084 0.253 0.152 0.338 0.794-0.338 1.722-0.845 2.769-0.845 1.589 0 3.344 1.064 4.459 1.03s1.875-0.793 2.229-1.132l0.135 7.65c-1.604 2.095-3.073 1.572-3.073 1.572 0.017 0.109 0.236 0.574 0.388 0.785 0.188-3e-3 0.549 0.042 1.148-0.118 0 0 1.088-0.245 2.177-1.512" fill="#df6e3a"/>
 <path transform="matrix(12.912 0 0 -12.912 235.89 346.72)" d="m0 0c1.076 1.254 2.183 1.495 2.183 1.495 0.599 0.16 0.961 0.116 1.148 0.118 0.152-0.212 0.372-0.676 0.389-0.786 0 0-1.47 0.524-3.074-1.57l0.135-7.651c0.355 0.339 1.115 1.098 2.229 1.132 1.115 0.034 2.871-1.029 4.459-1.029 1.047 0 1.976 0.506 2.769 0.843 0.068-0.085 0.119-0.236 0.153-0.337-1.014-0.625-2.044-1.064-3.159-1.064-1.655 0-2.871 0.794-4.154 0.776-0.981-0.012-1.909-1.316-2.263-1.857l0.017-4.24c0.439 0.322 1.537 0.884 2.499 0.896 1.317 0.017 2.804-0.791 3.395-0.929 0.794-0.186 1.604 0 2.533 0.27 0.051-0.084 0.085-0.27 0.118-0.354-0.962-0.355-1.637-0.484-2.33-0.457-1.03 0.041-2.483 0.912-3.918 0.828-1.064-0.062-1.824-0.979-2.263-1.554l0.075-4.056c-0.165-0.155-0.661-0.788-0.931-1.362-0.237 0.524-0.718 1.149-0.938 1.385l0.069 4.05c-0.439 0.575-1.2 1.491-2.263 1.554-1.436 0.084-2.889-0.787-3.919-0.827-0.693-0.028-1.367 0.101-2.33 0.456 0.034 0.084 0.068 0.27 0.118 0.354 0.929-0.27 1.74-0.456 2.534-0.27 0.589 0.138 2.077 0.946 3.394 0.929 0.963-0.013 2.061-0.575 2.5-0.895l0.016 4.239c-0.354 0.54-1.282 1.845-2.263 1.858-1.283 0.017-2.499-0.777-4.154-0.777-1.115 0-2.145 0.438-3.158 1.064 0.033 0.101 0.084 0.253 0.152 0.338 0.794-0.338 1.722-0.845 2.769-0.845 1.589 0 3.344 1.064 4.459 1.03s1.875-0.793 2.229-1.132l0.135 7.65c-1.604 2.095-3.073 1.572-3.073 1.572 0.017 0.109 0.236 0.574 0.388 0.785 0.188-3e-3 0.549 0.042 1.148-0.118 0 0 1.088-0.245 2.177-1.512z" fill="none" stroke="#231f20" stroke-linecap="square" stroke-miterlimit="10" stroke-width=".04"/>
</svg>
