<svg id="Globalfiber_logo_white" xmlns="http://www.w3.org/2000/svg" width="142.273" height="22.89" viewBox="0 0 142.273 22.89">
  <path id="Path_710" data-name="Path 710" d="M9.048,17.988C4.672,17.988,0,16.158,0,11.019S4.872,4.05,9.048,4.05a16.051,16.051,0,0,1,7.025,1.386l.2.1-.6,2.156L15.4,7.562A15.31,15.31,0,0,0,9.218,6.28c-4.146,0-6.625,1.778-6.625,4.754,0,3.49,3.412,4.735,6.606,4.735a14.451,14.451,0,0,0,4.453-.659V10.956h2.479v5.635l-.159.07a16.743,16.743,0,0,1-6.921,1.326Z" transform="translate(0 -2.549)" fill="#fff"/>
  <path id="Path_711" data-name="Path 711" d="M64.743,18.23H50.39V4.97h2.479V16H64.743Z" transform="translate(-31.72 -3.129)" fill="#fff"/>
  <path id="Path_712" data-name="Path 712" d="M96.974,4.77c-4.4,0-8.514,1.964-8.514,6.7s4.135,6.7,8.514,6.7,8.5-1.945,8.5-6.7-4.116-6.7-8.5-6.7Zm0,11.53c-3.875,0-6.187-1.8-6.187-4.831,0-3.561,3.2-4.831,6.187-4.831s6.15,1.267,6.15,4.831c0,3.023-2.3,4.831-6.15,4.831Z" transform="translate(-55.685 -3.003)" fill="#fff"/>
  <path id="Path_713" data-name="Path 713" d="M151.09,18.23H140.06V4.97h11.03c2.082,0,4.309.848,4.309,3.231a2.661,2.661,0,0,1-1.341,2.308,3.365,3.365,0,0,1,2.434,3.242c0,3.3-2.908,4.476-5.4,4.476Zm-8.548-2.216h8.4c.7,0,3-.156,3-2.149,0-1.263-1.071-1.9-3.186-1.9h-8.21v4.053Zm0-6.25H150.9c.986,0,1.979-.415,1.979-1.338,0-1.026-1.1-1.241-2.016-1.241h-8.321V9.764Z" transform="translate(-88.167 -3.129)" fill="#fff"/>
  <path id="Path_714" data-name="Path 714" d="M204.344,17.878h-3.053l-1.775-2.89h-9.574l-1.793,2.89H185.17L193.762,4.41h1.993l8.592,13.468Zm-13.034-5.1h6.836l-3.409-5.513Z" transform="translate(-116.564 -2.776)" fill="#fff"/>
  <path id="Path_715" data-name="Path 715" d="M254.537,4.639a5.719,5.719,0,0,1,.411-1.43,2.7,2.7,0,0,1,.574-.845,1.728,1.728,0,0,1,.737-.411,3.779,3.779,0,0,1,1.026-.126,5.854,5.854,0,0,1,1.538.2,10.432,10.432,0,0,1,1.167.385l.211.089.122-.2a4.585,4.585,0,0,0,.326-.626A2.76,2.76,0,0,0,260.84.93l.022-.185L260.7.659a3.266,3.266,0,0,0-.519-.185c-.23-.07-.5-.141-.8-.207s-.63-.13-.982-.185a7.274,7.274,0,0,0-1.1-.082,4.433,4.433,0,0,0-3.209,1.141,6.009,6.009,0,0,0-1.56,3.338l-.141.8h-1.838l-.067.167a2.771,2.771,0,0,0-.189.715,6.346,6.346,0,0,0-.037.652V7.08h1.83l-1.015,5.784h-8.181V1.841H240.41V15.1h10.267l-.552,3.157a7.491,7.491,0,0,1-.382,1.5,2.285,2.285,0,0,1-.5.823,1.39,1.39,0,0,1-.652.363,3.687,3.687,0,0,1-.919.1,2.907,2.907,0,0,1-.578-.052,2.729,2.729,0,0,1-.456-.133l-.241-.1-.1.241c-.093.215-.17.4-.241.571a5.172,5.172,0,0,0-.226.737l-.056.215.2.093a2.9,2.9,0,0,0,.7.2,5.4,5.4,0,0,0,.93.07,4.211,4.211,0,0,0,3.09-1.074,6.236,6.236,0,0,0,1.456-3.4l1.979-11.33h4.665l-1.8,10.23.256.052a2.521,2.521,0,0,0,.378.037c.156.007.282.011.374.011s.248,0,.419-.011a3.874,3.874,0,0,0,.415-.037l.189-.03,2.1-12.052h-6.7l.122-.637Z" transform="translate(-151.337)" fill="#fff"/>
  <path id="Path_716" data-name="Path 716" d="M305.515,5.245a4.345,4.345,0,0,0-2.449.645,5.974,5.974,0,0,0-.945.785l.326-1.86c.044-.245.1-.519.148-.83s.1-.622.137-.93.07-.593.1-.863a6.271,6.271,0,0,0,.048-.708V1.11q0-.2-.022-.467l-.018-.2-.2-.037a2.153,2.153,0,0,0-.389-.026H301.9c-.107,0-.252,0-.43.011a3.857,3.857,0,0,0-.426.037L300.8.469l.022.248c.015.156.022.285.022.385v.474a10.1,10.1,0,0,1-.156,1.7c-.107.619-.233,1.36-.385,2.219L298.22,17.368l.219.074c.141.048.322.1.541.152s.463.1.723.152a8.1,8.1,0,0,0,.819.1c.278.022.545.033.793.033a8.482,8.482,0,0,0,3.264-.608,7.244,7.244,0,0,0,2.5-1.7,7.653,7.653,0,0,0,1.6-2.6,9.463,9.463,0,0,0,.559-3.3,4.736,4.736,0,0,0-1.03-3.223,3.419,3.419,0,0,0-2.682-1.189Zm1.123,7.414a5.608,5.608,0,0,1-1.23,1.882,5.047,5.047,0,0,1-1.734,1.13,5.445,5.445,0,0,1-1.986.378,6.553,6.553,0,0,1-.741-.044c-.159-.019-.311-.041-.448-.07l.659-3.831a10.729,10.729,0,0,1,.663-2.386,5.936,5.936,0,0,1,.919-1.538,2.939,2.939,0,0,1,1.045-.8,2.845,2.845,0,0,1,1.119-.241,1.921,1.921,0,0,1,1.6.726,3.459,3.459,0,0,1,.6,2.179,6.957,6.957,0,0,1-.467,2.616Z" transform="translate(-187.728 -0.239)" fill="#fff"/>
  <path id="Path_717" data-name="Path 717" d="M339.495,13.51a5.551,5.551,0,0,0-2.749.7,7.212,7.212,0,0,0-2.116,1.8,8.7,8.7,0,0,0-1.86,5.309,6.818,6.818,0,0,0,.237,1.827,3.83,3.83,0,0,0,2.319,2.612,5.92,5.92,0,0,0,2.268.382,8.22,8.22,0,0,0,1.052-.07c.367-.044.73-.1,1.082-.174s.693-.152,1.008-.245a8.054,8.054,0,0,0,.811-.282l.163-.07v-.178a4.212,4.212,0,0,0-.059-.667,2.587,2.587,0,0,0-.189-.667l-.1-.219-.23.078c-.178.059-.4.126-.648.2s-.519.144-.8.211-.574.122-.882.167a6.035,6.035,0,0,1-.867.067,2.908,2.908,0,0,1-2.312-.834,3.587,3.587,0,0,1-.73-2.386v-.089l1.426-.233a22.609,22.609,0,0,0,2.49-.526,8.723,8.723,0,0,0,2.045-.83,4.2,4.2,0,0,0,1.4-1.271,3.208,3.208,0,0,0,.522-1.827,2.651,2.651,0,0,0-.841-1.971,3.394,3.394,0,0,0-2.442-.811Zm.048,4.516a12.028,12.028,0,0,1-3.486.993l-.86.137a7.141,7.141,0,0,1,.493-1.189,6.055,6.055,0,0,1,.956-1.356,4.678,4.678,0,0,1,1.212-.934,2.946,2.946,0,0,1,1.393-.341,1.638,1.638,0,0,1,1.093.308.981.981,0,0,1,.337.782,1.759,1.759,0,0,1-1.134,1.6Z" transform="translate(-209.478 -8.504)" fill="#fff"/>
  <path id="Path_718" data-name="Path 718" d="M370.109,14.14a1.243,1.243,0,0,0-.4-.074q-.211-.011-.378-.011a4.257,4.257,0,0,0-1.256.17,4.427,4.427,0,0,0-1.026.459,5.491,5.491,0,0,0-.86.656c-.059.056-.119.115-.178.174,0-.107.007-.215.007-.33,0-.219,0-.389-.011-.515a2.252,2.252,0,0,0-.063-.411l-.041-.167-.167-.033a2.649,2.649,0,0,0-.389-.037c-.163-.007-.293-.011-.385-.011s-.245,0-.408.011a3.805,3.805,0,0,0-.4.037l-.267.044.048.267a4.132,4.132,0,0,1,.052.411c.007.126.011.289.011.493a8.841,8.841,0,0,1-.167,1.66c-.115.6-.245,1.326-.4,2.19l-1.223,7.006.256.052a2.594,2.594,0,0,0,.389.037c.163.007.293.011.385.011s.245,0,.408-.011a3.808,3.808,0,0,0,.4-.037l.189-.03,1.03-5.895a7.989,7.989,0,0,1,.622-2.016,4.672,4.672,0,0,1,.911-1.319,3.176,3.176,0,0,1,1.074-.711,3.223,3.223,0,0,1,1.137-.219,2.232,2.232,0,0,1,.341.03,1.755,1.755,0,0,1,.178.033l.222.107.126-.215a2.609,2.609,0,0,0,.326-.834,4,4,0,0,0,.074-.73V14.2l-.17-.067Z" transform="translate(-228.01 -8.819)" fill="#fff"/>
</svg>