<?xml version="1.0" encoding="UTF-8" standalone="no"?>
<svg
   width="370"
   height="130.94769"
   overflow="hidden"
   version="1.1"
   id="svg2"
   xmlns="http://www.w3.org/2000/svg"
   xmlns:svg="http://www.w3.org/2000/svg">
  <defs
     id="defs1" />
  <path
     fill="#ffffff"
     d="m 63.6043,110.7367 c -1.557,0 -2.7701,0.592 -3.6392,1.776 -0.8691,1.185 -1.3036,2.858 -1.3036,5.021 0,2.115 0.4315,3.765 1.2946,4.949 0.863,1.184 2.0368,1.776 3.5215,1.776 0.9052,0 1.72,-0.266 2.4442,-0.797 0.7243,-0.532 1.2855,-1.293 1.6838,-2.284 0.3984,-0.991 0.5975,-2.169 0.5975,-3.535 0,-2.139 -0.4104,-3.825 -1.2312,-5.057 -0.8208,-1.233 -1.9433,-1.849 -3.3676,-1.849 z m 194.7877,-0.58 c -0.025,0.29 -0.109,0.767 -0.254,1.432 -0.145,0.665 -0.875,3.516 -2.191,8.556 h 4.961 l -1.81,-7.07 c -0.254,-1.039 -0.429,-2.012 -0.525,-2.918 z m 44.754,-0.236 v 5.946 h 1.412 c 1.05,0 1.895,-0.296 2.535,-0.888 0.639,-0.593 0.959,-1.336 0.959,-2.23 0,-0.87 -0.265,-1.559 -0.796,-2.066 -0.532,-0.508 -1.364,-0.762 -2.499,-0.762 z m 39.28,-5.419 h 16.168 v 6.126 h -8.347 v 3.789 h 7.84 v 6.126 h -7.84 v 3.825 h 8.944 v 6.127 h -16.765 z m -47.102,0 h 10.393 c 3.633,0 6.315,0.595 8.047,1.785 1.732,1.19 2.599,2.976 2.599,5.356 0,1.789 -0.504,3.287 -1.512,4.496 -1.008,1.208 -2.508,2.084 -4.499,2.628 v 0.073 c 1.098,0.338 2.012,0.888 2.743,1.649 0.73,0.761 1.385,1.891 1.964,3.39 l 2.553,6.616 h -8.818 l -1.937,-5.601 c -0.374,-1.1 -0.86,-1.964 -1.457,-2.592 -0.598,-0.629 -1.246,-0.943 -1.947,-0.943 h -0.307 v 9.136 h -7.822 z m -41.459,0 h 9.705 l 8.419,25.993 h -8.492 l -1.14,-4.786 h -7.75 l -1.231,4.786 h -8.455 z m -68.965,0 h 8.582 l 2.173,15.298 c 0.036,0.194 0.09,0.755 0.163,1.686 l 0.108,1.504 h 0.109 c 0.024,-0.314 0.097,-0.848 0.217,-1.604 0.121,-0.755 0.236,-1.32 0.344,-1.695 l 4.002,-15.189 h 8.527 l 3.332,15.407 0.235,1.541 0.181,1.504 h 0.073 l 0.054,-0.634 0.235,-2.52 2.263,-15.298 h 7.713 l -6.554,25.993 h -8.31 l -3.603,-14.809 c -0.109,-0.423 -0.23,-1.475 -0.362,-3.155 h -0.073 c -0.181,1.487 -0.356,2.538 -0.525,3.155 l -3.893,14.809 h -8.799 z m -44.898,0 h 22.469 v 6.126 h -7.351 v 19.867 h -7.857 v -19.867 h -7.261 z m -39.097,0 h 16.277 v 6.126 h -8.455 v 4.677 h 7.713 v 6.127 h -7.713 v 9.063 h -7.822 z m -37.2283,-0.435 c 2.4865,0 4.7104,0.552 6.6718,1.658 1.9615,1.106 3.4763,2.683 4.5445,4.731 1.068,2.048 1.602,4.372 1.602,6.97 0,2.61 -0.561,4.945 -1.6834,7.005 -1.1225,2.061 -2.6917,3.662 -4.7075,4.804 -2.0157,1.142 -4.2728,1.713 -6.7714,1.713 -2.4381,0 -4.656,-0.553 -6.6537,-1.659 -1.9976,-1.105 -3.5517,-2.658 -4.6621,-4.658 -1.1106,-2 -1.6658,-4.263 -1.6658,-6.788 0,-2.647 0.5613,-5.028 1.6839,-7.142 1.1225,-2.115 2.6976,-3.749 4.7254,-4.903 2.0279,-1.154 4.3333,-1.731 6.9163,-1.731 z m -44.4987,0 c 0.9053,0 1.7382,0.036 2.4985,0.108 0.7605,0.073 1.4516,0.163 2.0732,0.272 0.6216,0.109 1.4937,0.314 2.6162,0.616 v 6.617 c -2.1847,-1.197 -4.3332,-1.795 -6.4456,-1.795 -0.869,0 -1.569,0.163 -2.1001,0.489 -0.5312,0.327 -0.7967,0.774 -0.7967,1.342 0,0.544 0.2142,0.994 0.6427,1.35 0.4286,0.357 1.3248,0.819 2.6887,1.387 2.6916,1.088 4.5958,2.278 5.7122,3.571 1.1165,1.293 1.6748,2.828 1.6748,4.604 0,1.728 -0.4617,3.232 -1.385,4.513 -0.9235,1.281 -2.2179,2.236 -3.8837,2.864 -1.6657,0.629 -3.6693,0.943 -6.0109,0.943 -2.7159,0 -5.2023,-0.459 -7.4595,-1.378 v -7.123 c 1.0864,0.797 2.2873,1.441 3.603,1.93 1.3157,0.49 2.5408,0.734 3.6754,0.734 0.857,0 1.5209,-0.154 1.9916,-0.462 0.4707,-0.308 0.7061,-0.758 0.7061,-1.35 0,-0.423 -0.1177,-0.795 -0.3531,-1.115 -0.2354,-0.32 -0.5914,-0.619 -1.0681,-0.897 -0.4769,-0.278 -1.361,-0.659 -2.6526,-1.142 -4.1762,-1.608 -6.2644,-4.206 -6.2644,-7.795 0,-2.513 0.9535,-4.522 2.8607,-6.027 1.9071,-1.504 4.4659,-2.256 7.6766,-2.256 z M 169.741,36.6369 c -2.161,0 -3.923,0.9955 -5.285,2.9865 -1.363,1.9909 -2.044,4.6481 -2.044,7.9717 0,6.8037 2.349,10.2056 7.047,10.2056 2.223,0 4.001,-0.917 5.332,-2.7512 1.331,-1.8342 1.996,-4.5071 1.996,-8.0188 v -1.2698 c 0,-2.8845 -0.634,-5.1264 -1.902,-6.7254 -1.269,-1.5991 -2.983,-2.3986 -5.144,-2.3986 z M 114.168,23.1391 h 20.012 v 48.1594 h -20.012 z m -8.785,-0.8466 c 1.096,0 2.051,0.1882 2.866,0.5644 v 17.4484 c -0.752,-0.3448 -1.77,-0.6584 -3.054,-0.9406 -1.284,-0.2822 -2.348,-0.4233 -3.194,-0.4233 -6.608,0 -9.912,3.8252 -9.912,11.4755 V 71.2985 H 72.0772 V 23.1391 H 92.089 v 8.4655 h 0.188 c 1.221,-3.0412 2.959,-5.3537 5.214,-6.937 2.255,-1.5834 4.886,-2.3751 7.892,-2.3751 z M 232.767,2.7278 c 2.349,0 4.51,0.0941 6.483,0.2822 1.973,0.1881 3.766,0.4232 5.378,0.7054 1.613,0.2822 3.876,0.8152 6.789,1.599 v 17.1663 c -5.669,-3.1041 -11.243,-4.6561 -16.724,-4.6561 -2.255,0 -4.071,0.4234 -5.449,1.2698 -1.378,0.8466 -2.067,2.0067 -2.067,3.4803 0,1.411 0.556,2.5788 1.667,3.5038 1.112,0.925 3.438,2.1243 6.976,3.5978 6.984,2.8219 11.925,5.9103 14.821,9.2651 2.897,3.3549 4.346,7.3368 4.346,11.9458 0,4.4836 -1.198,8.3872 -3.594,11.7106 -2.396,3.3236 -5.754,5.8005 -10.076,7.4309 -4.322,1.6304 -9.521,2.4456 -15.596,2.4456 -7.047,0 -13.498,-1.1915 -19.355,-3.5744 v -18.483 c 2.819,2.0693 5.935,3.739 9.349,5.0088 3.413,1.2698 6.592,1.9047 9.536,1.9047 2.223,0 3.946,-0.3997 5.167,-1.1992 1.222,-0.7995 1.832,-1.9675 1.832,-3.5038 0,-1.0974 -0.305,-2.0615 -0.916,-2.8924 -0.61,-0.8309 -1.534,-1.6069 -2.771,-2.3281 -1.237,-0.7211 -3.531,-1.7087 -6.882,-2.9629 -10.836,-4.1701 -16.254,-10.9111 -16.254,-20.2232 0,-6.5215 2.474,-11.7342 7.422,-15.6377 4.948,-3.9035 11.588,-5.8553 19.918,-5.8553 z m -193.4009,0 c 5.8563,0 12.1042,0.8309 18.7435,2.4927 V 22.951 c -3.1005,-1.4109 -6.0756,-2.3907 -8.9255,-2.9394 -2.8499,-0.5487 -5.966,-0.8231 -9.3483,-0.8231 -5.5745,0 -10.0137,1.6775 -13.3177,5.0323 -3.3041,3.3548 -4.956,7.9639 -4.956,13.8271 0,5.6123 1.3857,10.0018 4.1574,13.1685 2.7715,3.1668 6.6471,4.7501 11.6266,4.7501 2.3174,0 4.0243,-0.1254 5.1204,-0.3762 V 45.949 H 29.548 V 30.57 h 33.2122 v 36.3077 c -2.5367,1.4423 -6.3262,2.7356 -11.3682,3.8799 -5.0421,1.1445 -9.8494,1.7167 -14.4217,1.7167 -11.8067,0 -20.92,-2.9551 -27.3402,-8.8653 C 3.21,57.6989 0,49.4136 0,38.7533 0,31.6046 1.6206,25.2555 4.8621,19.7059 8.1034,14.1563 12.668,9.9392 18.5556,7.0546 24.4432,4.1701 31.3801,2.7278 39.3661,2.7278 Z M 124.174,0.8936 c 3.351,0 6.052,0.8544 8.103,2.5631 2.051,1.7089 3.077,3.9429 3.077,6.7019 0,2.8218 -1.026,5.1107 -3.077,6.8665 -2.051,1.7559 -4.752,2.6337 -8.103,2.6337 -3.257,0 -5.927,-0.9092 -8.01,-2.7278 -2.082,-1.8185 -3.124,-4.0759 -3.124,-6.7724 0,-2.759 1.01,-4.993 3.03,-6.7019 2.02,-1.7087 4.721,-2.5631 8.104,-2.5631 z M 261.485,0 h 20.012 v 45.7609 h 0.188 l 9.724,-22.6218 h 21.468 1.081 21.045 l 5.825,23.2331 c 1.127,4.3269 1.738,7.2428 1.832,8.7477 h 0.188 c 0.094,-0.6897 0.227,-1.4579 0.399,-2.3044 0.172,-0.8466 2.607,-10.7387 7.305,-29.6764 H 370 l -17.71,49.5233 c -2.662,7.5873 -5.958,13.0273 -9.888,16.3193 -3.931,3.293 -8.746,4.939 -14.446,4.939 -1.879,0 -3.899,-0.165 -6.06,-0.494 -2.16,-0.329 -4.086,-0.808 -5.778,-1.435 v -15.096 c 0.783,0.595 1.95,1.144 3.5,1.646 1.55,0.501 3.014,0.752 4.392,0.752 3.727,0 6.201,-1.474 7.423,-4.4208 l 1.55,-3.7625 -19.657,-46.9006 -12.381,20.9867 13.764,26.102 h -22.314 l -10.71,-24.7381 h -0.188 v 24.7381 h -20.012 z m -85.121,0 h 20.012 v 71.2985 h -20.012 v -5.5967 h -0.188 c -1.597,2.1008 -3.679,3.7547 -6.247,4.9619 -2.568,1.207 -5.105,1.8106 -7.611,1.8106 -4.102,0 -7.719,-1.0111 -10.851,-3.0335 -3.132,-2.0223 -5.473,-4.8519 -7.023,-8.4891 -1.55,-3.637 -2.325,-7.9325 -2.325,-12.8863 0,-5.1107 0.924,-9.6414 2.771,-13.5919 1.848,-3.9506 4.447,-7.0232 7.798,-9.218 3.351,-2.1948 7.109,-3.2921 11.275,-3.2921 1.973,0 3.797,0.2821 5.472,0.8465 1.676,0.5643 3.132,1.3247 4.369,2.281 1.237,0.9563 2.028,1.9048 2.372,2.8453 h 0.188 z"
     fill-rule="evenodd"
     id="path2"
     style="fill:#ffffff" />
</svg>
