<svg fill="#fff" xmlns="http://www.w3.org/2000/svg" viewBox="0 0 937.92 291.55">
  <path d="m86.34,30.92h-.01s2.92,6.25,2.92,6.25l5.22,11.2c15.52-7.25,32.92-11.31,51.31-11.31s35.79,4.06,51.31,11.31l5.22-11.2,2.92-6.25c2.72-5.83,6.34-5.35,11.7-2.84l3.71-7.95c-5.36-2.5-12.33-5.75-16.5,3.18l-1.27-.59c4.17-8.94-2.79-12.19-8.15-14.69l-3.71,7.95c5.36,2.5,8.06,4.96,5.33,10.79l-1.49,3.19c-8.32-3.15-17.16-5.52-26.4-7l.57-4.2c.87-6.38,4.47-6.98,10.33-6.18l1.19-8.7c-5.87-.8-13.48-1.84-14.81,7.93l-1.39-.19c1.34-9.77-6.28-10.81-12.14-11.62l-1.19,8.7c5.87.8,9.16,2.35,8.29,8.73l-.59,4.32c-4.25-.38-8.56-.59-12.93-.59s-8.68.21-12.93.59l-.59-4.32c-.87-6.38,2.43-7.93,8.29-8.73l-1.19-8.7c-5.87.8-13.48,1.84-12.14,11.62l-1.39.19c-1.34-9.77-8.95-8.73-14.81-7.93l1.19,8.7c5.87-.8,9.46-.2,10.33,6.18l.58,4.2c-9.23,1.48-18.08,3.86-26.4,7l-1.49-3.19c-2.72-5.83-.03-8.29,5.33-10.79l-3.71-7.95c-5.36,2.5-12.33,5.75-8.15,14.69l-1.27.59c-4.17-8.94-11.13-5.69-16.5-3.18l3.71,7.95c5.36-2.5,8.98-2.99,11.7,2.84Zm116.11,220.12h.01c-.7-.59-1.77-.18-1.98.71-6.68,28.23-34.91,20.5-41.3,7.64-8.46-17.01,2.2-37.81,2.2-37.81h-2.82c-4.55,2.97-8.78,10.91-10.74,16.13h-4.11c-1.95-5.23-6.18-13.16-10.73-16.13h-2.82s10.66,20.81,2.2,37.81c-6.39,12.86-34.62,20.6-41.3-7.64-.21-.89-1.28-1.31-1.98-.71-8.46,7.16-7.81,34.02,17.3,39.55,19.51,4.29,33.23-6.2,38.13-23.42h2.52c4.91,17.22,18.62,27.71,38.13,23.42,25.11-5.52,25.76-32.38,17.29-39.55ZM12.64,204.41h.01c1.94-2.51,2.25-7.84.52-13.48l-.89-2.9-8.52,2.61.89,2.9c1.73,5.64,4.98,9.88,7.99,10.87Zm41.26,37.09v-.02c-4.03,4.33-9.27,9.96-2.05,16.68l-.96,1.03c-7.22-6.72-12.45-1.1-16.49,3.24-1,1.08-1.66,1.78-2.07,2.23l6.42,5.97,2.08-2.22c4.03-4.33,7.2-6.14,11.91-1.75l6.69-7.18c-4.71-4.38-3.14-7.67.89-12.01l2.07-2.23-6.42-5.97c-.41.44-1.07,1.15-2.07,2.23Zm-19.86,7.71l7.8-5.95c-3.9-5.12-1.8-8.09,2.91-11.68,2.42-1.84,2.41-1.85,2.41-1.85l-5.31-6.97c-.48.37-1.25.95-2.42,1.84h.02c-4.71,3.59-10.82,8.25-4.84,16.09l-1.12.85c-5.98-7.84-12.09-3.19-16.8.4-1.17.89-1.93,1.48-2.42,1.85l5.31,6.97,2.42-1.84c4.71-3.59,8.13-4.83,12.04.29Zm-15.47-20.33l8.7-4.54c-2.98-5.7-.4-8.28,4.84-11.02,2.7-1.41,2.69-1.42,2.69-1.42l-4.06-7.77c-.54.28-1.39.73-2.7,1.41l.02-.01c-5.25,2.74-12.06,6.3-7.49,15.04l-1.25.65c-4.57-8.74-11.38-5.18-16.62-2.44-1.31.68-2.16,1.13-2.7,1.41l4.06,7.77,2.7-1.4c5.25-2.74,8.83-3.39,11.81,2.32Zm259.81-37.95c-1.73,5.64-1.42,10.97.52,13.48,3.01-.99,6.26-5.23,7.99-10.87h.01s.89-2.9.89-2.9l-8.52-2.61-.89,2.9Zm-37.71,68.24l-.96-1.03c7.22-6.72,1.98-12.34-2.05-16.68-1-1.08-1.66-1.78-2.07-2.23v.02l-6.42,5.97,2.07,2.23c4.03,4.33,5.61,7.62.89,12.01l6.69,7.18c4.71-4.38,7.88-2.58,11.91,1.75,2.07,2.23,2.08,2.22,2.08,2.22l6.42-5.97c-.41-.44-1.07-1.15-2.07-2.23-4.03-4.33-9.27-9.96-16.49-3.24Zm9-36.41s.009.007.013.01l.007-.01h-.02Zm8.38,18.78l-1.12-.85c5.98-7.84-.13-12.5-4.84-16.09-1.161-.883-1.927-1.46-2.407-1.83l-5.303,6.96,2.41,1.85c4.71,3.59,6.81,6.56,2.91,11.68l7.8,5.95c3.9-5.12,7.33-3.87,12.04-.29l2.42,1.84,5.31-6.97c-.48-.37-1.25-.95-2.42-1.85-4.71-3.59-10.82-8.25-16.8-.4Zm30.79-22.77c-5.25-2.74-12.06-6.3-16.62,2.44l-1.25-.65c4.57-8.74-2.24-12.3-7.49-15.04-1.296-.673-2.139-1.119-2.68-1.4l-4.06,7.77,2.69,1.42c5.25,2.74,7.83,5.32,4.84,11.02l8.7,4.54c2.98-5.7,6.57-5.06,11.81-2.32,2.7,1.41,2.7,1.4,2.7,1.4l4.06-7.77c-.54-.28-1.39-.73-2.7-1.41Zm-28.06-14.66c.006.003.014.007.02.01h0s-.02-.01-.02-.01Zm-71.29-80.03l-14.4-6.52c-2.11-.96-3.53-3.03-3.59-5.35-.79-27.88-6.68-39.09-11.24-43.8l1.31-9.61c-4.77-2.23-10.12-3.48-15.78-3.48s-11.01,1.25-15.78,3.48l.71,5.16c-4.38,1.45-10.21,4.57-11.38,5.42-2.29,1.66-5.43,5.36-5.55,9.24,0,0,4.07-1.33,8.8,0,2.26,3.52,7.18,13.32,22.19,11.11,2.69,16.6-17.74,19.97-27.48,43.21-6.2,14.87-4.72,28.81-3.07,48.89l.25,2.96c12.74,4.62,23.05,14.32,28.46,26.67h5.69c7.52-17.17,24.52-29.24,44.38-29.6,0,0,10.22-.05,20.2-.05,9.38,0,45.02-.34,50.76-11.31.33-.63-.11-1.38-.81-1.38h-27.29c.23-.56.44-1.12.65-1.68,12.82-2.42,34.16-5.8,37.54-15.57.23-.67-.32-1.36-1.02-1.24l-33.33,5.52c.11-.6.2-1.18.3-1.77,10.6-3.61,36.84-12.92,39.4-24.17l-.01.02c.21-.92-.73-1.71-1.62-1.4l-37.03,12.85c-.03-.61-.05-1.22-.09-1.81,10.34-5.65,37.89-20.34,37.66-33.59-.02-.93-1.03-1.52-1.85-1.06l-38.27,21.31c-.18-.59-.36-1.16-.55-1.74,9.62-7.97,34.87-28.24,32.23-42.05-.18-.92-1.28-1.33-2.01-.74l-36.15,29.64c-.32-.54-.63-1.06-.93-1.55,8.57-10.82,28.92-36.2,24.06-48.94-.34-.88-1.51-1.08-2.11-.36l-52.99,63.15c-2.63,3.13-5.86,2.35-10.26.14Zm-48.2-45.21c-2.62,1.17-5.7-.01-6.87-2.64-1.17-2.62,0-5.7,2.64-6.87,2.62-1.17,5.7.02,6.87,2.64s-.02,5.7-2.64,6.87Zm-89.72,75.54c.09.59.18,1.18.29,1.77l-33.33-5.52c-.7-.12-1.26.57-1.02,1.24,3.38,9.77,24.72,13.14,37.54,15.57.21.56.42,1.12.65,1.68h-27.29c-.71,0-1.14.76-.81,1.38,5.74,10.97,41.38,11.31,50.76,11.31h21.16l-.01-.01c-1.65-19.98-3.06-33.93,3.14-48.8,1.34-3.2,4.01-8.43,3.33-9.66-.68-1.24-4.18.85-4.2.87-4.24,2.09-7.39,2.76-9.96-.29l-52.99-63.15c-.61-.72-1.78-.52-2.11.36-4.86,12.74,15.49,38.12,24.06,48.94-.31.49-.62,1.01-.93,1.55l-36.15-29.64c-.73-.6-1.83-.19-2.01.74-2.64,13.81,22.61,34.08,32.23,42.05-.19.57-.38,1.15-.55,1.74l-38.27-21.31c-.81-.45-1.83.13-1.85,1.06-.24,13.26,27.32,27.94,37.66,33.59-.04.6-.06,1.21-.09,1.81l-37.03-12.85c-.89-.31-1.83.47-1.62,1.4,2.56,11.25,28.79,20.56,39.4,24.17Zm144.72,52.17l-.15-.81s5.15-3.97,20.27-4.04v-2.82l-.01-.01c-38.47-9.59-46.88,26.01-46.88,26.01h3.61c6.62-13.79,28.19-15.15,41.66-4.24l1.87-1.74c-2.2-3.54-8.36-11.37-20.37-12.35Zm-77.86,18.33h3.61s-8.41-35.6-46.88-26.01l-.01.01v2.82c15.12.07,20.27,4.04,20.27,4.04l-.15.81c-12.01.98-18.17,8.81-20.37,12.35l1.87,1.74c13.47-10.91,35.04-9.55,41.66,4.24Z"></path>
  <path d="m396.21,87.98h31.9v33.47h19.77V36.56h-19.77v33.23h-31.9v-33.23h-19.77v84.89h19.77v-33.47Zm86.55-5.32c0-.85.12-8.37,9.22-8.37,6.07,0,9.34,3.03,9.34,8.49v3.27l-15.16,1.33c-7.39.61-12.97,2.91-16.61,6.55-3.03,3.03-4.61,7.27-4.61,12.25s1.7,8.98,4.73,12.01c3.15,3.27,8,5.09,13.58,5.09,10.92,0,17.23-5.58,20.5-17.71h2.43l-4.37,15.89h18.43v-38.69l-.01.02c0-15.28-9.7-23.29-27.65-23.29-28.62,0-28.86,21.1-28.86,23.16v.37h19.04v-.37Zm18.56,14.42c0,4-2.55,13.1-11.04,13.1-1.94,0-3.52-.61-4.49-1.58-.97-.97-1.46-2.3-1.46-4s.61-3.15,1.58-4.12c1.46-1.46,3.52-2.3,6.43-2.67l8.98-1.09v.36Zm54.88-8.38c0-7.63,3.28-12,9.22-12,4.49,0,7.4,3.27,7.4,9.58v35.17h18.8v-32.75c0-7.51,3.52-12,9.34-12,4.86,0,7.28,3.27,7.28,9.58v35.17h18.8v-39.17c0-14.79-6.43-22.8-18.31-22.8-9.1,0-16.74,5.1-19.65,17.71h-2.43c0-11.64-6.42-17.71-14.67-17.71-9.1,0-14.92,6.19-17.83,17.71h-2.43l4.49-15.89h-18.8v60.15h18.79v-32.75Zm103.83-6.04c0-.85.12-8.37,9.22-8.37,6.07,0,9.34,3.03,9.34,8.49v3.27l-15.16,1.33c-7.39.61-12.97,2.91-16.61,6.55-3.03,3.03-4.61,7.27-4.61,12.25s1.7,8.98,4.73,12.01c3.15,3.27,8,5.09,13.58,5.09,10.92,0,17.23-5.58,20.5-17.71h2.43l-4.37,15.89h18.43v-38.69l-.01.02c0-15.28-9.7-23.29-27.65-23.29-28.62,0-28.86,21.1-28.86,23.16v.37h19.04v-.37Zm18.56,14.42c0,4-2.55,13.1-11.04,13.1-1.94,0-3.52-.61-4.49-1.58-.97-.97-1.46-2.3-1.46-4s.61-3.15,1.58-4.12c1.46-1.46,3.52-2.3,6.43-2.67l8.98-1.09v.36Zm54.88-8.12c0-8.01,2.79-12.13,7.52-12.13,4.25,0,6.31,2.55,6.31,8.98v8h19.16v-14.07c0-12.98-5.46-20.26-16.13-20.26-9.7,0-15.89,5.58-19.89,19.16h-2.55l5.34-17.34h-18.55v60.15l-.01.01h18.8v-32.5Zm-315.91,104.04l-24.5,27.65h-2.43l4.61-8.61v-43.78h-18.8v84.89h18.8v-13.82l6.79-7.64,14.43,21.47h20.86l-23.16-32.99,23.77-27.17h-20.37Zm56.37-1.82c-11.52,0-20.86,4.74-26.44,12.86-3.52,5.21-5.46,11.64-5.46,19.04s1.94,13.83,5.46,19.04c5.58,8.13,14.92,12.86,26.44,12.86s20.98-4.73,26.56-12.86c3.52-5.22,5.46-11.64,5.46-19.04s-1.94-13.83-5.46-19.04c-5.58-8.13-15.04-12.86-26.56-12.86Zm10.19,42.09c-2.31,3.4-5.94,5.34-10.19,5.34s-7.88-1.95-10.19-5.34c-1.7-2.54-2.79-6.05-2.79-10.18s1.09-7.64,2.79-10.19c2.31-3.4,5.82-5.34,10.19-5.34s7.89,1.94,10.19,5.34c1.82,2.55,2.79,6.07,2.79,10.19s-.97,7.63-2.79,10.18Zm107.22-42.08c-9.1,0-16.74,5.1-19.65,17.71h-2.43c0-11.64-6.42-17.71-14.67-17.71-9.1,0-14.92,6.19-17.83,17.71h-2.43l4.49-15.89h-18.8v60.15h-.01s18.8,0,18.8,0v-32.75c0-7.63,3.28-12,9.22-12,4.49,0,7.4,3.27,7.4,9.58v35.17h18.8v-32.75c0-7.51,3.52-12,9.34-12,4.86,0,7.28,3.27,7.28,9.58v35.17h18.8v-39.17c0-14.79-6.43-22.8-18.31-22.8Zm106.97,0c-9.1,0-16.74,5.1-19.65,17.71h-2.43c0-11.64-6.42-17.71-14.67-17.71-9.1,0-14.92,6.19-17.83,17.71h-2.43l4.49-15.89h-18.8v60.15h-.01s18.8,0,18.8,0v-32.75c0-7.63,3.28-12,9.22-12,4.49,0,7.4,3.27,7.4,9.58v35.17h18.8v-32.75c0-7.51,3.52-12,9.34-12,4.86,0,7.28,3.27,7.28,9.58v35.17h18.8v-39.17c0-14.79-6.43-22.8-18.31-22.8Zm72.31,33.23c0,8.37-4,13.34-10.31,13.34-5.7,0-8.49-3.52-8.49-10.31v-34.44h-18.8v38.44h.01c0,15.4,6.79,23.53,20.25,23.53,9.7,0,16.13-5.94,19.4-17.71h2.55l-4.61,15.89h18.8v-60.15h-18.8v31.41Zm73.4-33.23c-9.94,0-16.62,6.07-20.01,17.71h-2.43l4.49-15.89h-18.8v60.15h-.01s18.8,0,18.8,0v-31.41c0-8.37,4.25-13.34,11.04-13.34,6.07,0,8.98,3.64,8.98,10.31v34.44h18.8v-38.44c0-15.4-7.16-23.53-20.86-23.53Zm65.16,49.49c-4.74,0-7.89-1.58-9.95-4.49-1.46-2.06-2.3-4.86-2.79-8.25h41.36v-4.85c0-20.14-10.43-31.9-29.11-31.9-10.31,0-19.16,4.12-24.5,11.76-3.64,5.22-5.82,12.26-5.82,20.38s1.94,14.8,5.58,20.01c5.22,7.64,13.95,11.64,25.59,11.64,15.156,0,26.313-8.246,28.378-20.49h-18.798c-1.45,4.13-5.2,6.19-9.94,6.19Zm-10.07-30.7c2.18-3.27,5.58-4.85,9.58-4.85,7.04,0,10.92,3.88,11.16,11.28h-23.16c.36-2.55,1.21-4.73,2.42-6.43Zm38.808,24.51h.002v-.01s-.002.007-.002.01Z"></path>
</svg>
