<?xml version="1.0" encoding="utf-8"?>
<!-- Generator: Adobe Illustrator 23.0.2, SVG Export Plug-In . SVG Version: 6.00 Build 0)  -->
<!DOCTYPE svg PUBLIC "-//W3C//DTD SVG 1.1//EN" "http://www.w3.org/Graphics/SVG/1.1/DTD/svg11.dtd" [
	<!ENTITY st0 "fill:#FFFFFF;">
]>
<svg version="1.1" id="Layer_1" xmlns="http://www.w3.org/2000/svg" xmlns:xlink="http://www.w3.org/1999/xlink" x="0px" y="0px"
	 viewBox="0 0 297.6 105.7" style="enable-background:new 0 0 297.6 105.7;" xml:space="preserve">
<g>
	<path style="&st0;" d="M45.8,20.1c-3.9,0-7.1-3.2-7.1-7.1c0-3.9,3.2-7.1,7.1-7.1c3.9,0,7.1,3.2,7.1,7.1
		C52.9,16.9,49.7,20.1,45.8,20.1 M88.6,36.8V25.1L73.5,10.1h-15C57.1,4.3,52,0,45.8,0S34.5,4.3,33.1,10.1h-15L3,25.1v11.6
		c-1.8,1-3,3-3,5.2c0,3.3,2.7,6,6,6c3.3,0,6-2.7,6-6c0-2.2-1.2-4.2-3-5.2v-9.2L20.6,16h12.6c1.4,5.8,6.5,10.1,12.7,10.1
		S57.1,21.8,58.5,16h12.5l11.6,11.6v9.2c-1.8,1-3,3-3,5.2c0,3.3,2.7,6,6,6s6-2.7,6-6C91.6,39.7,90.4,37.8,88.6,36.8"/>
	<path style="&st0;" d="M45.8,99.7c-3.9,0-7.1-3.2-7.1-7.1c0-3.9,3.2-7.1,7.1-7.1c3.9,0,7.1,3.2,7.1,7.1
		C52.9,96.5,49.7,99.7,45.8,99.7 M85.6,57.7c-3.3,0-6,2.7-6,6c0,2.2,1.2,4.2,3,5.2v9.2L71.1,89.6H58.5c-1.4-5.8-6.5-10.1-12.7-10.1
		s-11.3,4.3-12.7,10.1H20.6L9,78.1v-9.2c1.8-1,3-3,3-5.2c0-3.3-2.7-6-6-6c-3.3,0-6,2.7-6,6c0,2.2,1.2,4.2,3,5.2v11.6l15.1,15.1h15
		c1.4,5.8,6.5,10.1,12.7,10.1s11.3-4.3,12.7-10.1h15l15.1-15.1V68.9c1.8-1,3-3,3-5.2C91.6,60.4,88.9,57.7,85.6,57.7"/>
	<path style="&st0;" d="M61.2,63H30.5V42.7h30.7V63z M67.1,36.7H24.5V69h42.7V36.7z"/>
	<polygon style="&st0;" points="137,37.1 129.6,37.1 118,51.2 117.9,51.2 117.9,37.1 111.7,37.1 111.7,68.3 117.9,68.3 117.9,59.8 
		121,56.2 130.9,68.3 138.4,68.3 124.7,51.7 	"/>
	<path style="&st0;" d="M158.6,56.2l3.9-11.3h0.1l3.9,11.3H158.6z M159.4,37.1l-11.2,31.2h6.2l2.4-6.7h11.7l2.4,6.7h6.2l-11.1-31.2
		H159.4z"/>
	<polygon style="&st0;" points="209.7,57.3 209.6,57.3 196.2,37.1 190.3,37.1 190.3,68.3 196.6,68.3 196.6,48.1 196.7,48.1 
		210.1,68.3 216,68.3 216,37.1 209.7,37.1 	"/>
	<path style="&st0;" d="M250.5,63h-11.8V42.5h11.8V63z M232.5,37.1v31.2h19.1l5.2-3V40.1l-5.2-3H232.5z"/>
	<polygon style="&st0;" points="291.3,37.1 291.3,62.8 279.5,62.8 279.5,37.1 273.3,37.1 273.3,65.6 278.4,68.6 292.4,68.6 
		297.6,65.6 297.6,37.1 	"/>
</g>
</svg>
