<?xml version="1.0" encoding="UTF-8" standalone="no"?>
<!-- Created with Inkscape (http://www.inkscape.org/) -->

<svg
   width="840mm"
   height="198mm"
   viewBox="0 0 840 198"
   version="1.1"
   id="svg1"
   xmlns="http://www.w3.org/2000/svg"
   xmlns:svg="http://www.w3.org/2000/svg">
  <defs
     id="defs1" />
  <g
     id="kia-logo"
     class="logo"
     transform="translate(-109.9,-41.4)"
     style="fill:#ffffff">
    <path
       class="st0"
       d="m 597.3,216.8 c 0,1.6 0.5,2.4 1.4,2.4 0.7,-0.1 1.4,-0.3 2,-0.8 L 862.5,48.1 c 4.4,-3.1 9.7,-4.7 15.1,-4.6 h 57.5 c 8.9,0 14.8,5.9 14.8,14.8 v 110.1 c 0,13.3 -3,21 -14.8,28.1 l -69.8,42 c -0.7,0.5 -1.5,0.8 -2.3,0.9 -0.8,0 -1.6,-0.7 -1.6,-3.1 V 107.7 c 0,-1.4 -0.5,-2.5 -1.4,-2.5 -0.7,0.1 -1.4,0.3 -2,0.8 L 666.6,230.7 c -4.3,3 -9.4,4.6 -14.7,4.5 H 525 c -8.9,0 -14.8,-5.9 -14.8,-14.8 V 61.7 c 0,-1.2 -0.5,-2.2 -1.4,-2.2 -0.7,0.1 -1.5,0.3 -2.1,0.8 l -126.2,76 c -1.3,0.8 -1.6,1.4 -1.6,2 0.1,0.8 0.5,1.5 1.1,1.9 l 90.2,90.4 c 1.2,1.2 2,2.1 2,3.1 0,1.1 -1.3,1.6 -2.9,1.6 h -81.6 c -6.4,0 -11.3,-1 -14.8,-4.4 l -54.7,-54.8 c -0.4,-0.5 -1,-0.8 -1.6,-0.9 -0.6,0 -1.2,0.3 -1.7,0.6 l -91.5,55.1 c -5.5,3.3 -9.4,4.4 -14.8,4.4 h -84 c -8.8,-0.1 -14.7,-6 -14.7,-14.9 V 112.3 c 0,-13.3 3,-20.9 14.8,-28 L 194.9,42 c 0.5,-0.4 1.2,-0.6 1.9,-0.6 1.1,0 1.6,1.1 1.6,3.6 v 144.5 c 0,1.5 0.4,2.2 1.4,2.2 0.8,-0.1 1.5,-0.4 2.1,-0.9 L 439.2,47.9 c 5.6,-3.4 9.1,-4.4 15.7,-4.4 h 127.7 c 8.9,0 14.8,5.9 14.8,14.8 v 158.5 z"
       style="opacity:0.874605;fill:#ffffff"
       id="path1" />
  </g>
</svg>
