<?xml version="1.0" encoding="UTF-8"?>
<svg id="Layer_6_copy_3" data-name="Layer 6 copy 3" xmlns="http://www.w3.org/2000/svg" viewBox="0 0 2949.7 327.44">
  <defs>
    <style>
      .cls-1 {
        fill: #fff;
      }
    </style>
  </defs>
  <g>
    <path class="cls-1" d="M692.69,7.46l-8.07,130.36c-1.47,22.39-3.73,49.16-10.89,76.37h3.5c6.27-12.73,15.8-28.97,27.84-46.96L813.05,7.46h126.49l-116.64,312.51h-80.53l74.74-200.59c6.87-18.43,12.86-32.04,21.52-48.28h-4.38c-10.65,17.56-19.34,31.6-31.31,49.16l-135.85,199.71h-63.02l12.51-200.15,4.09-48.72h-3.06c-6.99,21.51-10.95,35.99-17.83,54.43l-73.18,194.44h-79.22L564.02,7.46h128.67Z"/>
    <path class="cls-1" d="M1078.28,7.46c-65.63,174.69-76.81,202.34-80.18,220.78-3.85,21.07,8.82,35.55,33.33,35.55,43.77,0,59.16-21.95,76.17-67.16L1178.06,7.46h82.28l-71.66,190.93c-33.43,89.54-81.8,129.04-174.58,129.04-73.97,0-112.47-35.99-101.16-97.88.88-4.83,4.24-18.43,12.71-40.82L992.93,7.46h85.34Z"/>
    <path class="cls-1" d="M1398.64,7.46l-91.67,245.36h116.86l-24.97,67.16h-201.76L1314.18,7.46h84.47Z"/>
    <path class="cls-1" d="M1731.7,7.46l-24.97,67.16h-81.41l-91.67,245.36h-84.91l91.67-245.36h-81.41l24.97-67.16h247.72Z"/>
    <path class="cls-1" d="M1867.81,7.46l-116.64,312.51h-84.91L1782.9,7.46h84.91Z"/>
    <path class="cls-1" d="M2052.5,7.46c53.4,0,96.81,21.07,85.18,84.71-13.64,74.62-73.95,122.02-145.29,122.02h-59.96l-39.47,105.78h-84.91L1924.7,7.46h127.8ZM1985.72,71.11l-29.84,79.45h45.52c23.63,0,46.46-17.12,51.35-43.89,5.05-27.65-6.63-35.55-28.95-35.55h-38.08Z"/>
    <path class="cls-1" d="M2300.65,7.46l-116.64,312.51h-84.91L2215.74,7.46h84.91Z"/>
    <path class="cls-1" d="M2510.1,111.49c3.03-28.53-9.52-46.09-34.03-46.09-56.02,0-96.83,72.42-109.51,141.77-7.46,40.82,6.72,56.62,36.04,56.62,27.57,0,54.06-22.82,71.02-50.92l69.96,17.12c-25.67,56.62-81.71,97.44-153.49,97.44-86.22,0-125.78-46.96-110.38-131.24,19.25-105.34,101.07-196.2,216.61-196.2,66.09,0,99.61,36.87,97.1,96.12l-83.34,15.36Z"/>
    <path class="cls-1" d="M2755.82,7.46l-45.26,120.7.72.88,132.51-121.58h105.92l-172.78,147.92,64.45,164.6h-98.04l-52.47-139.14-51.69,139.14h-84.91L2670.91,7.46h84.91Z"/>
  </g>
  <g id="Layer_7_copy_4" data-name="Layer 7 copy 4">
    <polygon class="cls-1" points="0 319.98 54.08 319.98 171.33 7.48 118.37 7.48 0 319.98"/>
    <polygon class="cls-1" points="93.97 319.98 148.05 319.98 265.31 7.48 212.34 7.48 93.97 319.98"/>
    <polygon class="cls-1" points="174.17 319.98 292.51 7.48 430.6 7.48 475.78 69.82 381.39 319.98 174.17 319.98"/>
  </g>
</svg>