<?xml version="1.0" encoding="UTF-8" standalone="no"?>
<!DOCTYPE svg PUBLIC "-//W3C//DTD SVG 1.1//EN" "http://www.w3.org/Graphics/SVG/1.1/DTD/svg11.dtd">
<svg width="100%" height="100%" viewBox="0 0 200 40" version="1.1" xmlns="http://www.w3.org/2000/svg" xmlns:xlink="http://www.w3.org/1999/xlink" xml:space="preserve" xmlns:serif="http://www.serif.com/" style="fill-rule:evenodd;clip-rule:evenodd;stroke-linejoin:round;stroke-miterlimit:2;">
    <g transform="matrix(1,0,0,1,-0.356509,-0.17825)">
        <g>
            <path d="M29.2,36L29.2,20.6C29.2,13.1 22.2,8.3 15.9,8.3C11.6,8.3 8.3,10.6 5.1,13C4.1,13.8 3,14.4 1.7,14.5C2.2,15.3 2.6,16.2 2.6,17.7L2.6,36C2.6,37 2.5,37.9 1.3,38.7L10,38.7C8.8,37.9 8.7,37 8.7,36L8.7,17.7C10.4,16.1 12.8,14 15.5,14C19.7,14 23.2,16.8 23.2,21.5L23.2,36C23.2,37 23.1,37.9 21.9,38.7L30.4,38.7C29.3,37.9 29.2,37 29.2,36Z" style="fill:white;"/>
            <path d="M40.8,26.7L67.5,26.7C67.3,26.3 67.2,25.9 67.2,25.5C67.2,16.5 60.9,8.3 50.7,8.3C41.9,8.3 34.7,15.5 34.7,24.5C34.7,32.9 42.2,39.7 51,39.7C53.8,39.7 57.2,38.6 58.8,38.6C59.7,38.6 59.8,39 60.5,39.6L60.5,31.2C58.2,33.3 55,34.3 51.9,34.3C46.6,34.1 42.3,31.9 40.8,26.7ZM51.1,13.8C55.7,13.8 59.7,16.7 60.7,21.1L40.9,21.1C42.4,16.5 46,13.8 51.1,13.8Z" style="fill:white;"/>
            <path d="M98.2,36.6L86.9,22.8L96.2,11.4C96.9,10.5 97.8,9.8 98.7,9.2L88.5,9.2C89,9.7 89.2,9.9 89.2,10.3C89.2,10.7 88.9,11.3 88.7,11.6L83.5,19L83.3,19L78.1,11.6C77.9,11.2 77.6,10.7 77.6,10.3C77.6,9.9 77.8,9.7 78.3,9.2L68.1,9.2C69,9.9 69.8,10.5 70.6,11.4L79.9,22.8L68.7,36.6C68.1,37.3 67.3,38 66.2,38.7L76.8,38.7C76.3,38.4 76.1,37.9 76.1,37.5C76.1,37 76.5,36.4 76.9,35.8L83.6,26.9L83.7,26.9L89.9,35.8C90.3,36.4 90.7,37.1 90.7,37.5C90.7,37.9 90.5,38.4 90,38.7L100.6,38.7C99.5,38 98.8,37.3 98.2,36.6Z" style="fill:white;"/>
            <path d="M113,14.8C114,14.8 115,14.9 115.8,15.7L115.8,9.3L109.7,9.3L109.7,0.7L98.8,14.8L103.8,14.8L103.8,36C103.8,37 103.7,37.9 102.5,38.7L111,38.7C109.9,37.9 109.7,37 109.7,36L109.7,14.8L113,14.8Z" style="fill:white;"/>
        </g>
        <g>
            <path d="M119.8,34.4C119.8,36.8 119.7,38.2 118.7,38.7L125.1,38.7C124.4,38.3 124,37.5 124,36.2L124,30.6L119.8,30.6L119.8,34.4Z" style="fill:white;"/>
            <path d="M124,20.8C124,14.4 128.6,12.4 131.9,12.4L133,12.4L133,7.7C132.5,8.1 132,8.3 131.4,8.3C128.3,8.3 125.2,9.6 123.8,13.2L123.7,13.2L123.7,9.3L119.2,9.3C119.4,9.9 119.8,10.7 119.8,11.5L119.8,29.2L124,29.2L124,20.8Z" style="fill:white;"/>
            <path d="M138,24C138,17.6 143.4,12.4 149.9,12.4C156.4,12.4 161.8,17.6 161.8,24C161.8,25.8 161.3,27.6 160.6,29.1L165.3,29.1C165.9,27.5 166.2,25.8 166.2,24C166.2,15.2 158.7,8.3 150,8.3C141.2,8.3 133.8,15.2 133.8,24C133.8,25.8 134.1,27.5 134.7,29.1L139.4,29.1C138.4,27.5 138,25.8 138,24Z" style="fill:white;"/>
            <path d="M149.9,35.6C145.9,35.6 142.4,33.6 140.2,30.7L135.2,30.7C137.8,36.1 143.5,39.7 149.9,39.7C156.3,39.7 161.9,36.1 164.6,30.7L159.6,30.7C157.4,33.6 153.8,35.6 149.9,35.6Z" style="fill:white;"/>
            <path d="M171.7,35.8C171.7,37.4 171.6,38.1 170.7,38.7L177.4,38.7C176.9,38.3 175.9,37.7 175.9,36.6L175.9,30.7L171.7,30.7L171.7,35.8Z" style="fill:white;"/>
            <path d="M193.9,30.7L193.9,35.4C193.9,37.1 193.8,38 192.7,38.8L199.4,38.8C198.7,38.3 198.1,37.7 198.1,35.3L198.1,30.8L193.9,30.8L193.9,30.7Z" style="fill:white;"/>
            <path d="M175.9,17.3C177.1,16.4 179.5,12.4 184.4,12.4C189.8,12.4 193.8,16.6 193.8,22L193.8,29.1L198,29.1L198,21.4C198,14.4 192.1,8.4 185,8.4C177,8.4 177.8,12.8 171.1,15C171.3,15.5 171.6,15.8 171.6,16.7L171.6,29.2L175.8,29.2L175.8,17.3L175.9,17.3Z" style="fill:white;"/>
        </g>
    </g>
</svg>
