<?xml version="1.0" encoding="utf-8"?>
<!-- Generator: Adobe Illustrator 24.0.1, SVG Export Plug-In . SVG Version: 6.00 Build 0)  -->
<svg version="1.1" id="Layer_1" xmlns="http://www.w3.org/2000/svg" xmlns:xlink="http://www.w3.org/1999/xlink" x="0px" y="0px"
	 viewBox="0 0 216 55" style="enable-background:new 0 0 216 55;" xml:space="preserve">
<style type="text/css">
	.st0{clip-path:url(#SVGID_2_);}
	.st1{fill:#FFFFFF;}
	.st2{clip-path:url(#SVGID_4_);}
	.st3{clip-path:url(#SVGID_6_);}
	.st4{clip-path:url(#SVGID_8_);}
	.st5{clip-path:url(#SVGID_10_);}
	.st6{clip-path:url(#SVGID_12_);}
	.st7{clip-path:url(#SVGID_14_);}
</style>
<g>
	<g>
		<defs>
			<rect id="SVGID_1_" x="-211" y="-57" width="1600" height="6899"/>
		</defs>
		<clipPath id="SVGID_2_">
			<use xlink:href="#SVGID_1_"  style="overflow:visible;"/>
		</clipPath>
		<g class="st0">
			<path class="st1" d="M0,7.7c0-0.4,0.2-0.6,0.5-0.6h6.6c0.4,0,0.7,0.2,0.9,0.6l13.2,23.6h0.3V7.7c0-0.4,0.2-0.6,0.5-0.6h6.2
				c0.4,0,0.5,0.2,0.5,0.6v36.4c0,0.4-0.2,0.6-0.5,0.6h-6.5c-0.4,0-0.7-0.2-0.9-0.6L7.6,20.6H7.3v23.5c0,0.4-0.2,0.6-0.5,0.6H0.5
				c-0.4,0-0.5-0.2-0.5-0.6V7.7z"/>
		</g>
	</g>
</g>
<g>
	<g>
		<defs>
			<rect id="SVGID_3_" x="-211" y="-57" width="1600" height="6899"/>
		</defs>
		<clipPath id="SVGID_4_">
			<use xlink:href="#SVGID_3_"  style="overflow:visible;"/>
		</clipPath>
		<g class="st2">
			<path class="st1" d="M33.2,31.3c0,2.4,0.3,4.5,0.9,6.3c1.5,4.9,5.8,7.6,11.7,7.6c4.8,0,8.5-1.5,11.3-4.5c0.3-0.3,0.2-0.5-0.1-0.8
				l-3.6-3.4c-0.2-0.3-0.4-0.3-0.8,0C51,38.2,49,39,46.6,39c-2.9,0-4.8-1.2-5.5-3.5c-0.1-0.5-0.2-1-0.3-1.5c0-0.2,0.1-0.3,0.3-0.3
				h16.1c0.4,0,0.6-0.2,0.6-0.6c0-3.6-0.3-6.3-0.9-8.2c-1.5-4.7-5.7-7.5-11.5-7.5c-5.7,0-9.9,2.8-11.4,7.6
				C33.4,26.7,33.2,28.8,33.2,31.3z M50.2,28.2c0,0.2-0.1,0.3-0.3,0.3h-8.8c-0.2,0-0.3-0.1-0.3-0.3c0-0.7,0.1-1.4,0.3-2
				c0.7-1.9,2.1-2.9,4.4-2.9c2.3,0,3.8,1,4.4,2.9C50.1,26.8,50.2,27.5,50.2,28.2z"/>
		</g>
	</g>
</g>
<g>
	<g>
		<defs>
			<rect id="SVGID_5_" x="-211" y="-57" width="1600" height="6899"/>
		</defs>
		<clipPath id="SVGID_6_">
			<use xlink:href="#SVGID_5_"  style="overflow:visible;"/>
		</clipPath>
		<g class="st3">
			<path class="st1" d="M78,44.7c-0.3,0-0.6-0.2-0.8-0.5l-4.7-7.3h-0.1l-4.7,7.3c-0.3,0.3-0.6,0.5-0.9,0.5h-7
				c-0.5,0-0.6-0.2-0.4-0.6l8.9-13.3l-8.2-12.3C59.9,18.1,60,18,60.5,18h7.1c0.4,0,0.7,0.2,0.9,0.5l4,6.3h0.1l4-6.3
				c0.3-0.3,0.6-0.5,0.9-0.5h7c0.5,0,0.7,0.2,0.4,0.6l-8.2,12.3l8.9,13.3c0.2,0.4,0.1,0.6-0.4,0.6L78,44.7L78,44.7z"/>
		</g>
	</g>
</g>
<g>
	<g>
		<defs>
			<rect id="SVGID_7_" x="-211" y="-57" width="1600" height="6899"/>
		</defs>
		<clipPath id="SVGID_8_">
			<use xlink:href="#SVGID_7_"  style="overflow:visible;"/>
		</clipPath>
		<g class="st4">
			<path class="st1" d="M97.5,45c-6.1,0-8.5-2.7-8.5-8.9V24c0-0.2-0.1-0.3-0.3-0.3h-1.6c-0.4,0-0.5-0.2-0.5-0.6v-4.6
				c0-0.4,0.2-0.6,0.5-0.6h1.6c0.2,0,0.3-0.1,0.3-0.3v-7.2c0-0.4,0.2-0.6,0.5-0.6H96c0.4,0,0.5,0.2,0.5,0.6v7.2
				c0,0.2,0.1,0.3,0.3,0.3h3.4c0.4,0,0.5,0.2,0.5,0.6v4.6c0,0.4-0.2,0.6-0.5,0.6H97c-0.2,0-0.3,0.1-0.3,0.3v11.8
				c0,2,0.7,2.6,2.4,2.6h1.3c0.4,0,0.5,0.2,0.5,0.6v5.5c0,0.4-0.2,0.6-0.5,0.6L97.5,45L97.5,45z"/>
		</g>
	</g>
</g>
<g>
	<g>
		<defs>
			<rect id="SVGID_9_" x="-211" y="-57" width="1600" height="6899"/>
		</defs>
		<clipPath id="SVGID_10_">
			<use xlink:href="#SVGID_9_"  style="overflow:visible;"/>
		</clipPath>
		<g class="st5">
			<path class="st1" d="M121.8,44.7c-0.4,0-0.5-0.2-0.5-0.6V28.8c0-3-1.4-4.9-4.1-4.9c-2.6,0-4.2,1.9-4.2,4.9v15.3
				c0,0.4-0.2,0.6-0.5,0.6h-6.6c-0.4,0-0.5-0.2-0.5-0.6V7.7c0-0.4,0.2-0.6,0.5-0.6h6.6c0.4,0,0.5,0.2,0.5,0.6v12.7h0.1
				c1.5-2,3.7-3,6.9-3c5.8,0,9.1,4,9.1,9.9v16.8c0,0.4-0.2,0.6-0.5,0.6C128.6,44.7,121.8,44.7,121.8,44.7z"/>
		</g>
	</g>
</g>
<g>
	<g>
		<defs>
			<rect id="SVGID_11_" x="-211" y="-57" width="1600" height="6899"/>
		</defs>
		<clipPath id="SVGID_12_">
			<use xlink:href="#SVGID_11_"  style="overflow:visible;"/>
		</clipPath>
		<g class="st6">
			<path class="st1" d="M133.9,24.9c-0.6,1.9-0.9,4-0.9,6.4s0.3,4.6,0.9,6.4c1.5,4.8,5.8,7.5,11.5,7.5s10-2.7,11.5-7.5
				c0.6-1.9,0.9-4,0.9-6.4s-0.3-4.6-0.9-6.4c-1.5-4.8-5.8-7.5-11.5-7.5C139.7,17.4,135.4,20.1,133.9,24.9z M149.5,26.7
				c0.3,1,0.5,2.5,0.5,4.6s-0.2,3.5-0.5,4.6c-0.6,1.9-2,2.9-4.1,2.9s-3.5-0.9-4.1-2.9c-0.3-1-0.5-2.5-0.5-4.6s0.2-3.5,0.5-4.6
				c0.6-1.9,2-2.9,4.1-2.9C147.5,23.9,148.9,24.8,149.5,26.7z"/>
		</g>
	</g>
</g>
<g>
	<g>
		<defs>
			<rect id="SVGID_13_" x="162" y="17.4" width="24.7" height="37.2"/>
		</defs>
		<clipPath id="SVGID_14_">
			<use xlink:href="#SVGID_13_"  style="overflow:visible;"/>
		</clipPath>
		<g class="st7">
			<path class="st1" d="M162,54c0,0.4,0.2,0.6,0.5,0.6h6.6c0.4,0,0.5-0.2,0.5-0.6V42.2h0.1c1.4,2,3.7,3.1,7,3.1c4.6,0,7.6-2.1,9-6.4
				c0.6-2,0.9-4.5,0.9-7.6c0-3-0.3-5.6-0.9-7.6c-1.4-4.2-4.4-6.4-9-6.4c-3.3,0-5.6,1-7,3.1h-0.1v-1.9c0-0.4-0.2-0.6-0.5-0.6h-6.6
				c-0.4,0-0.5,0.2-0.5,0.6V54z M178.9,31.3c0,2-0.2,3.5-0.5,4.6c-0.6,1.9-2,2.9-4.1,2.9s-3.5-0.9-4.1-2.9c-0.3-1-0.5-2.6-0.5-4.6
				s0.2-3.5,0.5-4.6c0.6-1.9,1.9-2.9,4.1-2.9c2.1,0,3.5,0.9,4.1,2.9C178.7,27.8,178.9,29.3,178.9,31.3z"/>
		</g>
	</g>
</g>
<g>
	<path class="st1" d="M207.8,1h-13c-4.3,0-7.8,3.5-7.8,7.8s3.5,7.8,7.8,7.8h13c4.3,0,7.8-3.5,7.8-7.8S212.1,1,207.8,1z M207.5,14.3
		c-3,0-5.5-2.5-5.5-5.5c0-3.1,2.5-5.5,5.5-5.5s5.5,2.5,5.5,5.5C213.1,11.9,210.6,14.3,207.5,14.3z"/>
</g>
</svg>
