<?xml version="1.0" encoding="UTF-8" standalone="no"?>
<!-- Created with Inkscape (http://www.inkscape.org/) -->

<svg
   version="1.1"
   id="svg1"
   width="1474.0394"
   height="293.69055"
   viewBox="0 0 1474.0394 293.69055"
   xmlns="http://www.w3.org/2000/svg"
   xmlns:svg="http://www.w3.org/2000/svg">
  <defs
     id="defs1" />
  <g
     id="g1"
     transform="translate(-5.2133332e-4,-0.00336232)">
    <g
       id="group-R5"
       style="fill:#ffffff">
      <path
         id="path2"
         d="m 1750.79,1090.01 c 0,100 -18.3,195.03 -54.89,285.15 -36.63,90.02 -89.21,170.22 -157.85,240.58 -66.87,69.33 -144.4,122.76 -232.42,160.14 -88.13,37.42 -180.99,56.05 -278.5,56.05 -97.599,0 -190.4,-18.48 -278.458,-55.38 -88.203,-36.95 -166.492,-90.6 -235.117,-160.81 -68.684,-69.39 -121.172,-149.15 -157.266,-239.25 -36.101,-90.11 -54.141,-185.56 -54.141,-286.48 0,-99.998 18.04,-194.619 54.141,-283.799 36.094,-89.242 88.582,-168.902 157.266,-239.199 68.625,-70.282 146.789,-123.922 234.433,-160.801 87.637,-36.992 180.657,-55.473 279.142,-55.473 96.67,0 188.58,18.481 275.79,55.473 87.1,36.879 165.53,90.519 235.13,160.801 68.64,70.297 121.22,150.199 157.85,239.929 36.59,89.61 54.89,183.969 54.89,283.069 z m 300.62,-0.51 c 0,-137.641 -25.53,-267.809 -76.64,-390.359 C 1923.63,576.469 1849.23,467.07 1751.43,370.949 1652.77,274.781 1541.41,201.109 1417.47,149.93 1293.4,98.7617 1163.31,73.1797 1027.13,73.1797 889.148,73.1797 757.539,99 632.234,150.551 506.863,202.238 396.191,275.73 300.164,370.949 202.336,467.07 128.125,576.051 77.4805,697.809 26.7969,819.539 1.50391,950.121 1.50391,1089.5 c 0,138.51 25.29299,269.05 75.97659,391.71 50.6445,122.62 124.8555,232.48 222.6835,329.51 97.785,96.09 208.637,169.32 332.68,219.6 124.011,50.31 255.437,75.49 394.286,75.49 137.97,0 268.67,-25.18 392.26,-75.49 123.57,-50.28 234.23,-123.51 332.04,-219.6 97.8,-97.96 172.2,-208.47 223.34,-331.51 51.11,-123.04 76.64,-252.96 76.64,-389.71"
         style="fill:#ffffff;fill-opacity:1;fill-rule:nonzero;stroke:none"
         transform="matrix(0.13333333,0,0,-0.13333333,0,293.69333)" />
      <path
         id="path3"
         d="m 1750.79,1090.01 c 0,100 -18.3,195.03 -54.89,285.15 -36.63,90.02 -89.21,170.22 -157.85,240.58 -66.87,69.33 -144.4,122.76 -232.42,160.14 -88.13,37.42 -180.99,56.05 -278.5,56.05 -97.599,0 -190.4,-18.48 -278.458,-55.38 -88.203,-36.95 -166.492,-90.6 -235.117,-160.81 -68.684,-69.39 -121.172,-149.15 -157.266,-239.25 -36.101,-90.11 -54.141,-185.56 -54.141,-286.48 0,-99.998 18.04,-194.619 54.141,-283.799 36.094,-89.242 88.582,-168.902 157.266,-239.199 68.625,-70.282 146.789,-123.922 234.433,-160.801 87.637,-36.992 180.657,-55.473 279.142,-55.473 96.67,0 188.58,18.481 275.79,55.473 87.1,36.879 165.53,90.519 235.13,160.801 68.64,70.297 121.22,150.199 157.85,239.929 36.59,89.61 54.89,183.969 54.89,283.069 z m 300.62,-0.51 c 0,-137.641 -25.53,-267.809 -76.64,-390.359 C 1923.63,576.469 1849.23,467.07 1751.43,370.949 1652.77,274.781 1541.41,201.109 1417.47,149.93 1293.4,98.7617 1163.31,73.1797 1027.13,73.1797 889.148,73.1797 757.539,99 632.234,150.551 506.863,202.238 396.191,275.73 300.164,370.949 202.336,467.07 128.125,576.051 77.4805,697.809 26.7969,819.539 1.50391,950.121 1.50391,1089.5 c 0,138.51 25.29299,269.05 75.97659,391.71 50.6445,122.62 124.8555,232.48 222.6835,329.51 97.785,96.09 208.637,169.32 332.68,219.6 124.011,50.31 255.437,75.49 394.286,75.49 137.97,0 268.67,-25.18 392.26,-75.49 123.57,-50.28 234.23,-123.51 332.04,-219.6 97.8,-97.96 172.2,-208.47 223.34,-331.51 51.11,-123.04 76.64,-252.96 76.64,-389.71 z"
         style="fill:#ffffff;stroke:#231f20;stroke-width:3;stroke-linecap:butt;stroke-linejoin:miter;stroke-miterlimit:4;stroke-dasharray:none;stroke-opacity:1"
         transform="matrix(0.13333333,0,0,-0.13333333,0,293.69333)" />
      <path
         id="path4"
         d="m 2105.51,2076.45 h 289.13 V 891.09 c 0,-176.168 36.73,-308.469 110.26,-396.91 73.57,-88.469 176.02,-132.75 322.33,-132.75 145.49,0 247.56,44.281 321.09,132.75 73.55,88.441 110.35,220.742 110.35,396.91 v 1185.36 h 292.85 l 0.06,-1214.731 C 3551.58,598.34 3476.09,439.07 3355.76,308.301 3235.45,177.469 3070.03,81.9414 2827.89,81.9414 c -242.25,0 -432.6,114.6796 -552.04,245.0786 -119.52,130.3 -170.34,270.41 -170.34,534.699 V 2076.45"
         style="fill:#ffffff;fill-opacity:1;fill-rule:nonzero;stroke:none"
         transform="matrix(0.13333333,0,0,-0.13333333,0,293.69333)" />
      <path
         id="path5"
         d="m 2105.51,2076.45 h 289.13 V 891.09 c 0,-176.168 36.73,-308.469 110.26,-396.91 73.57,-88.469 176.02,-132.75 322.33,-132.75 145.49,0 247.56,44.281 321.09,132.75 73.55,88.441 110.35,220.742 110.35,396.91 v 1185.36 h 292.85 l 0.06,-1214.731 C 3551.58,598.34 3476.09,439.07 3355.76,308.301 3235.45,177.469 3070.03,81.9414 2827.89,81.9414 c -242.25,0 -432.6,114.6796 -552.04,245.0786 -119.52,130.3 -170.34,270.41 -170.34,534.699 z"
         style="fill:#ffffff;stroke:#231f20;stroke-width:3;stroke-linecap:butt;stroke-linejoin:miter;stroke-miterlimit:4;stroke-dasharray:none;stroke-opacity:1"
         transform="matrix(0.13333333,0,0,-0.13333333,0,293.69333)" />
      <path
         id="path6"
         d="M 4355.4,1806.22 V 119.48 h -282.13 v 1686.74 h -462.72 v 270.23 H 4818.13 V 1806.22 H 4355.4"
         style="fill:#ffffff;fill-opacity:1;fill-rule:nonzero;stroke:none"
         transform="matrix(0.13333333,0,0,-0.13333333,0,293.69333)" />
      <path
         id="path7"
         d="M 4355.4,1806.22 V 119.48 h -282.13 v 1686.74 h -462.72 v 270.23 h 1207.58 v -270.23 z"
         style="fill:#ffffff;stroke:#231f20;stroke-width:3;stroke-linecap:butt;stroke-linejoin:miter;stroke-miterlimit:4;stroke-dasharray:none;stroke-opacity:1"
         transform="matrix(0.13333333,0,0,-0.13333333,0,293.69333)" />
      <path
         id="path8"
         d="M 4877.75,119.48 V 2076.19 H 5169.4 V 394.301 h 580.62 V 119.48 h -872.27"
         style="fill:#ffffff;fill-opacity:1;fill-rule:nonzero;stroke:none"
         transform="matrix(0.13333333,0,0,-0.13333333,0,293.69333)" />
      <path
         id="path9"
         d="M 4877.75,119.48 V 2076.19 H 5169.4 V 394.301 h 580.62 V 119.48 Z"
         style="fill:#ffffff;stroke:#231f20;stroke-width:3;stroke-linecap:butt;stroke-linejoin:miter;stroke-miterlimit:4;stroke-dasharray:none;stroke-opacity:1"
         transform="matrix(0.13333333,0,0,-0.13333333,0,293.69333)" />
      <path
         id="path10"
         d="M 6412.45,869.301 6719,1537.37 7009.69,869.301 Z M 6723.55,2187.76 5761.17,119.48 h 311.95 l 218.21,470.981 836.69,2.098 209.85,-473.079 322.23,1.579 -936.55,2066.701"
         style="fill:#ffffff;fill-opacity:1;fill-rule:nonzero;stroke:none"
         transform="matrix(0.13333333,0,0,-0.13333333,0,293.69333)" />
      <path
         id="path11"
         d="M 6412.45,869.301 6719,1537.37 7009.69,869.301 Z M 6723.55,2187.76 5761.17,119.48 h 311.95 l 218.21,470.981 836.69,2.098 209.85,-473.079 322.23,1.579 z"
         style="fill:#ffffff;stroke:#231f20;stroke-width:3;stroke-linecap:butt;stroke-linejoin:miter;stroke-miterlimit:4;stroke-dasharray:none;stroke-opacity:1"
         transform="matrix(0.13333333,0,0,-0.13333333,0,293.69333)" />
      <path
         id="path12"
         d="M 7670.66,2198.95 V 121.059 h 290.71 V 1482.11 L 9387.59,3.71094 V 2075.22 H 9095.44 V 716.82 L 7670.66,2198.95 v 0"
         style="fill:#ffffff;fill-opacity:1;fill-rule:nonzero;stroke:none"
         transform="matrix(0.13333333,0,0,-0.13333333,0,293.69333)" />
      <path
         id="path13"
         d="M 7670.66,2198.95 V 121.059 h 290.71 V 1482.11 L 9387.59,3.71094 V 2075.22 H 9095.44 V 716.82 Z"
         style="fill:#ffffff;stroke:#231f20;stroke-width:3;stroke-linecap:butt;stroke-linejoin:miter;stroke-miterlimit:4;stroke-dasharray:none;stroke-opacity:1"
         transform="matrix(0.13333333,0,0,-0.13333333,0,293.69333)" />
      <path
         id="path14"
         d="M 9842.32,388.891 H 10017 c 110,0 206.1,13.14 288.4,39.3 82.3,26.348 157.3,67.938 225.1,124.829 77.9,66.25 138,146.441 180.2,240.558 42.2,94.094 63.4,195.492 63.4,304.152 0,152.42 -39.7,288.43 -119.1,408.06 -133.3,201.98 -346,303.05 -638,303.05 H 9842.32 Z M 9562.56,121.059 V 2075.22 h 411.69 c 208.15,0 379.35,-30.79 513.55,-90.2 197.6,-88.05 347.2,-224.36 448.9,-409.18 78.1,-141.97 117.1,-300.94 117.1,-477 0,-310.102 -117.2,-559.828 -351.4,-749.391 -120.3,-97.437 -248.8,-161.75 -385.4,-192.719 -100,-22.109 -215.5,-35.671 -346.43,-35.671 h -408.01"
         style="fill:#ffffff;fill-opacity:1;fill-rule:nonzero;stroke:none"
         transform="matrix(0.13333333,0,0,-0.13333333,0,293.69333)" />
      <path
         id="path15"
         d="M 9842.32,388.891 H 10017 c 110,0 206.1,13.14 288.4,39.3 82.3,26.348 157.3,67.938 225.1,124.829 77.9,66.25 138,146.441 180.2,240.558 42.2,94.094 63.4,195.492 63.4,304.152 0,152.42 -39.7,288.43 -119.1,408.06 -133.3,201.98 -346,303.05 -638,303.05 H 9842.32 Z M 9562.56,121.059 V 2075.22 h 411.69 c 208.15,0 379.35,-30.79 513.55,-90.2 197.6,-88.05 347.2,-224.36 448.9,-409.18 78.1,-141.97 117.1,-300.94 117.1,-477 0,-310.102 -117.2,-559.828 -351.4,-749.391 -120.3,-97.437 -248.8,-161.75 -385.4,-192.719 -100,-22.109 -215.5,-35.671 -346.43,-35.671 z"
         style="fill:#ffffff;stroke:#231f20;stroke-width:3;stroke-linecap:butt;stroke-linejoin:miter;stroke-miterlimit:4;stroke-dasharray:none;stroke-opacity:1"
         transform="matrix(0.13333333,0,0,-0.13333333,0,293.69333)" />
    </g>
  </g>
</svg>
