<svg version="1.1" id="svg2" width="1748.5067" height="319.70532" viewBox="0 0 1748.5067 319.70532" sodipodi:docname="PANW_Parent_Brand_Primary_Logo_CMYK_Red_White.eps" xmlns:inkscape="http://www.inkscape.org/namespaces/inkscape" xmlns:sodipodi="http://sodipodi.sourceforge.net/DTD/sodipodi-0.dtd" xmlns="http://www.w3.org/2000/svg" xmlns:svg="http://www.w3.org/2000/svg">
  <defs id="defs6" fill="#000000"/>
  <sodipodi:namedview id="namedview4" pagecolor="#ffffff" bordercolor="#000000" borderopacity="0.25" inkscape:showpageshadow="2" inkscape:pageopacity="0.0" inkscape:pagecheckerboard="0" inkscape:deskcolor="#d1d1d1" fill="#000000"/>
  <g id="g8" inkscape:groupmode="layer" inkscape:label="ink_ext_XXXXXX" transform="matrix(1.3333333,0,0,-1.3333333,0,319.70533)">
    <g id="g10" transform="scale(0.1)">
      <path d="m 5538.48,908.695 c -125.38,0 -184.76,48.403 -184.76,123.175 v 4.41 c 0,65.98 37.39,114.36 173.77,134.17 l 59.38,8.78 c 86.78,12.13 140.17,28.11 189.16,57.81 v -97.4 c 0,-147.363 -92.38,-230.945 -237.55,-230.945 m 32.99,1049.195 c -169.36,0 -345.32,-46.19 -563.07,-162.76 l 120.97,-299.15 c 189.16,105.59 345.33,151.77 459.71,151.77 129.76,0 186.95,-48.39 186.95,-112.18 v -4.39 c 0,-44 -35.19,-68.2 -120.98,-76.99 l -149.56,-15.4 c -373.92,-39.58 -527.9,-202.36 -527.9,-426.72 v -15.382 c 0,-213.372 175.98,-380.543 424.52,-380.543 163.62,0 305.85,69.082 392.23,191.062 l 27.89,-169.062 h 338.73 v 767.645 c 0,362.92 -208.95,552.1 -589.49,552.1" style="fill:#ffffff;fill-opacity:1;fill-rule:nonzero;stroke:none" id="path12"/>
      <path d="M 2386.52,1949.09 1953.2,2382.4 1519.9,1949.09 1735.45,1733.53 648.867,646.949 1082.18,213.641 1515.49,646.949 1299.94,862.5" style="fill:#ffffff;fill-opacity:1;fill-rule:nonzero;stroke:none" id="path14"/>
      <path d="M 0,1295.82 433.313,862.5 1519.89,1949.09 1086.57,2382.4 Z" style="fill:#ffffff;fill-opacity:1;fill-rule:nonzero;stroke:none" id="path16"/>
      <path d="M 1515.49,646.949 1948.81,213.648 3035.38,1300.22 2602.09,1733.54 Z" style="fill:#ffffff;fill-opacity:1;fill-rule:nonzero;stroke:none" id="path18"/>
      <path d="m 6380.91,638.148 h 384.91 v 1759.64 h -384.91 z" style="fill:#ffffff;fill-opacity:1;fill-rule:nonzero;stroke:none" id="path20"/>
      <path d="m 4493.69,1276.02 c 0,-197.96 -103.38,-340.93 -274.94,-340.93 -171.56,0 -274.95,142.97 -274.95,340.93 v 22 c 0,197.97 103.39,340.93 274.95,340.93 171.56,0 274.94,-142.96 274.94,-340.93 z m -162.76,681.87 c -174.99,0 -315.5,-77.43 -392.87,-198.69 l -29.45,176.69 H 3569.87 V 198.25 h 384.93 v 602.289 c 73.25,-112.969 211.89,-184.391 376.13,-184.391 307.93,0 558.68,272.75 558.68,648.872 v 43.99 c 0,376.13 -250.75,648.88 -558.68,648.88" style="fill:#ffffff;fill-opacity:1;fill-rule:nonzero;stroke:none" id="path22"/>
      <path d="m 12233.9,1276.02 c 0,-197.96 -103.3,-340.93 -274.9,-340.93 -171.6,0 -274.9,142.97 -274.9,340.93 v 22 c 0,197.97 103.3,340.93 274.9,340.93 171.6,0 274.9,-142.96 274.9,-340.93 z m -274.9,681.87 c -393.7,0 -670.9,-272.75 -670.9,-648.88 v -43.99 c 0,-376.122 277.2,-648.872 670.9,-648.872 393.7,0 670.9,272.75 670.9,648.872 v 43.99 c 0,376.13 -277.2,648.88 -670.9,648.88" style="fill:#ffffff;fill-opacity:1;fill-rule:nonzero;stroke:none" id="path24"/>
      <path d="m 12867.4,1911.7 h 46.2 c 26.4,0 37.4,-8.8 37.4,-28.6 v -2.2 c 0,-17.59 -11,-28.58 -37.4,-28.58 h -46.2 z m 125.4,-32.99 v 6.58 c 0,37.4 -28.6,63.8 -79.2,63.8 h -88 v -202.36 h 41.8 v 68.19 h 46.5 l 34.9,-68.19 h 46.2 l -43,80.07 c 26.2,7.93 40.8,27.45 40.8,51.91" style="fill:#ffffff;fill-opacity:1;fill-rule:nonzero;stroke:none" id="path26"/>
      <path d="m 12904.8,1667.55 c -103.4,0 -178.2,74.78 -178.2,180.36 0,105.58 74.8,180.36 178.2,180.36 103.4,0 178.2,-74.78 178.2,-180.36 0,-105.58 -74.8,-180.36 -178.2,-180.36 m 0,389.32 c -118.8,0 -208.9,-90.18 -208.9,-208.96 0,-118.78 90.1,-208.96 208.9,-208.96 118.8,0 209,90.18 209,208.96 0,118.78 -90.2,208.96 -209,208.96" style="fill:#ffffff;fill-opacity:1;fill-rule:nonzero;stroke:none" id="path28"/>
      <path d="m 9770.44,638.148 h 384.918 v 1759.64 H 9770.44 Z" style="fill:#ffffff;fill-opacity:1;fill-rule:nonzero;stroke:none" id="path30"/>
      <path d="m 10914.2,935.094 c -112.2,0 -154,54.988 -154,173.766 v 530.09 h 453.1 v 296.94 h -453.1 v 296.94 l -384.9,-57.19 V 1071.47 c 0,-301.337 154,-455.329 461.9,-455.329 136.4,0 297,41.812 428.9,116.589 l -110,272.75 c -76.9,-41.796 -184.7,-70.386 -241.9,-70.386" style="fill:#ffffff;fill-opacity:1;fill-rule:nonzero;stroke:none" id="path32"/>
      <path d="m 8928,908.695 c -125.37,0 -184.77,48.403 -184.77,123.175 v 4.41 c 0,65.98 37.4,114.36 173.77,134.17 l 59.39,8.78 c 86.79,12.13 140.15,28.11 189.16,57.81 v -97.4 c 0,-147.363 -92.37,-230.945 -237.55,-230.945 m 33,1049.195 c -169.37,0 -345.32,-46.19 -563.09,-162.76 l 120.98,-299.15 c 189.15,105.59 345.32,151.77 459.72,151.77 129.77,0 186.94,-48.39 186.94,-112.18 v -4.39 c 0,-44 -35.19,-68.2 -120.98,-76.99 l -149.55,-15.4 c -373.93,-39.58 -527.91,-202.36 -527.91,-426.72 v -15.382 c 0,-213.372 175.98,-380.543 424.52,-380.543 163.62,0 305.84,69.082 392.23,191.05 l 27.89,-169.05 h 338.72 v 767.645 c 0,362.92 -208.93,552.1 -589.47,552.1" style="fill:#ffffff;fill-opacity:1;fill-rule:nonzero;stroke:none" id="path34"/>
      <path d="m 7883.21,1276.02 c 0,-197.96 -103.38,-340.93 -274.94,-340.93 -171.56,0 -274.93,142.97 -274.93,340.93 v 22 c 0,197.97 103.37,340.93 274.93,340.93 171.56,0 274.94,-142.96 274.94,-340.93 z m -274.94,681.87 c -393.72,0 -670.87,-272.75 -670.87,-648.88 v -43.99 c 0,-376.122 277.15,-648.872 670.87,-648.872 393.72,0 670.86,272.75 670.86,648.872 v 43.99 c 0,376.13 -277.14,648.88 -670.86,648.88" style="fill:#ffffff;fill-opacity:1;fill-rule:nonzero;stroke:none" id="path36"/>
      <path d="m 9183.84,326.137 h 98.59 l 136.17,-179.59 h 1.35 v 179.59 h 90.47 V 9.49609 h -95.45 L 9275.66,193.605 h -1.35 V 9.49609 h -90.47" style="fill:#ffffff;fill-opacity:1;fill-rule:nonzero;stroke:none" id="path38"/>
      <path d="m 9630.72,326.137 h 276.84 l 3.61,-76.899 h -185.9 v -43.429 h 146.08 V 135.695 H 9725.27 V 86.3984 h 191.32 l -3.61,-76.90231 h -282.26" style="fill:#ffffff;fill-opacity:1;fill-rule:nonzero;stroke:none" id="path40"/>
      <path d="m 10109.3,244.711 h -110.85 l 3.65,81.43 h 309.8 l 3.6,-81.43 h -110.8 V 9.5 h -95.4" style="fill:#ffffff;fill-opacity:1;fill-rule:nonzero;stroke:none" id="path42"/>
      <path d="m 10392,326.137 h 101.3 l 51.5,-219.84 h 5 l 67,219.84 h 92.7 l 65.6,-219.84 h 5 l 50.6,219.84 h 96.8 L 10844.3,9.49609 h -124.4 L 10662,200.387 h -2.7 L 10600.5,9.49609 h -124.9" style="fill:#ffffff;fill-opacity:1;fill-rule:nonzero;stroke:none" id="path44"/>
      <path d="m 11264.5,167.816 c 0,54.731 -31.7,87.301 -86.4,87.301 -54.8,0 -86.4,-32.57 -86.4,-87.301 0,-54.73 31.6,-87.3004 85.9,-87.3004 54.8,0 86.9,32.5704 86.9,87.3004 m -267.3,0 c 0,103.129 70.1,167.821 180.9,167.821 110.8,0 180.9,-64.692 180.9,-167.821 0,-103.1285 -70.1,-167.8081875 -180.9,-167.8081875 -110.8,0 -180.9,64.6796875 -180.9,167.8081875" style="fill:#ffffff;fill-opacity:1;fill-rule:nonzero;stroke:none" id="path46"/>
      <path d="m 11634,166.91 c 31.7,0 43,17.649 43,41.617 0,23.973 -11.3,41.161 -43,41.161 h -77.3 V 166.91 Z m -172.3,159.231 h 184.5 c 84.2,0 125.3,-39.813 125.3,-113.543 0,-50.66 -20.8,-85.039 -61.5,-101.321 L 11785.1,9.5 h -107.7 l -58.3,83.2305 h -62.4 V 9.5 h -95" style="fill:#ffffff;fill-opacity:1;fill-rule:nonzero;stroke:none" id="path48"/>
      <path d="m 11895,326.137 h 95 V 209.426 h 38.9 l 92.7,116.711 h 106.7 l 0.5,-0.461 -121.2,-151.52 128,-164.19897 -0.5,-0.46094 h -110.8 L 12028.4,131.168 H 11990 V 9.49609 h -95" style="fill:#ffffff;fill-opacity:1;fill-rule:nonzero;stroke:none" id="path50"/>
      <path d="m 12308.4,30.3164 v 86.8516 h 0.5 c 52.9,-26.6914 104.4,-39.8203 149.2,-39.8203 33.9,0 51.1,8.1406 51.1,23.9803 0,15.84 -11.3,19.899 -79.1,30.758 -74.2,11.75 -123.5,33.922 -123.5,97.699 0,59.25 52,104.934 153.8,104.934 40.7,0 83.2,-8.59 122.6,-25.321 v -85.953 l -0.5,-0.437 c -37.5,21.699 -88.2,35.277 -128.9,35.277 -36.2,0 -50.7,-8.597 -50.7,-23.066 0,-18.543 22.2,-20.364 77.8,-29.864 74.2,-12.667 123.5,-33.468 123.5,-100.417 0,-52.0005 -38.9,-104.020031 -150.6,-104.020031 -55.2,0 -99.1,11.289031 -145.2,29.398431" style="fill:#ffffff;fill-opacity:1;fill-rule:nonzero;stroke:none" id="path52"/>
    </g>
  </g>
</svg>