<?xml version="1.0" encoding="UTF-8"?>
<svg xmlns="http://www.w3.org/2000/svg" viewBox="0 0 879.25 283.46">
  <defs>
    <style>
      .cls-1 {
        fill: #fff;
      }
    </style>
  </defs>
  <g id="Square">
    <rect id="Square-2" data-name="Square" class="cls-1" width="283.46" height="283.46"/>
  </g>
  <g id="Lion">
    <path id="Lion-2" data-name="Lion" d="M112.48,79.58c1.82.44,4.31,2.07,8.78,1.04,4.48-1.04,7.62-1.19,9.78,1.19-1.99,1.04-2.98-.59-5.14.29-2.15.89-6.79,2.67-10.27.59-3.48-2.08-2.65-1.63-3.15-3.11ZM197.99,126.27c-.4.89.56,1.13.99.73.23-.2,3.05-3.08,11.19-5.33,4.7-1.32,8.14-4.67,9.47-5.46,1.09-.63,1.42.27,1.16.89-.26.6-5.2,8.37-14.3,12.81-6.26,3.04-6.92,6.29-6.85,6.88.03.5.66.89,1.12.66.46-.23,1.46-2.68,10.13-6.22,3.44-1.39,5.69-4.1,6.62-5.03.83-.86,1.59-.26,1.49.79-.26,2.85-5.1,9.96-10.06,13.44-3.84,2.68-4.27,5.73-2.12,7.88,4.5,4.67,11.22,13.27,5.63,22.24-3.08,4.87-8.9,8.11-15.75,7.74-10.46-.56-28.17-9.3-40.71-17.04,0,.03.1.2.1.2.4.66,3.28,3.61,3.97,4.17,2.55,1.99,6.22,5.99,6.22,5.99,5.83,5.73,8.01,7.08,11.65,8.44,1.49.56,2.18.69,5.13,1.62,2.22.66,4.27.53,5.69.83,1.32.26,1.82,1.92,2.32,3.77,1.36,4.87,3.84,12.74,6.85,16.98,2.48,3.51,11.62,17.44,11.62,17.44.36.89,1.16,1.46-3.81,1.09-7.71-.53-10.76,2.95-11.05,5.86-.33,2.95-1.65,2.81-4.6,3.57-2.94.76-3.21,4.47-3.61,5.56-.4,1.12-1.06,1.22-2.25-.76-2.28-3.74.4-6.88,1.13-8.08.69-1.19,1.69-2.25,1.46-2.45-.46-.43-1.32-.2-2.25.63-1.52,1.36-4.5,2.78-5.69,2.78s-2.09-.63-3.11-.69c-.99-.07-2.15.76-2.78.99-.63.2-2.12,1.26-1.56-1.62.93-5,9.4-5.63,11.35-6.75,1.13-.63.86-.83-1.03-1.19-1.85-.33-4.8-3.91-6.59-4.3-1.79-.43-2.28,1.16-2.65-.23-.4-1.39,2.25-2.48,7.22-2.42,5,.07,8.64,3.41,10.13,4.43,1.49,1.06,3.11.3,4.14-.13.99-.4,2.55-.27,2.02-1.03-.83-1.16-2.75-4.6-7.71-8.18-6.59-4.7-10.19-10.52-11.05-11.91-.63-1.03-1.85-1.65-3.34-1.65s-5.43.79-16.85,1.16c-6.35.2-14.36-2.75-19.99-6.95-2.78-2.09-4.47-4.72-3.5-8.88.53-2.24,4.58-15.16,3.6-20.74-1,3.33-6.97,17.65-7.61,22.91-.61,5.26,4.9,9.5,4.9,9.5-1.22,1.26-1.72,1.39-5.36,5.73-2.41,2.82-.82,5.48.56,6.97.72.78.64,2.01-.15,2.71-1.86,1.64-4.27,3.2-9.68,5.38-10.42,4.17-22.47,13.57-25.75,17.05-2.42,2.58-2.71-.69-3.28-2.28-.53-1.59-.53-1.82-4.43-1.89-.93,4.04-4.37,7.38-9.27,9.57-2.28.99-4.67.89-2.78-.43,1.85-1.32,2.71-3.08,1.79-4.53-.93-1.46.13-3.21.76-4.04.63-.83,2.52-1.82,1.89-2.58-.63-.76-2.12.2-4.77.26-2.65.1-4.9-2.28-5.36-2.91-.46-.63-2.94-.36-3.64-.2-.73.13-1.65,1.26-1.82-.36-.27-3.04,4.96-4.73,7.94-4.73,1.79,0,3.97.83,7.02,1.89,3.04,1.03.23-2.15-.56-3.41-.76-1.26-.6-3.44-.23-4.53.4-1.12-1.79-2.78-2.48-2.95-.7-.13-1.56-1.09.07-1.46,3.21-.66,6.52,1.29,8.17,3.57,1.59,2.12,3.34,9.1,3.34,9.1.73,2.58,5.92,2.88,8.51-.63,1.06-1.42,4.04-4.04,6.16-6.75,2.08-2.71,6.45-6.82,7.38-7.58.93-.8,1.79-.93.63-3.34-1.19-2.45-1.95-12.58-1.65-16.38.33-3.84,2.81-9,6.22-12.01,3.44-2.98,13.54-10.23,17.28-12.61-1.52-4.4-7.25-11.78-8.01-13.87,3.48-3.91,12.71-18.37,13.27-19.26-5.99,2.68-18.8,21.71-22.14,25.75-3.34,4-9.71,12.24-10.52,12.48-1.63.41-1.12-2.04-1.84-3.14-.61-.93-1.57-1.47-3.36-1.53-1.62-.07-3.14.66-4.9,2.91,2.53,7.36,5.68,15.84,7.26,20.07l-6.66,2.7c-2.51-6.29-4.7-12.35-6.59-18.47-.83.33-1.59.56-2.08.79-1.65.69-2.52,1.19-2.52,2.45-.93,0-2.42.83-1.62-2.95.5-2.38,2.32-5.06,4.4-6.75-.46-1.75-.86-3.54-1.26-5.3-1.42-.6-2.42-1.42-2.91-1.82-.86-.69-2.81-1.26-3.57-1.26s-1.42.36-1.72-.2c-.3-.56,0-2.52,4.53-3.71.69-.17,1.46-.2,2.25-.17-.89-5.06-1.56-10.33-2.02-15.99-.5-6.49-.2-14.6.4-22.47-1.06.27-2.09.43-2.81.36-3.48-.3-4.5,1.09-5.3,1.39-.86.3-1.22.17-.83-1.19,1.62-5.49,7.48-7.55,9.63-8.41.1-1.06.23-2.09.33-3.08-1.59-.73-3.05-1.52-3.67-1.85-1.32-.76-1.92-3.51-3.57-3.51s-2.55.23-2.55.23c0,0-.56-2.42,3.64-3.41,1.95-.46,4.6.03,7.08.86.63-4.83,1.19-8.67,1.49-10.59-16.05.83-21.88,11.49-21.94,11.62-.03.07-.13.1-.2.13-.1,0-.17-.03-.23-.1-.03-.07-4.83-5.86-4.96-18.2-.1-9.76,2.81-15.69,4.07-17.81.07-.07.13-.1.23-.1.07,0,.16.03.2.1,3.57,5.79,7.98,9.86,24.62,13.07.07-.43.56-3.54.56-3.54l5.92,1.16s-.5,2.88-.53,3.18c.26.1,1.75.3,1.75.3.1.03.13.1.13.17,0,.03-1.66,10.09-1.66,10.09-.03.13-.13.23-.26.2,0,0-1.42-.13-1.79-.2-.73,4.6-1.39,8.97-1.95,13.24.43.33.79.66,1.03.96.83,1.09,1.85-.7,1.85-2.02s1.82-4.14,2.65-4.3c.83-.13,1.59-1.52,1.75-3.14.07-.69.3-1.42.1-2.22,1.26-.73,2.48-.5,3.61,3.28,1.65,5.49-2.81,9.66-3.64,11.88-.83,2.22.17,3.01,1.82,2.68,3.04-.66,1.75,1.06,3.61,2.18.99.6,4.57,2.75,10.29,4.34-1.79,2.32-1.36,5.99-3.81,10.06-1.49-1.32-11.98-8.64-12.38-8.94-1.16-.93-3.44-.26-3.34-1.56.03-.76.1-1.39-.56-1.82-2.42-1.55-3.34-.86-4.24.4-.4,4.9-.63,9.7-.63,14.63,0,1.19,0,2.42.03,3.61.2,8.74,1.16,17.31,2.95,25.95,1.72.6,3.01,1.16,3.14.93.17-.33-1.56-2.28-1.62-3.94-.1-2.88.83-4.6.83-5.59-.03-2.58-1.52-2.52-1.62-3.84-.07-1.13,2.45-.13,3.18.4,1.16.83,2.35,1.69,3.74,4.53,1.65,3.51,1.09,7.18,1.26,10.96,1.72.26,3.87,1.46,3.87,1.46,1.09-.69,2.55-2.71,3.61-5.16,2.28-5.39,4.1-15.03,8.64-20.29.63-.73.99-.89.07-.89s-5.43.5-7.15,1.56c-2.38,1.42-2.58,1.09,0-2.81,2.55-3.91,4.96-14.83,10.95-23.27,7.05-9.93,19.92-10.52,22.11-11.29,2.18-.79,3.24-.86,3.64-3.21-4.5-2.32-10.66-.69-11.65-.56-1.03.13-2.75,1.32-2.42-.2.3-1.56,1.46-3.72,2.52-4.35,3.71-1.49,11.18-.25,11.94-.55.79-.27.7.5,1.89-2.22-2.88-.63-9.04-2.15-14.17.76-1.09-1.19-2.58-3.54-4.54-7.81,2.88-2.52,9.4-5.89,13.44-7.05-.2-.07-.36-.23-.4-.43-.07-.99-.5-3.91-1.32-6.3-.93-2.81-2.12-5.89-2.98-7.98l.03-.33.3-.23.13-.03c.56-.13,1.16-.03,1.72.27.96.5,1.75,1.59,2.12,2.88,0,0,0,.1.03.2.2-.1.4-.2.63-.26,2.15-.46,4.3.56,4.8,2.32.13.43.13.89.03,1.32-.17.83-.76,1.56-1.62,2.09,1.26.96,2.58,1.59,3.97,1.85,1.95.33,3.57-.2,4.42-.8-1.7-.43-2.7-1.92-2.39-3.41.34-1.52,1.91-2.52,3.71-2.25.44-1.62,2-2.68,3.69-2.38,1.69.3,2.58,1.85,2.33,3.51,1.76.4,2.83,1.92,2.52,3.44-.34,1.52-1.92,2.48-3.68,2.25.54.86,1.75,1.82,3.7,2.18,1.39.23,2.88.1,4.43-.36-.53-.76-.76-1.66-.6-2.48.1-.43.3-.86.6-1.22,1.23-1.42,3.64-1.65,5.43-.46.2.1.33.27.5.43.07-.09.09-.11.13-.16.86-1.06,2.05-1.79,3.14-1.95.66-.07,1.26.03,1.72.36l.1.07.17.3v.13l-.13.2c-1.36,1.36-3.97,3.94-6.12,6.35-.99,1.08-1.79,2.37-2.38,3.45,3.06-.47,5.75,1.65,4.86,5.14-.54,2.13-1.55,3.86-2.48,5.11.57,3.73-.28,7.48-1.25,11.66-.53,2.28-1.82,5.76-2.85,8.34-2.22,5.79-5.2,11.91-5.69,14-.76,3.08-1.79,8.77-.76,14.4-1.13-.6-2.32-1.32-6.82-2.08-.07,9.27,1.72,19.66,2.68,28,26.78,16.71,34.65,17.05,39.05,17.67,3.57.5,8.04-1.95,8.74-5.99.96-5.39-2.25-7.74-10.86-15.32-8.41-7.41-23.5-15.09-13.73-30.09,5.23-8.04,12.38-12.94,18.27-17.61,8.01-6.29,16.55-11.62,16.55-22.41,0-4.53-1.56-6.72-5.13-9.04-3.38-2.18-8.11-2.42-11.98-.46-1.85.96-4.57,4.34-4.57,7.88,0,0,0,.43,1.09.99,3.77,1.89,5.73,4.9,6.06,7.98.3,3.05-.2,6.75-3.57,11.85.13-2.35-1.72-6.79-4.5-9.56-.96,2.51.46,6.45.6,7.41.2,1.66-.27,3.61-1.32,4.04-3.51,1.46-8.31,3.71-12.44,7.12-3.87,3.24-5.43,6.82-5.43,6.82,0,0-.46,1.79-.76-1.52-.3-3.34,4.8-9.73,5.89-11.65,1.09-1.95,5.33-8.47,4.96-12.21-2.12,1.89-2.65,1.52-4.96,3.87-2.32,2.35-1.32,3.64-2.19,3.74-.5.07-.66-.63-.3-3.44.63-4.67,4.34-13.57,11.42-15.03.43-4.8,1.95-8.57,6.45-11.48,5.33-3.44,12.81-3.21,17.44-1.26,6.19,2.58,9.3,7.74,9.6,13.97.46,10.46-8.51,19.06-12.77,23.86-3.77,4.24-5.3,7.45-6.12,9.37,3.11-.73,6.52-1.09,9.8-1.99,2.88-.79,7.65-4.57,8.61-5.46.99-.86,1.65,0,1.32,1.03-.33,1.03-8.14,11.15-15.16,13.5-7.02,2.32-9.3,5.46-9.96,6.85ZM166.47,73.61c.94,1.02,2.19,2.7,2.42,4.6,0,0,1.96-1.31,2.68-4.17s-2.46-4.21-4.88-2.3c-.64.42-.74,1.3-.23,1.86ZM136.3,98.04c-2.48-.89-6.65-.33-9.7,2.71-5.13,5.1-5.89,10.86-9.27,14.46,4.07,0,6.65-3.41,10.39-11.29,2.02-4.3,8.57-5.89,8.57-5.89ZM157.39,71.11c.38,0,2.36-.45,1.59-.95-1.53-.32-2.71-.37-5.1-.93-1.35-.29-3-.66-4.24-.94-5.13-1.22-10.92,1.85-13.64,4.17,1.99-.93,9.31.43,10.43.37.92-.03,1.8-.74,2.06-.97.08-.07.16-.13.25-.18.3-.18.94-.5,1.62-.4,2.36.27,5.33.09,7.03-.17Z"/>
  </g>
  <g id="Text">
    <g>
      <path class="cls-1" d="M509.52,70.93c-10.5-9.26-24.6-13.9-42.31-13.9h-70.11v169.74h30.75v-62.73h39.36c11.81,0,22.06-2.25,30.75-6.77,8.69-4.51,15.41-10.82,20.17-18.94,4.75-8.12,7.13-17.75,7.13-28.91,0-16.4-5.25-29.23-15.74-38.5ZM486.64,130.46c-5.09,5-12.3,7.5-21.65,7.5h-37.15v-54.86h37.15c9.35,0,16.56,2.21,21.65,6.64,5.08,4.43,7.63,10.99,7.63,19.68s-2.54,16.03-7.63,21.03Z"/>
      <path class="cls-1" d="M671.51,135.39c-8.94-3.69-19.31-6.93-31.12-9.72-8.69-1.97-16.03-3.97-22.02-6.03-5.98-2.05-10.49-4.51-13.53-7.38-3.03-2.86-4.55-6.52-4.55-10.94s1.31-8.33,3.94-11.69c2.62-3.36,6.35-6.03,11.19-7.99,4.84-1.97,10.54-2.96,17.1-2.96,10.33,0,18.53,2.67,24.6,8,5.12,4.49,8.31,10.36,9.58,17.59h30.29c-1.25-15.22-6.96-27.18-17.12-35.92-11.07-9.51-26.53-14.27-46.37-14.27-13.12,0-24.39,2.1-33.82,6.28-9.43,4.18-16.65,10-21.65,17.46-5,7.47-7.5,15.95-7.5,25.46,0,10.67,2.54,19.15,7.62,25.46,5.09,6.32,12.3,11.32,21.65,15.01s20.25,7.01,32.72,9.96c7.87,1.81,14.55,3.74,20.05,5.78,5.49,2.06,9.72,4.68,12.67,7.88,2.95,3.19,4.43,7.42,4.43,12.67,0,7.38-2.92,13.36-8.74,17.95-5.82,4.6-14.23,6.89-25.21,6.89-12.47,0-22.14-2.99-29.03-8.98-5.98-5.19-9.55-12.28-10.71-21.26h-30.42c1.25,17.45,7.54,30.81,18.87,40.08,12.21,10.01,29.23,15.01,51.04,15.01,13.12,0,24.48-2.14,34.07-6.4,9.6-4.26,17.01-10.41,22.27-18.45,5.24-8.03,7.87-17.46,7.87-28.29s-2.46-19.68-7.38-26.07c-4.92-6.4-11.85-11.44-20.79-15.13Z"/>
      <polygon class="cls-1" points="879.25 57.03 824.64 57.03 793.89 57.03 739.03 57.03 739.03 83.35 793.89 83.35 793.89 226.77 824.64 226.77 824.64 83.35 879.25 83.35 879.25 57.03"/>
    </g>
  </g>
</svg>