<svg id="SB1_Østlandet" data-name="SB1 Østlandet" xmlns="http://www.w3.org/2000/svg" viewBox="0 0 235.11 55.52"><defs><style>.cls-1{fill:#fff;}</style></defs><title>rgb_SB1_Ostlandet_verti_bw_neg</title><path class="cls-1" d="M26.78,40.76a32,32,0,0,1-9-1.28.79.79,0,0,1-.53-.75v-.18l.46-2.35a.54.54,0,0,1,.6-.46.7.7,0,0,1,.25,0A36.1,36.1,0,0,0,26.39,37c2.91,0,5.51-.85,5.51-3.87s-2.67-3.38-6.11-3.87C22,28.64,17,27.61,17,21.57c0-6.22,4.62-7.86,10.1-7.86a31.74,31.74,0,0,1,8.39,1.21.75.75,0,0,1,.64.75v.18l-.5,2.31a.61.61,0,0,1-.57.5s-.07,0-.11,0a33.73,33.73,0,0,0-7.46-1.07c-2.63,0-5.4.5-5.4,3.48s3,3.38,6.15,3.84c4.16.64,8.89,1.24,8.89,7.86C37.13,39,32.08,40.76,26.78,40.76Z" transform="translate(-17.01 -11.36)"/><path class="cls-1" d="M72,40.34a22.8,22.8,0,0,1-4.94.5c-3.84,0-8.57-.39-8.57-6,0-4.59,2.88-5.08,5.72-5.55l6.33-1V27.08c0-1-.11-1.71-1-2.1a7.11,7.11,0,0,0-2.7-.36,25.18,25.18,0,0,0-6.11,1c-.11,0-.18,0-.25,0a.35.35,0,0,1-.39-.32l-.5-2.2V23a.58.58,0,0,1,.43-.53,25.92,25.92,0,0,1,7.75-1.21,11.11,11.11,0,0,1,5.37,1c1.81,1,2.17,2.67,2.17,4.59v9.81C75.26,39.31,74.37,39.77,72,40.34Zm-1.46-9L66.09,32c-1.46.21-2.81.43-2.81,2.74,0,2.77,2.24,3,3.95,3a10.5,10.5,0,0,0,3.27-.5Z" transform="translate(-17.01 -11.36)"/><path class="cls-1" d="M87.94,24.91a23.16,23.16,0,0,0-5,.46V39.84a.5.5,0,0,1-.53.53H78.77c-.21,0-.6-.21-.6-.53V24.48c0-1.39.82-1.81,2.52-2.31a24.35,24.35,0,0,1,6.11-.89h.6a1.31,1.31,0,0,1,.75.11.57.57,0,0,1,.32.57v2.31C88.47,24.63,88.44,24.91,87.94,24.91Z" transform="translate(-17.01 -11.36)"/><path class="cls-1" d="M106.54,32.41a.74.74,0,0,1-.75.82H93.89a3.64,3.64,0,0,0,1.42,3.27,6.52,6.52,0,0,0,4.19,1.07,16.63,16.63,0,0,0,5-.85.32.32,0,0,1,.18,0c.21,0,.39.14.5.5l.46,1.81a1.55,1.55,0,0,1,0,.18c0,.29-.18.43-.43.53a18.12,18.12,0,0,1-6.43,1.14c-7,0-9.7-2.74-9.7-9.7,0-6.68,1.85-9.88,8.78-9.88,3.59,0,5.79.92,7.07,2.63s1.6,3.87,1.6,6.82Zm-5-5.3c-.46-2-1.53-2.59-3.63-2.59-2.38,0-3.38.71-3.77,2.49a15.11,15.11,0,0,0-.28,3.2l8,0A11.94,11.94,0,0,0,101.53,27.11Z" transform="translate(-17.01 -11.36)"/><path class="cls-1" d="M147,40.34a22.8,22.8,0,0,1-4.94.5c-3.84,0-8.57-.39-8.57-6,0-4.59,2.88-5.08,5.72-5.55l6.33-1V27.08c0-1-.11-1.71-1-2.1a7.11,7.11,0,0,0-2.7-.36,25.18,25.18,0,0,0-6.11,1c-.11,0-.18,0-.25,0a.35.35,0,0,1-.39-.32l-.5-2.2V23a.58.58,0,0,1,.43-.53,25.93,25.93,0,0,1,7.75-1.21,11.11,11.11,0,0,1,5.37,1c1.81,1,2.17,2.67,2.17,4.59v9.81C150.29,39.31,149.4,39.77,147,40.34Zm-1.46-9-4.41.71c-1.46.21-2.81.43-2.81,2.74,0,2.77,2.24,3,3.95,3a10.51,10.51,0,0,0,3.27-.5Z" transform="translate(-17.01 -11.36)"/><path class="cls-1" d="M169.3,40.37h-3.66a.53.53,0,0,1-.57-.53V27.29c0-2.06-.78-2.77-2.67-2.77a20.47,20.47,0,0,0-4.44.6V39.84a.5.5,0,0,1-.53.53H153.8a.54.54,0,0,1-.6-.53V24.52c0-1.35.67-1.81,2.67-2.35a30.71,30.71,0,0,1,7.07-.92c4.44,0,6.9,1.14,6.9,5.4V39.84A.5.5,0,0,1,169.3,40.37Z" transform="translate(-17.01 -11.36)"/><path class="cls-1" d="M189.91,40.05a.35.35,0,0,1-.36.32h-4.76a.59.59,0,0,1-.53-.21l-5.51-7.5h-1.21v7.18a.49.49,0,0,1-.53.53h-3.66a.53.53,0,0,1-.57-.53V15a.68.68,0,0,1,.61-.75l3.48-.6H177c.32,0,.53.21.53.6V29.46h1.21l5.62-7.5a.48.48,0,0,1,.46-.25l4.34.11a.33.33,0,0,1,.36.32c0,.07,0,.11-.07.18l-6.72,8.46,7.11,9.1A.28.28,0,0,1,189.91,40.05Z" transform="translate(-17.01 -11.36)"/><path class="cls-1" d="M44.47,37.14" transform="translate(-17.01 -11.36)"/><path class="cls-1" d="M49.19,21.25a23.28,23.28,0,0,0-7.25,1.14c-1.6.5-2.24,1-2.24,2.88V45.69c0,.36.28.65.79.55l3.37-.62a.63.63,0,0,0,.6-.71V40.29a19.75,19.75,0,0,0,4.62.54c6.61,0,7.86-4.16,7.86-9.78S56.05,21.25,49.19,21.25ZM47.84,37.56a13.31,13.31,0,0,1-3.38-.43v-12a17.36,17.36,0,0,1,3.73-.57c2.7,0,3.87.6,3.87,6.36C52.07,36.36,51.08,37.56,47.84,37.56Z" transform="translate(-17.01 -11.36)"/><path class="cls-1" d="M122.17,40.37H110.33a.59.59,0,0,1-.6-.57V14.67a.59.59,0,0,1,.6-.57H122.2c6,0,8.46,2.36,8.46,6.63,0,3.77-2.09,5.12-5.33,6,3.6.59,6.22,2.54,6.22,6.74C131.55,38.28,128.21,40.37,122.17,40.37Zm-.46-22.61h-6.86v7.61l6.61-.28c2.7-.11,4.09-1.07,4.09-3.77C125.54,18.83,124.34,17.76,121.71,17.76Zm-.18,11.06-6.68-.21v8.1h6.68c3.59,0,4.76-1.56,4.76-3.73C126.29,30.06,125.33,28.93,121.53,28.82Z" transform="translate(-17.01 -11.36)"/><path class="cls-1" d="M130.81,63.46c0,.15-.09.23-.24.23h-2.22a.34.34,0,0,1-.34-.26l-1.56-4.93h-5l-1.54,5a.35.35,0,0,1-.32.23h-2.22a.22.22,0,0,1-.24-.21.49.49,0,0,1,0-.13L121.64,50a.39.39,0,0,1,.34-.24h4a.39.39,0,0,1,.34.24l4.44,13.3A.42.42,0,0,1,130.81,63.46Zm-6.47-11.78h-.81L122,56.5h3.86Z" transform="translate(-17.01 -11.36)"/><path class="cls-1" d="M156.87,63.69h-5.64a.3.3,0,0,1-.3-.3V50.09a.3.3,0,0,1,.3-.3h5.64c4.61,0,6.38,1.77,6.38,6.94S161.48,63.69,156.87,63.69Zm-.32-12h-2.92v10h2.92c2.82,0,3.93-.81,3.93-5S159.37,51.72,156.55,51.72Z" transform="translate(-17.01 -11.36)"/><path class="cls-1" d="M176.45,63.69h-9a.31.31,0,0,1-.32-.3V50.09a.31.31,0,0,1,.32-.3h9a.28.28,0,0,1,.3.28v1.47a.29.29,0,0,1-.3.3h-6.62v3.65h6.34a.3.3,0,0,1,.3.3v1.49a.29.29,0,0,1-.3.28h-6.34v4.1h6.64a.29.29,0,0,1,.3.28v1.45A.3.3,0,0,1,176.45,63.69Z" transform="translate(-17.01 -11.36)"/><path class="cls-1" d="M114.83,63.69H106.1a.28.28,0,0,1-.3-.28V50.09c0-.17.11-.24.28-.26l2.14-.28a.25.25,0,0,1,.28.26V61.56h6.32a.3.3,0,0,1,.3.3v1.52A.3.3,0,0,1,114.83,63.69Z" transform="translate(-17.01 -11.36)"/><path class="cls-1" d="M146,63.69h-4.31a.42.42,0,0,1-.36-.3l-4.63-11.53h-.62l.17,11.55a.29.29,0,0,1-.32.28h-2.07a.28.28,0,0,1-.3-.28V50.07a.31.31,0,0,1,.32-.28h4.52a.41.41,0,0,1,.38.26l4.72,12h.26l-.11-12c0-.24.17-.3.38-.3H146c.23,0,.38.08.38.3V63.41A.29.29,0,0,1,146,63.69Z" transform="translate(-17.01 -11.36)"/><path class="cls-1" d="M83.47,63.9a16.21,16.21,0,0,1-4.74-.68.39.39,0,0,1-.28-.49l.24-1.24c0-.23.23-.26.45-.23a19.13,19.13,0,0,0,4.12.62c1.54,0,2.92-.45,2.92-2.05S84.77,58,82.94,57.78c-2-.3-4.65-.85-4.65-4s2.45-4.16,5.34-4.16a16,16,0,0,1,4.44.64.42.42,0,0,1,.34.49l-.26,1.22c-.06.24-.21.28-.41.24a17.28,17.28,0,0,0-3.89-.56c-1.39,0-2.86.26-2.86,1.84s1.58,1.79,3.26,2c2.2.34,4.7.66,4.7,4.16C88.94,62.94,86.27,63.9,83.47,63.9Z" transform="translate(-17.01 -11.36)"/><path class="cls-1" d="M102.55,51.84H98.22V63.41a.28.28,0,0,1-.3.28H95.83a.28.28,0,0,1-.3-.28V51.84H91.18a.3.3,0,0,1-.3-.3V50.07a.29.29,0,0,1,.3-.28h11.36a.29.29,0,0,1,.3.3v1.45A.29.29,0,0,1,102.55,51.84Z" transform="translate(-17.01 -11.36)"/><path class="cls-1" d="M190.47,51.84h-4.33V63.41a.28.28,0,0,1-.3.28h-2.09a.28.28,0,0,1-.3-.28V51.84h-4.35a.3.3,0,0,1-.3-.3V50.07a.29.29,0,0,1,.3-.28h11.36a.29.29,0,0,1,.3.3v1.45A.29.29,0,0,1,190.47,51.84Z" transform="translate(-17.01 -11.36)"/><path class="cls-1" d="M73.76,51.57c.94,1.26,1.2,3,1.2,5.17,0,4.31-1.11,7.19-6.59,7.19a7.45,7.45,0,0,1-4.31-1.05l-1.22,1.43a.2.2,0,0,1-.17.09.23.23,0,0,1-.17-.08l-.85-.66a.2.2,0,0,1-.09-.15.23.23,0,0,1,.08-.17L63,61.83a8.67,8.67,0,0,1-1.17-5.08c0-4.33,1.13-7.21,6.59-7.21a7.66,7.66,0,0,1,4.25,1l1.24-1.47A.23.23,0,0,1,74,49a.3.3,0,0,1,.17.06l.85.66a.26.26,0,0,1,.09.17.34.34,0,0,1-.08.17Zm-5.38-.06c-3.42,0-3.8,1.81-3.8,5.21a10.63,10.63,0,0,0,.28,2.88l6.27-7.32A3.9,3.9,0,0,0,68.38,51.52Zm3.5,2.26-6.3,7.36a3.87,3.87,0,0,0,2.8.83c3.42,0,3.82-1.83,3.82-5.23A9.57,9.57,0,0,0,71.88,53.77Z" transform="translate(-17.01 -11.36)"/><path class="cls-1" d="M224.36,11.36h-.27c8.64.7,15.73,5.38,18.78,12.6A20.58,20.58,0,0,1,242,41.4a28,28,0,0,1-14.26,13,29.07,29.07,0,0,1-11.39,2.35c-7.33,0-13.74-2.82-17.85-7.6a27.76,27.76,0,1,0,25.87-37.83Z" transform="translate(-17.01 -11.36)"/><path class="cls-1" d="M216.34,55.29a26.86,26.86,0,0,0,3.79-.28V33.37h-5.33a1,1,0,0,1-1-1V27.7a1,1,0,0,1,.72-1l8.33-4.29a2.81,2.81,0,0,1,1.13-.26h6.45a1,1,0,0,1,1,1V50.77a25.67,25.67,0,0,0,9.17-10,19.1,19.1,0,0,0,.84-16.18c-3.08-7.27-10.6-11.79-19.64-11.79-15.64,0-25.24,13.33-25.24,26.35a27.88,27.88,0,0,0,.5,5.23C200.39,51.12,207.66,55.29,216.34,55.29Z" transform="translate(-17.01 -11.36)"/></svg>