<?xml version="1.0" encoding="UTF-8" standalone="no"?>
<!-- Created with Inkscape (http://www.inkscape.org/) -->

<svg
   version="1.1"
   id="svg1"
   width="755.01196"
   height="401.07599"
   viewBox="0 0 755.01197 401.07599"
   xmlns="http://www.w3.org/2000/svg"
   xmlns:svg="http://www.w3.org/2000/svg">
  <defs
     id="defs1" />
  <g
     id="g1"
     transform="translate(0,-0.00401003)">
    <g
       id="group-R5"
       style="fill:#ffffff">
      <path
         id="path2"
         d="m 1.57031,2454.2 48.09769,6.6 c 13.2109,-71.71 64.187,-108.52 148.168,-108.52 83.012,0 129.269,33.96 129.269,99.08 0,50.01 -30.199,76.44 -98.156,88.7 l -85.855,15.1 c -75.4885,13.21 -119.8167,56.62 -119.8167,123.61 0,82.06 63.1915,128.31 167.9527,128.31 102.836,0 166.989,-47.17 178.321,-129.27 l -46.211,-8.48 c -11.332,66.03 -54.742,99.07 -133.996,99.07 -76.446,0 -118.8948,-32.08 -118.8948,-87.74 0,-47.22 31.1168,-75.49 94.3518,-86.82 l 83.972,-15.1 c 83.051,-14.17 124.543,-56.62 124.543,-124.54 0,-89.66 -65.074,-141.56 -179.246,-141.56 -108.5231,0 -178.363,50.97 -192.49969,141.56"
         style="fill:#ffffff;fill-opacity:1;fill-rule:nonzero;stroke:none"
         transform="matrix(0.13333333,0,0,-0.13333333,0,401.08)" />
      <path
         id="path3"
         d="m 767.184,2354.16 c 98.148,0 155.695,81.14 155.695,206.64 0,122.66 -53.781,204.75 -153.816,204.75 -96.231,0 -155.696,-90.58 -155.696,-196.26 v -17.9 c 0,-111.37 57.582,-197.23 153.817,-197.23 z m -153.817,324.61 c 22.66,73.57 87.781,128.31 163.262,128.31 123.586,0 195.305,-102.84 195.305,-246.28 0,-147.21 -73.606,-248.16 -199.11,-248.16 -70.754,0 -136.797,47.17 -157.539,119.86 v -292.54 h -47.211 v 655.79 h 45.293 v -116.98"
         style="fill:#ffffff;fill-opacity:1;fill-rule:nonzero;stroke:none"
         transform="matrix(0.13333333,0,0,-0.13333333,0,401.08)" />
      <path
         id="path4"
         d="m 1317.16,2550.43 c -95.31,-11.33 -134.95,-42.45 -134.95,-100.04 0,-61.3 44.37,-98.11 112.29,-98.11 98.15,0 163.26,73.61 163.26,177.4 v 37.73 z m 199.11,-226.46 h -50.02 c -2.84,31.16 -5.68,69.84 -6.61,106.64 -32.07,-77.41 -87.74,-117.97 -171.75,-117.97 -91.5,0 -154.74,53.78 -154.74,135.87 0,42.49 16.98,74.57 49.06,97.19 29.27,21.71 76.45,34.93 142.48,42.49 l 132.11,16.02 v 7.57 c 0,109.45 -38.68,155.66 -124.54,155.66 -85.86,0 -130.23,-45.3 -133.99,-116.98 h -50.02 c 6.61,99.08 74.56,156.62 186.85,156.62 115.09,0 168.87,-61.35 168.87,-195.3 v -116.09 c 0,-74.53 3.77,-131.15 12.3,-171.72"
         style="fill:#ffffff;fill-opacity:1;fill-rule:nonzero;stroke:none"
         transform="matrix(0.13333333,0,0,-0.13333333,0,401.08)" />
      <path
         id="path5"
         d="m 2203.6,2590.38 h 301.02 c 0.92,91.54 -37.76,176.48 -146.25,176.48 -101.91,0 -153.81,-87.78 -154.77,-176.48 z m 0,-39.6 v -1.89 c 0,-120.77 60.39,-197.22 162.3,-197.22 83.98,0.96 126.47,56.62 143.44,115.13 l 41.49,-17.02 c -26.39,-84.9 -90.58,-139.64 -184.93,-139.64 -139.64,0 -210.4,97.19 -210.4,254.77 0,143.45 78.29,239.68 204.75,239.68 143.41,0 193.43,-106.64 193.43,-233.07 0,-6.61 -0.93,-13.22 -0.93,-20.74 H 2203.6"
         style="fill:#ffffff;fill-opacity:1;fill-rule:nonzero;stroke:none"
         transform="matrix(0.13333333,0,0,-0.13333333,0,401.08)" />
      <path
         id="path6"
         d="m 2955.18,2354.16 c 97.19,0 155.69,81.14 155.69,206.64 0,122.66 -54.73,204.75 -153.82,204.75 -97.18,0 -155.69,-85.85 -155.69,-196.26 v -19.82 c 0,-110.37 57.59,-195.31 153.82,-195.31 z m -151.9,327.42 c 23.59,79.25 88.67,125.5 162.27,125.5 123.62,0 194.38,-102.84 194.38,-246.28 0,-147.21 -72.64,-248.16 -197.18,-248.16 -72.69,0 -139.68,46.25 -161.39,122.66 l -8.49,-111.33 h -36.8 v 684.1 h 47.21 v -326.49"
         style="fill:#ffffff;fill-opacity:1;fill-rule:nonzero;stroke:none"
         transform="matrix(0.13333333,0,0,-0.13333333,0,401.08)" />
      <path
         id="path7"
         d="m 3516.28,2550.43 c -95.3,-11.33 -134.95,-42.45 -134.95,-100.04 0,-61.3 44.37,-98.11 112.29,-98.11 98.15,0 163.27,73.61 163.27,177.4 v 37.73 z m 199.11,-226.46 h -50.01 c -2.85,31.16 -5.69,69.84 -6.62,106.64 -32.07,-77.41 -87.73,-117.97 -171.74,-117.97 -91.51,0 -154.74,53.78 -154.74,135.87 0,42.49 16.97,74.57 49.05,97.19 29.27,21.71 76.45,34.93 142.48,42.49 l 132.11,16.02 v 7.57 c 0,109.45 -38.68,155.66 -124.54,155.66 -85.86,0 -130.22,-45.3 -133.99,-116.98 h -50.01 c 6.6,99.08 74.56,156.62 186.84,156.62 115.1,0 168.88,-61.35 168.88,-195.3 v -116.09 c 0,-74.53 3.76,-131.15 12.29,-171.72"
         style="fill:#ffffff;fill-opacity:1;fill-rule:nonzero;stroke:none"
         transform="matrix(0.13333333,0,0,-0.13333333,0,401.08)" />
      <path
         id="path8"
         d="m 4126.84,2807.08 c 42.45,0 83.97,-11.33 115.13,-41.53 31.12,-30.19 48.09,-77.36 48.09,-153.77 v -287.81 h -47.17 v 287.81 c 0,125.46 -63.19,153.77 -126.42,153.77 -108.53,0 -154.74,-100.95 -154.74,-190.57 v -251.01 h -47.21 v 471.78 h 45.29 V 2679.7 c 25.51,80.21 83.06,127.38 167.03,127.38"
         style="fill:#ffffff;fill-opacity:1;fill-rule:nonzero;stroke:none"
         transform="matrix(0.13333333,0,0,-0.13333333,0,401.08)" />
      <path
         id="path9"
         d="M 4662.88,2586.27 4547.76,2475.9 v -151.93 h -47.18 v 684.1 h 47.18 v -476.5 l 265.13,264.18 h 62.28 l -178.33,-174.56 191.54,-297.22 h -57.55 l -167.95,262.3"
         style="fill:#ffffff;fill-opacity:1;fill-rule:nonzero;stroke:none"
         transform="matrix(0.13333333,0,0,-0.13333333,0,401.08)" />
      <path
         id="path10"
         d="m 1.57031,1294.54 81.17189,14.18 c 13.1758,-57.59 56.5858,-85.86 127.3828,-85.86 66.961,0 102.844,25.46 102.844,75.48 0,40.57 -22.668,60.39 -76.449,69.8 l -82.09,14.18 c -82.098,14.13 -131.1527,59.42 -131.1527,133.03 0,88.7 71.7227,135.88 178.3637,135.88 107.562,0 177.363,-47.18 187.734,-127.39 l -79.254,-17.95 c -9.41,53.79 -45.289,80.22 -110.406,80.22 -62.27,0 -98.11,-24.51 -98.11,-66.99 0,-38.7 29.235,-62.28 86.817,-71.69 l 79.254,-13.22 c 81.133,-13.21 124.539,-58.5 124.539,-130.22 0,-93.43 -70.762,-147.21 -189.656,-147.21 -111.3246,0 -184.0082,49.09 -200.98869,137.76"
         style="fill:#ffffff;fill-opacity:1;fill-rule:nonzero;stroke:none"
         transform="matrix(0.13333333,0,0,-0.13333333,0,401.08)" />
      <path
         id="path11"
         d="m 558.461,1639.88 h 134.957 v 123.62 l 80.211,33.96 v -157.58 h 183.969 v -65.11 H 773.629 V 1330.4 c 0,-63.23 30.191,-93.42 90.578,-93.42 31.117,0 64.156,2.84 93.391,8.49 v -73.6 c -24.508,-5.65 -50.938,-12.26 -92.465,-12.26 -117.938,0 -171.715,66.04 -171.715,159.47 v 255.69 H 558.461 v 65.11"
         style="fill:#ffffff;fill-opacity:1;fill-rule:nonzero;stroke:none"
         transform="matrix(0.13333333,0,0,-0.13333333,0,401.08)" />
      <path
         id="path12"
         d="m 1175.86,1234.14 h 150.97 v 339.71 h -136.8 v 66.04 h 217.01 v -405.75 h 159.46 v -66.03 h -390.64 v 66.03"
         style="fill:#ffffff;fill-opacity:1;fill-rule:nonzero;stroke:none"
         transform="matrix(0.13333333,0,0,-0.13333333,0,401.08)" />
      <path
         id="path13"
         d="m 2114.06,1574.78 h -179.29 v -406.67 h -80.21 v 406.67 h -144.37 v 65.11 h 144.37 v 51.9 c 0,107.56 60.39,163.22 177.4,163.22 27.36,0 50.02,-2.8 82.1,-9.41 v -70.76 c -20.75,2.81 -46.26,7.53 -82.1,7.53 -71.72,0 -97.19,-24.5 -97.19,-96.23 v -46.25 h 179.29 v -65.11"
         style="fill:#ffffff;fill-opacity:1;fill-rule:nonzero;stroke:none"
         transform="matrix(0.13333333,0,0,-0.13333333,0,401.08)" />
      <path
         id="path14"
         d="m 2292.72,1639.89 h 134.92 v 123.62 l 80.21,33.96 v -157.58 h 183.97 v -65.11 h -183.97 v -244.37 c 0,-63.23 30.19,-93.42 90.58,-93.42 31.11,0 64.15,2.84 93.39,8.49 v -73.6 c -24.51,-5.65 -50.94,-12.26 -92.47,-12.26 -117.93,0 -171.71,66.04 -171.71,159.47 v 255.69 h -134.92 v 65.11"
         style="fill:#ffffff;fill-opacity:1;fill-rule:nonzero;stroke:none"
         transform="matrix(0.13333333,0,0,-0.13333333,0,401.08)" />
      <path
         id="path15"
         d="m 3112.98,1588.95 c -85.86,0 -129.27,-70.76 -129.27,-139.64 h 250.04 c 1.89,75.49 -35.84,139.64 -120.77,139.64 z m 201.91,-205.71 h -331.18 c 0,-88.7 50.94,-155.7 138.73,-155.7 62.26,0 100.94,38.72 124.54,83.98 l 67.91,-35.84 c -39.6,-78.33 -103.79,-118.9 -192.45,-118.9 -148.18,0 -220.82,101.92 -220.82,256.65 0,144.37 83.05,237.8 215.12,237.8 144.37,0 200.07,-103.8 200.07,-232.11 0,-11.33 -0.96,-23.59 -1.92,-35.88"
         style="fill:#ffffff;fill-opacity:1;fill-rule:nonzero;stroke:none"
         transform="matrix(0.13333333,0,0,-0.13333333,0,401.08)" />
      <path
         id="path16"
         d="m 3510.58,1234.14 h 150.98 v 552 h -141.53 v 66.07 h 221.73 v -618.07 h 159.46 v -66.03 h -390.64 v 66.03"
         style="fill:#ffffff;fill-opacity:1;fill-rule:nonzero;stroke:none"
         transform="matrix(0.13333333,0,0,-0.13333333,0,401.08)" />
      <path
         id="path17"
         d="m 4063.77,1294.54 81.18,14.18 c 13.22,-57.59 56.59,-85.86 127.39,-85.86 66.99,0 102.83,25.46 102.83,75.48 0,40.57 -22.67,60.39 -76.45,69.8 l -82.09,14.18 c -82.09,14.13 -131.15,59.42 -131.15,133.03 0,88.7 71.72,135.88 178.32,135.88 107.61,0 177.41,-47.18 187.78,-127.39 l -79.25,-17.95 c -9.42,53.79 -45.29,80.22 -110.4,80.22 -62.28,0 -98.12,-24.51 -98.12,-66.99 0,-38.7 29.23,-62.28 86.82,-71.69 l 79.25,-13.22 c 81.13,-13.21 124.55,-58.5 124.55,-130.22 0,-93.43 -70.76,-147.21 -189.66,-147.21 -111.33,0 -184.01,49.09 -201,137.76"
         style="fill:#ffffff;fill-opacity:1;fill-rule:nonzero;stroke:none"
         transform="matrix(0.13333333,0,0,-0.13333333,0,401.08)" />
      <path
         id="path18"
         d="m 4860.26,1588.95 c -85.86,0 -129.27,-70.76 -129.27,-139.64 h 250.05 c 1.87,75.49 -35.85,139.64 -120.78,139.64 z m 201.91,-205.71 h -331.18 c 0,-88.7 50.94,-155.7 138.72,-155.7 62.27,0 100.95,38.72 124.54,83.98 l 67.92,-35.84 c -39.61,-78.33 -103.76,-118.9 -192.46,-118.9 -148.17,0 -220.82,101.92 -220.82,256.65 0,144.37 83.02,237.8 215.13,237.8 144.36,0 200.03,-103.8 200.03,-232.11 0,-11.33 -0.92,-23.59 -1.88,-35.88"
         style="fill:#ffffff;fill-opacity:1;fill-rule:nonzero;stroke:none"
         transform="matrix(0.13333333,0,0,-0.13333333,0,401.08)" />
      <path
         id="path19"
         d="m 5503.13,1651.23 c 38.68,0 82.09,-10.38 114.17,-40.57 31.11,-29.28 45.29,-74.57 45.29,-150.98 v -291.57 h -80.21 v 286.85 c 0,102.84 -50.94,125.5 -98.12,125.5 -106.64,0 -132.11,-99.07 -132.11,-166.07 v -246.28 h -80.2 v 471.78 h 75.48 v -93.39 c 24.55,59.43 76.45,104.73 155.7,104.73"
         style="fill:#ffffff;fill-opacity:1;fill-rule:nonzero;stroke:none"
         transform="matrix(0.13333333,0,0,-0.13333333,0,401.08)" />
      <path
         id="path20"
         d="m 287.809,495.352 c 35.843,0 74.523,-7.532 104.718,-36.813 28.313,-28.309 46.25,-74.519 46.25,-154.738 V 12.2305 H 293.457 V 283.02 c 0,74.558 -29.234,96.269 -67.922,96.269 -58.504,0 -79.285,-53.777 -79.285,-100.957 V 12.2305 H 0 V 696.332 H 146.25 V 397.23 c 18.895,54.711 72.68,98.122 141.559,98.122"
         style="fill:#ffffff;fill-opacity:1;fill-rule:nonzero;stroke:none"
         transform="matrix(0.13333333,0,0,-0.13333333,0,401.08)" />
      <path
         id="path21"
         d="m 807.027,400.031 c -55.707,0 -86.824,-45.293 -86.824,-104.711 h 166.992 c 0.961,64.149 -24.504,104.711 -80.168,104.711 z M 1032.52,216.07 H 722.09 c 0,-61.359 38.68,-106.64 100.035,-106.64 44.328,0 74.523,24.539 96.23,64.152 L 1030.64,122.641 C 990.996,46.1992 914.59,0.898438 821.16,0.898438 659.816,0.898438 575.84,97.1719 575.84,248.141 c 0,150.98 91.508,247.211 234.949,247.211 147.207,0 223.611,-95.321 223.611,-238.711 0,-13.231 -0.92,-26.442 -1.88,-40.571"
         style="fill:#ffffff;fill-opacity:1;fill-rule:nonzero;stroke:none"
         transform="matrix(0.13333333,0,0,-0.13333333,0,401.08)" />
      <path
         id="path22"
         d="m 1390.02,389.719 c -61.31,0 -89.63,-54.739 -89.63,-141.559 0,-87.738 32.08,-143.398 86.82,-143.398 52.82,0 86.82,50.019 86.82,122.66 v 36.797 c 0,72.64 -33.03,125.5 -84.01,125.5 z M 1617.44,695.43 V 11.3281 H 1479.68 V 94.3906 C 1458.93,43.4102 1414.56,0 1335.31,0 c -111.33,0 -184.93,97.1914 -184.93,245.359 0,148.129 72.65,249.09 195.3,249.09 62.28,0 106.65,-33.039 126.43,-76.461 V 695.43 h 145.33"
         style="fill:#ffffff;fill-opacity:1;fill-rule:nonzero;stroke:none"
         transform="matrix(0.13333333,0,0,-0.13333333,0,401.08)" />
      <path
         id="path23"
         d="m 2011.89,495.352 c 50.02,0 80.22,-26.442 95.32,-81.141 17.94,49.98 56.62,81.141 105.67,81.141 53.78,0 106.65,-35.84 106.65,-143.454 V 12.2305 H 2197.79 V 338.719 c 0,39.613 -14.18,52.832 -33.96,52.832 -29.28,0 -43.41,-23.59 -43.41,-61.309 V 12.2305 H 2000.57 V 338.719 c 0,38.691 -14.15,52.832 -34.89,52.832 -28.31,0 -41.53,-24.512 -41.53,-61.309 V 12.2305 H 1801.49 V 484.012 h 112.29 v -67.91 c 16.02,47.168 50.94,79.25 98.11,79.25"
         style="fill:#ffffff;fill-opacity:1;fill-rule:nonzero;stroke:none"
         transform="matrix(0.13333333,0,0,-0.13333333,0,401.08)" />
      <path
         id="path24"
         d="m 2703.47,220.762 c -62.27,-11.301 -89.62,-31.133 -89.62,-67.012 0,-34.879 24.51,-56.5781 63.19,-56.5781 51.9,0 86.82,37.7261 86.82,95.2691 v 37.758 z M 2921.44,12.2305 H 2778 c -3.77,31.1601 -6.57,56.6289 -7.53,81.1289 -24.55,-57.5391 -76.45,-92.460962 -154.74,-92.460962 -91.54,0 -152.85,54.742162 -152.85,136.843562 0,45.289 16.98,81.129 50.94,104.719 29.23,20.777 76.44,36.801 145.32,46.25 l 100.96,14.141 v 20.777 c 0,50.93 -18.87,74.519 -62.27,74.519 -43.42,0 -67.96,-22.617 -70.8,-67.906 h -150.98 c 9.45,105.668 90.58,165.11 227.42,165.11 139.64,0 205.71,-61.352 205.71,-192.5 V 143.379 c 0,-56.6173 4.73,-102.8399 12.26,-131.1485"
         style="fill:#ffffff;fill-opacity:1;fill-rule:nonzero;stroke:none"
         transform="matrix(0.13333333,0,0,-0.13333333,0,401.08)" />
      <path
         id="path25"
         d="m 3815,216.07 -52.86,-61.359 V 12.2305 H 3615.9 V 696.332 h 146.24 V 288.711 l 150.05,195.301 h 167.96 L 3922.57,305.691 4085.79,12.2305 H 3917.85 L 3815,216.07"
         style="fill:#ffffff;fill-opacity:1;fill-rule:nonzero;stroke:none"
         transform="matrix(0.13333333,0,0,-0.13333333,0,401.08)" />
      <path
         id="path26"
         d="m 1415.53,1738.96 h -113.21 v 113.25 h 113.21 v -113.25"
         style="fill:#ffffff;fill-opacity:1;fill-rule:nonzero;stroke:none"
         transform="matrix(0.13333333,0,0,-0.13333333,0,401.08)" />
      <path
         id="path27"
         d="m 2033.63,2802.72 c -9.91,1.15 -19.49,2.48 -31.71,2.48 -82.1,0 -177.37,-48.13 -217.01,-170.8 v 161.35 h -47.18 v -471.78 h 47.18 v 178.32 c 0,156.67 99.07,259.5 216.09,259.5 11.64,0 22.18,-1.4 32.63,-2.73 v 43.66"
         style="fill:#ffffff;fill-opacity:1;fill-rule:nonzero;stroke:none"
         transform="matrix(0.13333333,0,0,-0.13333333,0,401.08)" />
      <path
         id="path28"
         d="m 3469.59,491.199 c -10.95,1.281 -23.11,2.262 -38.28,2.262 -98.15,0 -173.63,-52.859 -203.83,-145.32 V 484.012 H 3085.96 V 12.2305 h 146.25 V 177.34 c 0,135.879 86.82,187.769 184,187.769 19.64,0 37.59,-1.449 53.38,-3.461 v 129.551"
         style="fill:#ffffff;fill-opacity:1;fill-rule:nonzero;stroke:none"
         transform="matrix(0.13333333,0,0,-0.13333333,0,401.08)" />
    </g>
  </g>
</svg>
