<svg id="Layer_1" data-name="Layer 1" xmlns="http://www.w3.org/2000/svg" viewBox="0 0 225 98.51"><defs><style>.cls-1{fill:#fff;}</style></defs><title>Telenor</title><path class="cls-1" d="M110.83,38h-3.26c-0.31,0-.31-0.58-0.31-1s0-1,.31-1h3.26V30.18c0-.27.72-0.27,1.21-0.27s1.21,0,1.21.27v5.73h5.59c0.27,0,.27.49,0.27,1s0,1-.27,1h-5.59V55.59c0,0.72,0,2.06,1.79,2.06h3.76c0.27,0,.27.54,0.27,1s0,1-.27,1h-4.25c-2.91,0-3.72-1.75-3.72-4.3V38Z" transform="translate(0)"/><path class="cls-1" d="M123.14,48.7V51c0,5.06,3.36,7,6.89,7a14.15,14.15,0,0,0,7.31-1.93c0.27-.13.58,0.45,0.8,0.85s0.54,1,.23,1.17a14.22,14.22,0,0,1-8.25,2.06c-5.9,0-9.4-3.31-9.4-9V43.77c0-5.8,3-8.85,8.91-8.85s9.14,3,9.14,8.71V48.7H123.14ZM136.36,44c0-5-3.22-6.92-6.72-6.92S123.14,39,123.14,44V46.5h13.22V44Z" transform="translate(0)"/><path class="cls-1" d="M142.54,55.32V26.91c0-.27.76-0.27,1.21-0.27s1.21,0,1.21.27V55.59c0,0.72,0,2.06,1.79,2.06h1.57c0.27,0,.27.54,0.27,1s0,1-.27,1h-2.06C143.34,59.61,142.54,57.87,142.54,55.32Z" transform="translate(0)"/><path class="cls-1" d="M152.51,48.7V51c0,5.06,3.36,7,6.89,7a14.18,14.18,0,0,0,7.34-1.93c0.27-.13.58,0.45,0.81,0.85s0.53,1,.22,1.17a14.25,14.25,0,0,1-8.28,2.06c-5.91,0-9.4-3.31-9.4-9V43.77c0-5.8,3-8.85,8.91-8.85s9.18,3,9.18,8.71V48.7H152.51ZM165.76,44c0-5-3.23-6.92-6.76-6.92S152.51,39,152.51,44V46.5h13.25V44Z" transform="translate(0)"/><path class="cls-1" d="M187.75,59.79c-0.45,0-1.21,0-1.21-.27V43.64c0-5-1.88-6.52-5.37-6.52s-6.85,5.4-6.85,5.4v17c0,0.27-.76.27-1.21,0.27s-1.21,0-1.21-.27V35.46c0-.27.76-0.27,1.21-0.27s1.16,0,1.16.27v4.3c0.89-1.17,3-4.84,7.48-4.84,4.65,0,7.2,2.91,7.2,7.46V59.53C189,59.79,188.2,59.79,187.75,59.79Z" transform="translate(0)"/><path class="cls-1" d="M192.63,51.42V43.64c0-5.8,3.4-8.71,9.31-8.71s9.36,3,9.36,8.71v7.79c0,5.78-3.41,8.73-9.36,8.73S192.63,57.24,192.63,51.42Zm9.31-14.31c-3.45,0-6.9,1.83-6.9,6.92v7c0,5.06,3.4,7,6.9,7s7-1.84,7-7V44C208.92,39,205.47,37.12,201.94,37.12Z" transform="translate(0)"/><path class="cls-1" d="M219.31,40.47c-1.07,1.33-2.19,2.94-2.19,2.94V59.53c0,0.27-.76.27-1.21,0.27s-1.16,0-1.16-.27V35.46c0-.27.76-0.27,1.21-0.27s1.16,0,1.16.27v5.42l1.7-2.42c1.74-2.37,2.87-3.18,5-3.18h0.9c0.27,0,.27.85,0.27,1.3s0,1.3-.27,1.3C222,37.88,221.24,38.1,219.31,40.47Z" transform="translate(0)"/><path class="cls-1" d="M54.07,30.12c0.5-.37,1.86-1.37,2-1.52a34.74,34.74,0,0,1,3-9.76A30,30,0,0,1,68.75,7.17,48.12,48.12,0,0,1,83.44.84,35.65,35.65,0,0,1,94.14.13c6.45,0.58,10,2.42,11.8,4.79a5.19,5.19,0,0,1,1,2.69,5.49,5.49,0,0,1-2.16,4.24c-1.65,1.46-5.18,3.31-10,4.92-5,1.66-11.82,3.42-18.62,5a107.14,107.14,0,0,0-13,3.8c-0.81.29-1.32,0.54-2,.86a32.49,32.49,0,0,0-1.66,5.2,39,39,0,0,1,10.74,6.66A77.33,77.33,0,0,1,81.94,49.71c4.23,5.17,11.16,15,13.65,24.62,2.76,10.52,1,20.5-4.92,23.28S77.06,96.41,71.6,90.75C66.41,85.37,62.78,79,59.37,69.28c-3-8.39-4.15-20.56-4.15-26.92,0-2.12,0-3.38.09-5.3-2.39-1.53-5.19-1.45-8.34.37-5.76,3.31-11.72,10.45-14.9,14.18-1.38,1.63-3.26,4-5.25,6.52-2.62,3.29-5.51,6.71-8.15,8.63-4,2.89-10.35,4.09-14.82.9C1.37,65.9,0,62.54,0,59.14a13,13,0,0,1,1.76-6.71,32.81,32.81,0,0,1,7.87-8.68,69.42,69.42,0,0,1,16.95-9.67c9.86-4,20.47-5.22,27.5-4h0Z" transform="translate(0)"/></svg>