<?xml version="1.0" encoding="UTF-8"?>
<svg id="Layer_1" xmlns="http://www.w3.org/2000/svg" version="1.1" viewBox="0 0 535.7 212.6">
  <!-- Generator: Adobe Illustrator 30.2.1, SVG Export Plug-In . SVG Version: 2.1.1 Build 1)  -->
  <defs>
    <style>
      .st0 {
        fill: #fff;
      }

      .st1 {
        fill: #3d1152;
      }
    </style>
  </defs>
  <path class="st1" d="M285.8,150.6c-.2-.2-.3-.3-.5-.5-.1-.1-.3-.3-.4-.4v24.6c-.3,11.8-4.3,21.2-11.9,28.2-7.4,6.7-17.2,10.2-29,10.2s-14.6-1.5-20.7-4.6c-3.4-1.7-6.5-3.9-9.1-6.4-.2-.2-.3-.3-.5-.5-.2-.2-59.5-58.2-59.6-58.4-.1,0-.2-.2-.3-.3v9.9c0,7.3-5.9,13.2-13.2,13.2s-7.1-1.6-9.5-4.1c-.2-.2-3.5-3.5-3.6-3.6-.1,0-.2-.2-.3-.3-3.4,5-8,9-13.7,11.8-6.1,3.1-13,4.6-20.7,4.6-11.8,0-21.6-3.4-29-10.2-.6-.5-1.1-1-1.6-1.6-.2-.2-51.2-51.1-51.3-51.3C3.9,103.9.3,94.8,0,83.7v-.2s0-70.4,0-70.4C0,5.9,5.9,0,13.1,0s7.1,1.6,9.5,4.1c.2.2.4.3.5.5,0,0,32,32,32.1,32.1.1,0,.2.2.3.3v-7.3c0-7.3,5.9-13.2,13.2-13.2s7.1,1.6,9.5,4.1c.2.2.4.3.5.5l13,13c.1.1.2.2.4.3,1.2-.8,2.4-1.5,3.8-2.2,6.1-3.1,13-4.6,20.7-4.6,11.8,0,21.6,3.4,29,10.2.6.5,9.9,9.9,9.9,9.9,0,0,.1,0,.2.2.3-.5.5-1.1.9-1.6,3.5-6,8.6-10.7,15-13.9,6.1-3.1,13-4.6,20.7-4.6,11.8,0,21.6,3.4,29,10.2.6.5,15.6,15.6,15.6,15.6.1.1.3.2.4.4V20.1c0-11.1,9-20.1,20.1-20.1s10.8,2.4,14.5,6.2l9.8,9.8s0,0,0,0c.8-3.9,2.6-7.4,5.5-10.3.8-.8,1.7-1.5,2.7-2.2,3.4-2.4,7.4-3.7,11.6-3.7s10.8,2.3,14.6,6.3c.2.2.3.3.5.5.2.2,23.3,23.3,23.3,23.3.2.2.3.3.5.5,0,0,0,0,0,0v-10.5c0-11.1,9-20.1,20.1-20.1s10.8,2.4,14.5,6.2c.2.2.3.3.5.5l9.3,9.3s0,0,0,0c.8-3.9,2.7-7.4,5.5-10.2.8-.8,1.7-1.5,2.7-2.2,3.4-2.4,7.4-3.7,11.6-3.7s10.8,2.3,14.6,6.3c.2.2.3.3.5.5l23.3,23.3c.2.2.3.3.5.5,0,0,0,0,0,0v-10.5c0-11.1,9-20.1,20.1-20.1s10.8,2.4,14.5,6.2c.2.2,50.6,50.6,50.8,50.8.2.2.3.3.5.5,3.8,3.7,6.2,8.8,6.2,14.5v90.1c0,12-7.9,20.1-19.6,20.1s-10.1-1.7-14.1-5.8c-.2-.2-.3-.3-.5-.5-.2-.2-24.7-24.7-24.9-24.9-.2-.2-.3-.3-.5-.5,0,0-.2-.1-.2-.2-2.4,8.5-10.1,14.8-19.4,14.8s-10.8-2.4-14.5-6.2c-.2-.2-8.6-8.6-8.8-8.8-.2-.2-.3-.3-.5-.5,0,0-.1-.1-.2-.2v12.7c0,12-7.9,20.1-19.6,20.1s-10.1-1.7-14.1-5.8c-.2-.2-.3-.3-.5-.5-.2-.2-.3-.3-.5-.5-.2-.2-24.2-24.2-24.4-24.4-.2-.2-.3-.3-.5-.5,0,0-.1-.1-.2-.2-2.4,8.5-10.1,14.8-19.4,14.8s-10.8-2.4-14.5-6.2c-.2-.2-.3-.3-.5-.5-.2-.2-8.6-8.6-8.8-8.8-.2-.2-.3-.3-.5-.5-1.7,9.4-9.9,16.6-19.8,16.6s-10.8-2.4-14.5-6.2c-.2-.2-.3-.3-.5-.5l-8.3-8.3Z"/>
  <g>
    <path class="st0" d="M359.3,8.3c-6.1.6-10.7,6-10.7,12.1v46.8c0,1-1.3,1.4-1.9.6-7.4-11.4-33.9-52.3-35.9-54.8-2.2-2.9-5.6-4.7-9.4-4.7s-4.9.8-6.9,2.2c-.5.3-1,.7-1.5,1.2-2.3,2.3-3.5,5.4-3.5,8.4,0,0,0,0,0,0v72.6c0,6.2,4.6,11.6,10.7,12.1,7,.7,13-4.9,13-11.8v-30.1c0-1,1.3-1.4,1.9-.6,7.3,11.1,33,50.5,36,54.4,3.3,4.2,5.7,5.3,9.9,5.3,6.5,0,11.3-3.7,11.3-11.8V20.1c0-6.9-5.9-12.5-13-11.8Z"/>
    <path class="st0" d="M257.2,8.3c-6.5,0-11.8,5.3-11.8,11.8v73.5c0,6.5,5.3,11.8,11.8,11.8s11.8-5.3,11.8-11.8V20.1c0-6.5-5.3-11.8-11.8-11.8Z"/>
    <path class="st0" d="M68.7,24.9c-2.7,0-4.9,2.2-4.9,4.9v52.7c0,7.2-2.1,12.8-6.1,16.8-4.1,4-9.7,6-16.8,6s-12.8-2-16.9-6c-4.1-3.9-6.2-9.6-6.2-16.9V13.1c0-2.6-2.2-4.8-4.8-4.8s-4.8,2.2-4.8,4.8v70.4c.2,9.4,3.3,16.8,9.2,22.2,5.9,5.3,13.7,8,23.4,8s12-1.3,17-3.7c5-2.5,8.8-6.1,11.6-10.7,2.7-4.6,4.1-10.1,4.2-16.3V29.7c0-2.7-2.2-4.9-4.9-4.9Z"/>
    <path class="st0" d="M140,44c-5.9-5.3-13.7-8-23.4-8s-12,1.3-17,3.7c-4.9,2.5-8.8,6.1-11.6,10.7-2.7,4.6-4.1,10.1-4.2,16.3v33.6c0,2.7,2.2,4.9,4.9,4.9s4.9-2.2,4.9-4.9v-33.1c0-7.2,2.1-12.8,6.1-16.8,4.1-4,9.7-6,16.8-6s12.8,2,16.9,6c4.1,3.9,6.2,9.6,6.2,16.9v47.2c0,2.6,2.2,4.8,4.8,4.8s4.8-2.2,4.8-4.8v-48.3c-.2-9.4-3.3-16.8-9.2-22.2Z"/>
    <path class="st0" d="M224.7,66.2h0c-.2-9.4-3.3-16.9-9.2-22.2-5.9-5.3-13.7-8-23.4-8s-12,1.3-17,3.7c-4.9,2.5-8.8,6.1-11.6,10.7-2.5,4.3-3.9,9.4-4.1,15.2h0v9.4c.2,9.4,3.3,16.8,9.2,22.2,5.9,5.3,13.7,8,23.4,8s12-1.3,17-3.7c2.3-1.1,4.3-2.5,6.1-4.1v23.7c0,7.2-2.1,12.9-6.2,16.9-4.1,4-9.8,6-16.9,6s-12.7-2-16.8-6c-3.5-3.4-5.5-7.9-6.1-13.5,0-.2,0-.9-.1-2.6,0-2.6-2.2-4.7-4.8-4.7s-2.5.5-3.4,1.4c-.9.9-1.4,2.2-1.4,3.5,0,.9,0,1.7,0,1.9.3,5.2,1.7,9.9,4.1,14,2.7,4.6,6.6,8.2,11.6,10.7,4.9,2.5,10.6,3.7,17,3.7,9.7,0,17.6-2.7,23.4-8,5.9-5.3,9-12.8,9.2-22.2v-47.7s0,0,0-.1v-8.3ZM215.1,67.3v6.6c0,7.2-2.1,12.8-6.3,16.9-4.1,4-9.7,6-16.8,6s-12.8-2-16.9-6c-4.1-3.9-6.2-9.6-6.2-16.9v-6.5c0-7.2,2.1-12.9,6.3-16.9,4.1-4,9.7-6,16.8-6s12.8,2,16.9,6c4.1,3.9,6.2,9.6,6.2,16.9Z"/>
    <path class="st0" d="M462.5,8.3c-6.1.6-10.7,6-10.7,12.1v46.8c0,1-1.3,1.4-1.9.6-7.4-11.4-33.9-52.3-35.9-54.8-2.2-2.9-5.6-4.7-9.4-4.7s-4.9.8-6.9,2.2c-.5.3-1,.7-1.5,1.2-2.3,2.3-3.5,5.4-3.5,8.4,0,0,0,0,0,0v72.6c0,6.2,4.6,11.6,10.7,12.1,7,.7,13-4.9,13-11.8v-30.1c0-1,1.3-1.4,1.9-.6,7.3,11.1,33,50.5,36,54.4,3.3,4.2,5.7,5.3,9.9,5.3,6.5,0,11.3-3.7,11.3-11.8V20.1c0-6.9-5.9-12.5-13-11.8Z"/>
  </g>
</svg>