<?xml version="1.0" encoding="UTF-8" standalone="no"?>
<svg
   version="1.1"
   width="256.96167"
   height="381"
   style="clip-rule:evenodd;fill-rule:evenodd;image-rendering:optimizeQuality;shape-rendering:geometricPrecision;text-rendering:geometricPrecision"
   id="svg1"
   xmlns="http://www.w3.org/2000/svg"
   xmlns:svg="http://www.w3.org/2000/svg">
  <defs
     id="defs1" />
  <g
     id="g1"
     transform="translate(-70.942271,-8.5)">
    <path
       style="opacity:1;fill:#ffffff"
       fill="#000000"
       d="m 222.5,8.5 c 1,0 2,0 3,0 -2.272,24.725 -4.939,49.3917 -8,74 34.932,6.4579 63.265,23.625 85,51.5 22.662,-0.15 30.162,10.35 22.5,31.5 -2.264,2.933 -5.098,5.1 -8.5,6.5 -15.6,1.287 -31.266,1.954 -47,2 -6.184,1.197 -11.017,4.364 -14.5,9.5 -2.856,4.879 -5.023,10.046 -6.5,15.5 0.333,0.5 0.667,1 1,1.5 8.285,-1.136 16.618,-1.303 25,-0.5 12.022,5.018 16.522,13.851 13.5,26.5 -2.106,5.772 -5.939,9.938 -11.5,12.5 -14.364,4.227 -29.031,6.394 -44,6.5 -8.865,28.928 -18.532,57.595 -29,86 18.588,0.645 35.921,-3.855 52,-13.5 18.474,-11.802 35.807,-25.135 52,-40 0.667,-0.667 1.333,-0.667 2,0 -26.517,36.93 -62.517,57.263 -108,61 -6.296,16.764 -12.463,33.598 -18.5,50.5 -1.471,-0.881 -2.304,-2.214 -2.5,-4 2.993,-15.623 5.659,-31.289 8,-47 -38.708,-4.434 -70.208,-21.767 -94.5,-52 -18.6641,-28.658 -25.9975,-59.991 -22,-94 8.0219,-44.938 32.189,-77.771 72.5,-98.5 16.985,-6.4626 34.485,-10.6292 52.5,-12.5 6.625,-25.0434 15.125,-49.3768 25.5,-73 z m -39,84 c 3.682,-0.1653 7.348,0.0014 11,0.5 -6.728,24.745 -13.228,49.579 -19.5,74.5 -3.106,15.254 -3.772,30.587 -2,46 5.009,16.621 16.176,26.454 33.5,29.5 -5.922,29.363 -11.255,58.863 -16,88.5 -40.044,-4.432 -71.544,-23.099 -94.5,-56 -24.805,-46.399 -23.1384,-91.733 5,-136 21.861,-25.721 49.361,-41.3881 82.5,-47 z m 33,2 c 27.577,6.784 51.243,20.284 71,40.5 -10.667,0.333 -21.333,0.667 -32,1 -13.073,3.082 -22.573,10.582 -28.5,22.5 -3.813,11.921 -7.313,23.921 -10.5,36 -2.835,-2.328 -4.669,-5.328 -5.5,-9 -0.992,-6.793 -1.492,-13.627 -1.5,-20.5 1.798,-23.553 4.132,-47.053 7,-70.5 z"
       id="path1" />
  </g>
</svg>
