<svg version="1.1" id="Layer_1" xmlns="http://www.w3.org/2000/svg" xmlns:xlink="http://www.w3.org/1999/xlink" x="0px" y="0px" viewBox="0 0 200 40" enable-background="new 0 0 200 40" xml:space="preserve">
<g>
	<g>
		<path fill-rule="evenodd" clip-rule="evenodd" fill="#ffffff" d="M29.2,36V20.6c0-7.5-7-12.3-13.3-12.3c-4.3,0-7.6,2.3-10.8,4.7    c-1,0.8-2.1,1.4-3.4,1.5c0.5,0.8,0.9,1.7,0.9,3.2V36c0,1-0.1,1.9-1.3,2.7H10C8.8,37.9,8.7,37,8.7,36V17.7c1.7-1.6,4.1-3.7,6.8-3.7    c4.2,0,7.7,2.8,7.7,7.5V36c0,1-0.1,1.9-1.3,2.7h8.5C29.3,37.9,29.2,37,29.2,36z"/>
		<path fill-rule="evenodd" clip-rule="evenodd" fill="#ffffff" d="M40.8,26.7h26.7c-0.2-0.4-0.3-0.8-0.3-1.2    c0-9-6.3-17.2-16.5-17.2c-8.8,0-16,7.2-16,16.2c0,8.4,7.5,15.2,16.3,15.2c2.8,0,6.2-1.1,7.8-1.1c0.9,0,1,0.4,1.7,1v-8.4    c-2.3,2.1-5.5,3.1-8.6,3.1C46.6,34.1,42.3,31.9,40.8,26.7L40.8,26.7z M51.1,13.8c4.6,0,8.6,2.9,9.6,7.3H40.9    C42.4,16.5,46,13.8,51.1,13.8z"/>
		<path fill-rule="evenodd" clip-rule="evenodd" fill="#ffffff" d="M98.2,36.6L86.9,22.8l9.3-11.4c0.7-0.9,1.6-1.6,2.5-2.2H88.5    c0.5,0.5,0.7,0.7,0.7,1.1c0,0.4-0.3,1-0.5,1.3l-5.2,7.4h-0.2l-5.2-7.4c-0.2-0.4-0.5-0.9-0.5-1.3c0-0.4,0.2-0.6,0.7-1.1H68.1    c0.9,0.7,1.7,1.3,2.5,2.2l9.3,11.4L68.7,36.6c-0.6,0.7-1.4,1.4-2.5,2.1h10.6c-0.5-0.3-0.7-0.8-0.7-1.2c0-0.5,0.4-1.1,0.8-1.7    l6.7-8.9h0.1l6.2,8.9c0.4,0.6,0.8,1.3,0.8,1.7c0,0.4-0.2,0.9-0.7,1.2h10.6C99.5,38,98.8,37.3,98.2,36.6z"/>
		<path fill-rule="evenodd" clip-rule="evenodd" fill="#ffffff" d="M113,14.8c1,0,2,0.1,2.8,0.9V9.3h-6.1V0.7L98.8,14.8h5V36    c0,1-0.1,1.9-1.3,2.7h8.5c-1.1-0.8-1.3-1.7-1.3-2.7V14.8H113z"/>
	</g>
	<g>
		<path fill-rule="evenodd" clip-rule="evenodd" fill="#ffffff" d="M119.8,34.4c0,2.4-0.1,3.8-1.1,4.3h6.4c-0.7-0.4-1.1-1.2-1.1-2.5    v-5.6h-4.2V34.4z"/>
		<path fill-rule="evenodd" clip-rule="evenodd" fill="#ffffff" d="M124,20.8c0-6.4,4.6-8.4,7.9-8.4h1.1V7.7c-0.5,0.4-1,0.6-1.6,0.6    c-3.1,0-6.2,1.3-7.6,4.9h-0.1V9.3h-4.5c0.2,0.6,0.6,1.4,0.6,2.2v17.7h4.2V20.8z"/>
		<path fill-rule="evenodd" clip-rule="evenodd" fill="#ffffff" d="M138,24c0-6.4,5.4-11.6,11.9-11.6c6.5,0,11.9,5.2,11.9,11.6    c0,1.8-0.5,3.6-1.2,5.1h4.7c0.6-1.6,0.9-3.3,0.9-5.1c0-8.8-7.5-15.7-16.2-15.7c-8.8,0-16.2,6.9-16.2,15.7c0,1.8,0.3,3.5,0.9,5.1    h4.7C138.4,27.5,138,25.8,138,24z"/>
		<path fill-rule="evenodd" clip-rule="evenodd" fill="#ffffff" d="M149.9,35.6c-4,0-7.5-2-9.7-4.9h-5c2.6,5.4,8.3,9,14.7,9    c6.4,0,12-3.6,14.7-9h-5C157.4,33.6,153.8,35.6,149.9,35.6z"/>
		<path fill-rule="evenodd" clip-rule="evenodd" fill="#ffffff" d="M171.7,35.8c0,1.6-0.1,2.3-1,2.9h6.7c-0.5-0.4-1.5-1-1.5-2.1    v-5.9h-4.2V35.8z"/>
		<path fill-rule="evenodd" clip-rule="evenodd" fill="#ffffff" d="M193.9,30.7v4.7c0,1.7-0.1,2.6-1.2,3.4h6.7    c-0.7-0.5-1.3-1.1-1.3-3.5v-4.5H193.9z"/>
		<path fill-rule="evenodd" clip-rule="evenodd" fill="#ffffff" d="M175.9,17.3c1.2-0.9,3.6-4.9,8.5-4.9c5.4,0,9.4,4.2,9.4,9.6v7.1    h4.2v-7.7c0-7-5.9-13-13-13c-8,0-7.2,4.4-13.9,6.6c0.2,0.5,0.5,0.8,0.5,1.7v12.5h4.2V17.3z"/>
	</g>
</g>
</svg>