<svg width="167" height="35" viewBox="0 0 167 35" fill="none" xmlns="http://www.w3.org/2000/svg">
	<path fill-rule="evenodd" clip-rule="evenodd" d="M65.1027 23.5186C64.7813 22.7356 64.6185 21.8967 64.6237 21.0504V6.40559C64.6237 5.56182 64.7904 4.72636 65.1143 3.9472C65.4381 3.16804 65.9127 2.46053 66.5107 1.86532C67.1088 1.27011 67.8186 0.798922 68.5993 0.478827C69.3796 0.15888 70.2154 -0.00381796 71.0588 6.80018e-05H85.8005C86.6438 -0.00381796 87.4797 0.15888 88.26 0.478827C89.0407 0.798922 89.7505 1.27011 90.3485 1.86532C90.9466 2.46053 91.4212 3.16804 91.745 3.9472C92.0688 4.72636 92.2355 5.56182 92.2355 6.40559V21.0504C92.2407 21.8967 92.0779 22.7356 91.7566 23.5186C91.435 24.302 90.9611 25.0138 90.3623 25.6126C89.7634 26.2114 89.0517 26.6854 88.2682 27.0069C87.4853 27.3283 86.6464 27.4911 85.8001 27.4858H83.6313C83.5359 27.4921 83.4399 27.4921 83.344 27.4858L73.5152 27.4858C73.4193 27.4921 73.3234 27.4921 73.228 27.4858H71.0591C70.2129 27.4911 69.3739 27.3283 68.591 27.0069C67.8076 26.6854 67.0958 26.2114 66.497 25.6126C65.8982 25.0138 65.4242 24.302 65.1027 23.5186ZM69.6251 4.97309C70.005 4.59317 70.5203 4.37973 71.0576 4.37973H85.8017C86.339 4.37973 86.8543 4.59317 87.2342 4.97309C87.6141 5.35301 87.8276 5.86829 87.8276 6.40559L87.8276 21.0595C87.8316 21.3281 87.7822 21.5948 87.6822 21.8441C87.5822 22.0934 87.4336 22.3203 87.245 22.5116C87.0565 22.7029 86.8318 22.8549 86.5841 22.9586C86.3363 23.0623 86.0703 23.1156 85.8017 23.1156H83.6313C83.5359 23.1093 83.4399 23.1093 83.344 23.1156H73.5152C73.4193 23.1093 73.3234 23.1093 73.2279 23.1156H71.0576C70.789 23.1156 70.523 23.0623 70.2752 22.9586C70.0274 22.8549 69.8027 22.7029 69.6142 22.5116C69.4257 22.3203 69.2771 22.0934 69.1771 21.8441C69.0771 21.5948 69.0276 21.3281 69.0317 21.0595L69.0317 6.40559C69.0317 5.86829 69.2451 5.35301 69.6251 4.97309Z" fill="white"/>
	<path d="M6.94011 0.000207892C6.09382 -0.00500849 5.25491 0.157775 4.47199 0.479132C3.68856 0.800697 2.97678 1.27464 2.37796 1.87346C1.77915 2.47228 1.30521 3.18405 0.98364 3.96748C0.662283 4.7504 0.499499 5.58931 0.504716 6.4356V25.2786C0.485395 25.5725 0.525568 25.8674 0.622907 26.1456C0.722447 26.43 0.879623 26.6908 1.0846 26.9117C1.28958 27.1326 1.53795 27.3089 1.81416 27.4294C2.09037 27.5499 2.38848 27.6121 2.68983 27.6121C2.99119 27.6121 3.2893 27.5499 3.56551 27.4294C3.84172 27.3089 4.09009 27.1326 4.29507 26.9117C4.50004 26.6908 4.65722 26.43 4.75676 26.1456C4.8541 25.8674 4.89427 25.5725 4.87495 25.2786V6.43402C4.87492 6.16542 4.92831 5.89943 5.032 5.65166C5.13569 5.40388 5.28763 5.17919 5.47896 4.99067C5.67029 4.80215 5.8972 4.65357 6.14649 4.55355C6.39578 4.45354 6.66247 4.4041 6.93104 4.40811L21.585 4.40817C22.1223 4.40817 22.6375 4.6216 23.0175 5.00153C23.3974 5.38145 23.6108 5.89673 23.6108 6.43402V25.2961L23.6108 25.2989C23.6141 25.8776 23.8462 26.4315 24.2565 26.8395C24.6669 27.2475 25.222 27.4766 25.8007 27.4766C26.3793 27.4766 26.9345 27.2475 27.3448 26.8395C27.7551 26.4315 27.9872 25.8776 27.9905 25.2989L27.9905 25.2961V6.43524C27.9944 5.59188 27.8317 4.75604 27.5117 3.97571C27.1916 3.19501 26.7204 2.48524 26.1252 1.88718C25.53 1.28912 24.8225 0.814544 24.0434 0.490719C23.2642 0.166894 22.4287 0.000198206 21.585 0.000207892H6.94011Z" fill="white"/>
	<path d="M139.367 23.5797C139.046 22.7968 138.883 21.9579 138.888 21.1116V6.46673C138.888 5.62296 139.055 4.7875 139.379 4.00834C139.702 3.22918 140.177 2.52167 140.775 1.92646C141.373 1.33125 142.083 0.860063 142.864 0.539968C143.644 0.220022 144.48 0.0573251 145.323 0.0612103L164.184 0.0612095L164.187 0.0612172C164.765 0.0644482 165.319 0.29659 165.727 0.70691C166.135 1.11724 166.364 1.67238 166.364 2.25103C166.364 2.8297 166.135 3.38485 165.727 3.79517C165.319 4.20549 164.765 4.43764 164.187 4.44087L164.184 4.44088L145.322 4.44088C144.785 4.44088 144.269 4.65431 143.889 5.03424C143.509 5.41415 143.296 5.92944 143.296 6.46673L143.296 21.1207C143.292 21.3892 143.341 21.6559 143.441 21.9052C143.541 22.1545 143.69 22.3814 143.878 22.5727C144.067 22.7641 144.292 22.916 144.539 23.0197C144.787 23.1234 145.053 23.1768 145.322 23.1767L164.166 23.1767C164.46 23.1574 164.755 23.1976 165.033 23.2949C165.318 23.3945 165.579 23.5517 165.8 23.7566C166.02 23.9616 166.197 24.21 166.317 24.4862C166.438 24.7624 166.5 25.0605 166.5 25.3619C166.5 25.6632 166.438 25.9613 166.317 26.2375C166.197 26.5138 166.02 26.7621 165.8 26.9671C165.579 27.1721 165.318 27.3293 165.033 27.4288C164.755 27.5261 164.46 27.5663 164.166 27.547H145.323C144.477 27.5522 143.638 27.3894 142.855 27.0681C142.072 26.7465 141.36 26.2726 140.761 25.6737C140.162 25.0749 139.689 24.3631 139.367 23.5797Z" fill="white"/>
	<path fill-rule="evenodd" clip-rule="evenodd" d="M97.4142 21.0504C97.409 21.8967 97.5718 22.7356 97.8932 23.5186C98.2147 24.302 98.6887 25.0138 99.2875 25.6126C99.8863 26.2114 100.598 26.6854 101.382 27.0069C102.164 27.3283 103.003 27.4911 103.85 27.4858H106.018C106.114 27.4921 106.21 27.4921 106.306 27.4858L116.135 27.4858C116.23 27.4921 116.326 27.4921 116.422 27.4858H118.591C119.28 27.4901 119.965 27.3828 120.618 27.1691V28.3462C120.622 28.6148 120.573 28.8815 120.473 29.1308C120.373 29.3801 120.224 29.607 120.036 29.7983C119.847 29.9897 119.622 30.1416 119.375 30.2453C119.127 30.349 118.861 30.4024 118.592 30.4023H111.406C111.113 30.383 110.818 30.4232 110.54 30.5205C110.255 30.6201 109.994 30.7772 109.773 30.9822C109.552 31.1872 109.376 31.4356 109.256 31.7118C109.135 31.988 109.073 32.2861 109.073 32.5874C109.073 32.8888 109.135 33.1869 109.256 33.4631C109.376 33.7393 109.552 33.9877 109.773 34.1927C109.994 34.3977 110.255 34.5548 110.54 34.6544C110.818 34.7517 111.113 34.7919 111.406 34.7726L118.591 34.7726C119.437 34.7778 120.276 34.615 121.059 34.2936C121.842 33.9721 122.554 33.4981 123.153 32.8993C123.752 32.3005 124.226 31.5887 124.547 30.8053C124.868 30.0224 125.031 29.1835 125.026 28.3372V21.1291C125.026 21.103 125.026 21.0766 125.026 21.0504V6.40559C125.026 5.56182 124.859 4.72636 124.535 3.9472C124.212 3.16804 123.737 2.46053 123.139 1.86532C122.541 1.27011 121.831 0.798922 121.051 0.478827C120.27 0.15888 119.434 -0.00381796 118.591 6.80018e-05H103.849C103.006 -0.00381796 102.17 0.15888 101.39 0.478827C100.609 0.798922 99.8993 1.27011 99.3012 1.86532C98.7032 2.46053 98.2286 3.16804 97.9048 3.9472C97.5809 4.72636 97.4142 5.56182 97.4142 6.40559V21.0504ZM120.473 21.8441C120.565 21.6141 120.614 21.3693 120.618 21.1219L120.618 6.40559C120.618 5.86829 120.405 5.35301 120.025 4.97309C119.645 4.59317 119.129 4.37973 118.592 4.37973H103.848C103.311 4.37973 102.795 4.59317 102.416 4.97309C102.036 5.35301 101.822 5.86829 101.822 6.40559L101.822 21.0595C101.818 21.3281 101.868 21.5948 101.968 21.8441C102.068 22.0934 102.216 22.3203 102.405 22.5116C102.593 22.7029 102.818 22.8549 103.066 22.9586C103.313 23.0623 103.579 23.1156 103.848 23.1156H106.018C106.114 23.1093 106.21 23.1093 106.306 23.1156H116.135C116.23 23.1093 116.326 23.1093 116.422 23.1156H118.592C118.861 23.1156 119.127 23.0623 119.375 22.9586C119.622 22.8549 119.847 22.7029 120.036 22.5116C120.224 22.3203 120.373 22.0934 120.473 21.8441Z" fill="white"/>
	<path d="M37.5595 2.41887C37.565 2.35416 37.5678 2.28865 37.5678 2.22247C37.5678 0.995032 36.5947 0 35.3673 0C34.1398 0 33.1448 0.995032 33.1448 2.22247C33.1448 2.28099 33.1471 2.33898 33.1515 2.39636V20.4608C33.1463 21.3071 33.3091 22.146 33.6304 22.929C33.952 23.7124 34.4259 24.4242 35.0247 25.023C35.6236 25.6218 36.3353 26.0957 37.1188 26.4173C37.9017 26.7387 38.7406 26.9014 39.5869 26.8962H58.4299C58.7238 26.9155 59.0187 26.8754 59.2968 26.778C59.5813 26.6785 59.8421 26.5213 60.063 26.3163C60.2839 26.1114 60.4601 25.863 60.5807 25.5868C60.7012 25.3106 60.7634 25.0125 60.7634 24.7111C60.7634 24.4098 60.7012 24.1116 60.5807 23.8354C60.4601 23.5592 60.2839 23.3109 60.063 23.1059C59.8421 22.9009 59.5813 22.7437 59.2968 22.6442C59.0187 22.5468 58.7238 22.5067 58.4299 22.526L39.5853 22.526C39.3167 22.526 39.0507 22.4726 38.8029 22.3689C38.5552 22.2652 38.3305 22.1133 38.142 21.922C37.9534 21.7307 37.8049 21.5037 37.7048 21.2544C37.6048 21.0052 37.5554 20.7385 37.5594 20.4699L37.5595 2.41887Z" fill="white"/>
	<path d="M132.464 0C131.216 0 130.205 1.01134 130.205 2.2589V24.9936C130.205 26.2412 131.216 27.2525 132.464 27.2525C133.711 27.2525 134.722 26.2412 134.722 24.9936V2.2589C134.722 1.01134 133.711 0 132.464 0Z" fill="white"/>
</svg>
