<?xml version="1.0" encoding="utf-8"?>
<!-- Generator: Adobe Illustrator 18.1.1, SVG Export Plug-In . SVG Version: 6.00 Build 0)  -->
<svg version="1.1" id="Layer_1" xmlns="http://www.w3.org/2000/svg" xmlns:xlink="http://www.w3.org/1999/xlink" x="0px" y="0px"
	 viewBox="0 0 200 56" enable-background="new 0 0 200 56" xml:space="preserve">
<g>
	<g>
		<g>
			<path fill="#FFFFFF" d="M31.6,32.7c-1.1,0-2.1-0.9-2.1-2.1V7.3c0-1.7-1.4-3.1-3.1-3.1H8.3c-1.7,0-3.1,1.4-3.1,3.1v23.3
				c0,1.1-0.9,2.1-2.1,2.1c-1.1,0-2.1-0.9-2.1-2.1V7.3C1,3.3,4.3,0,8.3,0h18.1c4,0,7.3,3.3,7.3,7.3v23.3
				C33.7,31.7,32.7,32.7,31.6,32.7z"/>
		</g>
		<g>
			<path fill="#FFFFFF" d="M70.5,32.7H47.2c-4,0-7.3-3.3-7.3-7.3V2.1C39.9,0.9,40.8,0,42,0c1.1,0,2.1,0.9,2.1,2.1v23.3
				c0,1.7,1.4,3.1,3.1,3.1h23.3c1.1,0,2.1,0.9,2.1,2.1C72.6,31.7,71.6,32.7,70.5,32.7z"/>
		</g>
		<g>
			<path fill="#FFFFFF" d="M104.2,32.7H86.1c-4,0-7.3-3.3-7.3-7.3V7.3c0-4,3.3-7.3,7.3-7.3h18.1c4,0,7.3,3.3,7.3,7.3v18.1
				C111.5,29.4,108.2,32.7,104.2,32.7z M86.1,4.2c-1.7,0-3.1,1.4-3.1,3.1v18.1c0,1.7,1.4,3.1,3.1,3.1h18.1c1.7,0,3.1-1.4,3.1-3.1
				V7.3c0-1.7-1.4-3.1-3.1-3.1H86.1z"/>
		</g>
		<g>
			<path fill="#FFFFFF" d="M143.1,32.7H125c-4,0-7.3-3.3-7.3-7.3V7.3c0-4,3.3-7.3,7.3-7.3h18.1c4,0,7.3,3.3,7.3,7.3v18.1
				C150.4,29.4,147.1,32.7,143.1,32.7z M125,4.2c-1.7,0-3.1,1.4-3.1,3.1v18.1c0,1.7,1.4,3.1,3.1,3.1h18.1c1.7,0,3.1-1.4,3.1-3.1V7.3
				c0-1.7-1.4-3.1-3.1-3.1H125z"/>
		</g>
		<g>
			<path fill="#FFFFFF" d="M158.5,32.7c-1.1,0-2.1-0.9-2.1-2.1V2.1c0-1.1,0.9-2.1,2.1-2.1c1.1,0,2.1,0.9,2.1,2.1v28.5
				C160.6,31.7,159.6,32.7,158.5,32.7z"/>
		</g>
		<g>
			<path fill="#FFFFFF" d="M197.5,32.7h-23.3c-4,0-7.3-3.3-7.3-7.3V7.3c0-4,3.3-7.3,7.3-7.3h23.3c1.1,0,2.1,0.9,2.1,2.1
				c0,1.1-0.9,2.1-2.1,2.1h-23.3c-1.7,0-3.1,1.4-3.1,3.1v18.1c0,1.7,1.4,3.1,3.1,3.1h23.3c1.1,0,2.1,0.9,2.1,2.1
				C199.6,31.7,198.7,32.7,197.5,32.7z"/>
		</g>
		<g>
			<path fill="#FFFFFF" d="M143.1,41h-7.8c-1.1,0-2.1-0.9-2.1-2.1c0-1.1,0.9-2.1,2.1-2.1h7.8c1.7,0,3.1-1.4,3.1-3.1V22.3
				c0-1.1,0.9-2.1,2.1-2.1c1.1,0,2.1,0.9,2.1,2.1v11.5C150.4,37.7,147.1,41,143.1,41z"/>
		</g>
	</g>
	<g>
		<path fill="#FFFFFF" d="M3.6,56c-0.9,0-1.6-0.1-2-0.1C1.2,55.8,1,55.7,1,55.3V48c0-0.4,0.1-0.6,0.5-0.6c0.3,0,1-0.1,1.9-0.1
			c2.1,0,3.5,0.6,3.5,2.3v0.2c0,0.8-0.4,1.4-1.1,1.7C6.6,51.9,7,52.5,7,53.3v0.2C7,55.3,5.7,56,3.6,56z M5.4,49.7
			c0-0.8-0.5-1.1-2-1.1c-0.3,0-0.6,0-0.8,0V51h1.5c1.1,0,1.4-0.5,1.4-1.1V49.7z M5.5,53.4c0-0.6-0.3-1.2-1.4-1.2H2.6v2.5
			c0.3,0,0.7,0,0.9,0c1.5,0,1.9-0.4,1.9-1.2V53.4z"/>
		<path fill="#FFFFFF" d="M13.3,56c-1.8,0-3.2-0.8-3.2-3.2v-5.1c0-0.1,0.1-0.2,0.2-0.2h1.1c0.1,0,0.2,0.1,0.2,0.2v5.1
			c0,1.3,0.3,1.9,1.6,1.9c1.2,0,1.6-0.6,1.6-1.9v-5.1c0-0.1,0.1-0.2,0.2-0.2h1.1c0.1,0,0.2,0.1,0.2,0.2v5.1
			C16.4,55.2,15.1,56,13.3,56z"/>
		<path fill="#FFFFFF" d="M21.2,55.9H20c-0.1,0-0.2-0.1-0.2-0.2v-8.1c0-0.1,0.1-0.2,0.2-0.2h1.1c0.1,0,0.2,0.1,0.2,0.2v8.1
			C21.4,55.8,21.3,55.9,21.2,55.9z"/>
		<path fill="#FFFFFF" d="M29.4,55.8c-0.3,0.1-1.3,0.2-1.9,0.2c-1.5,0-2.6-0.4-2.6-2.3v-6c0-0.1,0.1-0.2,0.2-0.2h1.1
			c0.1,0,0.2,0.1,0.2,0.2v6c0,0.8,0.2,1,0.9,1h2.1c0.1,0,0.2,0.1,0.2,0.2v0.7C29.7,55.8,29.6,55.8,29.4,55.8z"/>
		<path fill="#FFFFFF" d="M35,56c-0.8,0-1.9-0.1-2.3-0.1c-0.2,0-0.3-0.1-0.3-0.4v-7.7c0-0.2,0.1-0.3,0.3-0.4
			c0.3-0.1,1.4-0.1,2.3-0.1c2.3,0,3.6,1.2,3.6,3.5v1.7C38.6,54.8,37.3,56,35,56z M37,50.8c0-1.7-0.9-2.2-2-2.2c-0.4,0-0.7,0-1,0v5.9
			c0.2,0,0.5,0,1,0c1.1,0,2-0.4,2-2.2V50.8z"/>
		<path fill="#FFFFFF" d="M43.2,55.9h-1.1c-0.1,0-0.2-0.1-0.2-0.2v-8.1c0-0.1,0.1-0.2,0.2-0.2h1.1c0.1,0,0.2,0.1,0.2,0.2v8.1
			C43.4,55.8,43.3,55.9,43.2,55.9z"/>
		<path fill="#FFFFFF" d="M52.9,55.9h-1.2c-0.3,0-0.5,0-0.7-0.4l-2.5-5.6c0-0.1-0.1-0.1-0.1-0.1c0,0-0.1,0-0.1,0.1v5.8
			c0,0.1-0.1,0.2-0.2,0.2h-1c-0.1,0-0.2-0.1-0.2-0.2v-7.8c0-0.3,0.2-0.5,0.5-0.5h1.2c0.2,0,0.4,0.1,0.5,0.4l2.7,5.9
			c0,0.1,0.1,0.1,0.1,0.1c0,0,0.1,0,0.1-0.1v-6c0-0.1,0.1-0.2,0.2-0.2h1c0.1,0,0.2,0.1,0.2,0.2v7.8C53.3,55.7,53.1,55.9,52.9,55.9z"
			/>
		<path fill="#FFFFFF" d="M62.1,55.8c-0.6,0.1-1.3,0.2-2.5,0.2c-1.2,0-3.1-0.8-3.1-3.5v-1.6c0-2.7,1.7-3.5,3.1-3.5
			c1.1,0,2.1,0.1,2.5,0.2c0.1,0,0.2,0.1,0.2,0.2v0.8c0,0.2,0,0.2-0.2,0.2c0,0,0,0,0,0c-0.5,0-1.3-0.1-2.4-0.1
			c-0.8,0-1.5,0.5-1.5,2.2v1.6c0,1.6,0.8,2.2,1.5,2.2c0.4,0,0.8,0,1.1,0v-2.9c0-0.1,0.1-0.2,0.2-0.2h1.1c0.1,0,0.2,0.1,0.2,0.2v3.8
			C62.3,55.7,62.2,55.8,62.1,55.8z"/>
		<path fill="#FFFFFF" d="M75.6,48.7h-2v7c0,0.1-0.1,0.2-0.2,0.2h-1.1c-0.1,0-0.2-0.1-0.2-0.2v-7h-2c-0.1,0-0.2-0.1-0.2-0.2v-0.9
			c0-0.1,0.1-0.2,0.2-0.2h5.6c0.1,0,0.2,0.1,0.2,0.2v0.9C75.8,48.6,75.7,48.7,75.6,48.7z"/>
		<path fill="#FFFFFF" d="M84.9,55.9h-1.1c-0.1,0-0.2-0.1-0.2-0.2v-3.5h-3.3v3.5c0,0.1-0.1,0.2-0.2,0.2h-1.1c-0.1,0-0.2-0.1-0.2-0.2
			v-8.1c0-0.1,0.1-0.2,0.2-0.2H80c0.1,0,0.2,0.1,0.2,0.2v3.2h3.3v-3.2c0-0.1,0.1-0.2,0.2-0.2h1.1c0.1,0,0.2,0.1,0.2,0.2v8.1
			C85.1,55.8,85,55.9,84.9,55.9z"/>
		<path fill="#FFFFFF" d="M93.4,55.8C93,55.9,92.6,56,91.2,56c-1.5,0-2.6-0.4-2.6-2.3v-4c0-1.9,1.2-2.3,2.6-2.3
			c1.4,0,1.8,0.1,2.2,0.2c0.2,0,0.2,0.1,0.2,0.2v0.7c0,0.1-0.1,0.2-0.2,0.2H91c-0.7,0-0.9,0.2-0.9,1v1.2h3.1c0.1,0,0.2,0.1,0.2,0.2
			v0.8c0,0.1-0.1,0.2-0.2,0.2h-3.1v1.5c0,0.8,0.2,1,0.9,1h2.3c0.1,0,0.2,0.1,0.2,0.2v0.7C93.6,55.8,93.6,55.8,93.4,55.8z"/>
		<path fill="#FFFFFF" d="M107.4,55.9h-1.2c-0.3,0-0.5,0-0.7-0.4l-2.5-5.6c0-0.1-0.1-0.1-0.1-0.1c0,0-0.1,0-0.1,0.1v5.8
			c0,0.1-0.1,0.2-0.2,0.2h-1c-0.1,0-0.2-0.1-0.2-0.2v-7.8c0-0.3,0.2-0.5,0.5-0.5h1.2c0.2,0,0.4,0.1,0.5,0.4l2.7,5.9
			c0,0.1,0.1,0.1,0.1,0.1c0,0,0.1,0,0.1-0.1v-6c0-0.1,0.1-0.2,0.2-0.2h1c0.1,0,0.2,0.1,0.2,0.2v7.8
			C107.9,55.7,107.7,55.9,107.4,55.9z"/>
		<path fill="#FFFFFF" d="M116.2,55.8c-0.4,0.1-0.8,0.2-2.2,0.2c-1.5,0-2.6-0.4-2.6-2.3v-4c0-1.9,1.2-2.3,2.6-2.3
			c1.4,0,1.8,0.1,2.2,0.2c0.2,0,0.2,0.1,0.2,0.2v0.7c0,0.1-0.1,0.2-0.2,0.2h-2.3c-0.7,0-0.9,0.2-0.9,1v1.2h3.1
			c0.1,0,0.2,0.1,0.2,0.2v0.8c0,0.1-0.1,0.2-0.2,0.2h-3.1v1.5c0,0.8,0.2,1,0.9,1h2.3c0.1,0,0.2,0.1,0.2,0.2v0.7
			C116.4,55.8,116.3,55.8,116.2,55.8z"/>
		<path fill="#FFFFFF" d="M128.4,47.6l-1.1,7.5c-0.1,0.7-0.4,0.9-1,0.9h-0.6c-0.5,0-0.8-0.3-1-0.9l-0.9-3.8c0-0.1,0-0.1-0.1-0.1
			c0,0-0.1,0-0.1,0.1l-0.9,3.8c-0.2,0.7-0.4,0.9-1,0.9h-0.6c-0.6,0-0.9-0.2-1-0.9l-1.1-7.5c0,0,0,0,0,0c0-0.1,0.1-0.2,0.2-0.2h1.2
			c0.1,0,0.2,0.1,0.2,0.2l0.8,6.8c0,0.1,0,0.2,0.1,0.2c0,0,0-0.1,0.1-0.2l1-4c0.1-0.3,0.2-0.5,0.7-0.5h0.8c0.5,0,0.7,0.2,0.7,0.5
			l1,4c0,0.1,0,0.2,0.1,0.2c0,0,0-0.1,0.1-0.2l0.8-6.8c0-0.1,0.1-0.2,0.2-0.2h1.2C128.3,47.4,128.4,47.5,128.4,47.6
			C128.4,47.6,128.4,47.6,128.4,47.6z"/>
		<path fill="#FFFFFF" d="M141.8,55.9h-1.2c-0.3,0-0.5,0-0.7-0.4l-2.5-5.6c0-0.1-0.1-0.1-0.1-0.1c0,0-0.1,0-0.1,0.1v5.8
			c0,0.1-0.1,0.2-0.2,0.2h-1c-0.1,0-0.2-0.1-0.2-0.2v-7.8c0-0.3,0.2-0.5,0.5-0.5h1.2c0.2,0,0.4,0.1,0.5,0.4l2.7,5.9
			c0,0.1,0.1,0.1,0.1,0.1c0,0,0.1,0,0.1-0.1v-6c0-0.1,0.1-0.2,0.2-0.2h1c0.1,0,0.2,0.1,0.2,0.2v7.8
			C142.3,55.7,142.1,55.9,141.8,55.9z"/>
		<path fill="#FFFFFF" d="M150.5,55.8c-0.4,0.1-0.8,0.2-2.2,0.2c-1.5,0-2.6-0.4-2.6-2.3v-4c0-1.9,1.2-2.3,2.6-2.3
			c1.4,0,1.8,0.1,2.2,0.2c0.2,0,0.2,0.1,0.2,0.2v0.7c0,0.1-0.1,0.2-0.2,0.2h-2.3c-0.7,0-0.9,0.2-0.9,1v1.2h3.1
			c0.1,0,0.2,0.1,0.2,0.2v0.8c0,0.1-0.1,0.2-0.2,0.2h-3.1v1.5c0,0.8,0.2,1,0.9,1h2.3c0.1,0,0.2,0.1,0.2,0.2v0.7
			C150.8,55.8,150.7,55.8,150.5,55.8z"/>
		<path fill="#FFFFFF" d="M159.3,48.7h-2v7c0,0.1-0.1,0.2-0.2,0.2h-1.1c-0.1,0-0.2-0.1-0.2-0.2v-7h-2c-0.1,0-0.2-0.1-0.2-0.2v-0.9
			c0-0.1,0.1-0.2,0.2-0.2h5.6c0.1,0,0.2,0.1,0.2,0.2v0.9C159.5,48.6,159.4,48.7,159.3,48.7z"/>
		<path fill="#FFFFFF" d="M171.1,47.6l-1.1,7.5c-0.1,0.7-0.4,0.9-1,0.9h-0.6c-0.5,0-0.8-0.3-1-0.9l-0.9-3.8c0-0.1,0-0.1-0.1-0.1
			s-0.1,0-0.1,0.1l-0.9,3.8c-0.2,0.7-0.4,0.9-1,0.9h-0.6c-0.6,0-0.9-0.2-1-0.9l-1.1-7.5c0,0,0,0,0,0c0-0.1,0.1-0.2,0.2-0.2h1.2
			c0.1,0,0.2,0.1,0.2,0.2l0.8,6.8c0,0.1,0,0.2,0.1,0.2c0,0,0-0.1,0.1-0.2l1-4c0.1-0.3,0.2-0.5,0.7-0.5h0.8c0.5,0,0.7,0.2,0.7,0.5
			l1,4c0,0.1,0,0.2,0.1,0.2c0,0,0-0.1,0.1-0.2l0.8-6.8c0-0.1,0.1-0.2,0.2-0.2h1.2C171,47.4,171.1,47.5,171.1,47.6
			C171.1,47.6,171.1,47.6,171.1,47.6z"/>
		<path fill="#FFFFFF" d="M176.9,56c-1.9,0-3.3-1.1-3.3-3.6v-1.5c0-2.5,1.4-3.6,3.3-3.6c1.9,0,3.3,1.1,3.3,3.6v1.5
			C180.2,54.9,178.8,56,176.9,56z M178.6,50.9c0-1.5-0.5-2.2-1.7-2.2s-1.7,0.7-1.7,2.2v1.5c0,1.5,0.5,2.2,1.7,2.2s1.7-0.7,1.7-2.2
			V50.9z"/>
		<path fill="#FFFFFF" d="M189.4,55.9H188c-0.1,0-0.2-0.1-0.2-0.2l-1.7-3.1H186c-0.3,0-0.8,0-1,0v3.1c0,0.1-0.1,0.2-0.2,0.2h-1.1
			c-0.1,0-0.2-0.1-0.2-0.2v-7.9c0-0.2,0.1-0.3,0.4-0.3c0.6-0.1,1.4-0.1,2.2-0.1c1.8,0,3.3,0.6,3.3,2.6V50c0,1.2-0.6,2-1.5,2.3
			l1.8,3.3c0,0,0,0.1,0,0.1C189.6,55.9,189.5,55.9,189.4,55.9z M187.7,49.9c0-0.9-0.6-1.2-1.7-1.2c-0.2,0-0.8,0-1,0v2.6
			c0.2,0,0.8,0,1,0c1.2,0,1.7-0.3,1.7-1.3V49.9z"/>
		<path fill="#FFFFFF" d="M198.6,55.9h-1.5c-0.1,0-0.2,0-0.3-0.1l-2.6-3.9v3.8c0,0.1-0.1,0.2-0.2,0.2h-1.1c-0.1,0-0.2-0.1-0.2-0.2
			v-8.1c0-0.1,0.1-0.2,0.2-0.2h1.1c0.1,0,0.2,0.1,0.2,0.2v3.6l2.8-3.8c0.1-0.1,0.1-0.1,0.3-0.1h1.3c0.1,0,0.2,0.1,0.2,0.1
			c0,0.1,0,0.1-0.1,0.2l-2.9,3.8l3,4.1c0,0.1,0.1,0.1,0.1,0.1C198.8,55.9,198.7,55.9,198.6,55.9z"/>
	</g>
</g>
</svg>
