<?xml version="1.0" encoding="UTF-8" standalone="no"?>
<!-- Created with Inkscape (http://www.inkscape.org/) -->

<svg
   width="207.40793mm"
   height="58.208401mm"
   viewBox="0 0 207.40793 58.208401"
   version="1.1"
   id="svg1"
   xmlns="http://www.w3.org/2000/svg"
   xmlns:svg="http://www.w3.org/2000/svg">
  <defs
     id="defs1">
    <clipPath
       clipPathUnits="userSpaceOnUse"
       id="clipPath4">
      <path
         d="M 0,1080 H 1920 V 0 H 0 Z"
         transform="translate(-912.0118,-499.11041)"
         id="path4" />
    </clipPath>
    <clipPath
       clipPathUnits="userSpaceOnUse"
       id="clipPath6">
      <path
         d="M 0,1080 H 1920 V 0 H 0 Z"
         transform="translate(-1127.0242,-458.29901)"
         id="path6" />
    </clipPath>
    <clipPath
       clipPathUnits="userSpaceOnUse"
       id="clipPath8">
      <path
         d="M 0,1080 H 1920 V 0 H 0 Z"
         transform="translate(-1228.8573,-511.59712)"
         id="path8" />
    </clipPath>
    <clipPath
       clipPathUnits="userSpaceOnUse"
       id="clipPath10">
      <path
         d="M 0,1080 H 1920 V 0 H 0 Z"
         transform="translate(-1114.8676,-458.30071)"
         id="path10" />
    </clipPath>
    <clipPath
       clipPathUnits="userSpaceOnUse"
       id="clipPath12">
      <path
         d="M 0,1080 H 1920 V 0 H 0 Z"
         transform="translate(-971.77855,-487.98711)"
         id="path12" />
    </clipPath>
    <clipPath
       clipPathUnits="userSpaceOnUse"
       id="clipPath14">
      <path
         d="M 0,1080 H 1920 V 0 H 0 Z"
         transform="translate(-1251.2944,-529.63972)"
         id="path14" />
    </clipPath>
    <clipPath
       clipPathUnits="userSpaceOnUse"
       id="clipPath16">
      <path
         d="M 0,1080 H 1920 V 0 H 0 Z"
         id="path16" />
    </clipPath>
    <clipPath
       clipPathUnits="userSpaceOnUse"
       id="clipPath18">
      <path
         d="M 0,1080 H 1920 V 0 H 0 Z"
         transform="translate(-1029.5016,-583.51822)"
         id="path18" />
    </clipPath>
    <clipPath
       clipPathUnits="userSpaceOnUse"
       id="clipPath20">
      <path
         d="M 0,1080 H 1920 V 0 H 0 Z"
         transform="translate(-912.67945,-587.70562)"
         id="path20" />
    </clipPath>
    <clipPath
       clipPathUnits="userSpaceOnUse"
       id="clipPath22">
      <path
         d="M 0,1080 H 1920 V 0 H 0 Z"
         transform="translate(-1048.4634,-621.23582)"
         id="path22" />
    </clipPath>
  </defs>
  <g
     id="layer1"
     transform="translate(-1.6549134,-119.77612)">
    <g
       id="g1"
       style="fill:#ffffff">
      <path
         id="path1"
         d="m 36.498113,119.89331 -34.8431996,16.1353 8.6815996,33.0398 6.6075,-0.8114 -1.8172,-20.773 2.1714,-0.9666 3.7444,21.2362 11.2934,-1.3864 -2.0059,-22.9299 2.1467,-0.956 4.1194,23.3627 11.4243,-1.4026 -2.1988,-25.1347 2.1731,-0.9677 4.5057,25.552 11.2931,-1.3864 v -35.7752 z"
         style="fill:#ffffff;fill-opacity:1;fill-rule:nonzero;stroke:none;stroke-width:0.352778" />
      <path
         id="path2"
         d="m 37.317413,170.00441 0.5736,3.2526 25.9027,4.3184 v -10.8218 l -26.464,3.2494 z"
         style="fill:#ffffff;fill-opacity:1;fill-rule:nonzero;stroke:none;stroke-width:0.352778" />
      <path
         id="path3"
         d="m 0,0 v -12.634 h 15.567 c -0.062,-2.785 -0.697,-5.224 -1.921,-7.31 -1.288,-2.199 -3.155,-3.9 -5.598,-5.103 -2.444,-1.203 -5.41,-1.805 -8.895,-1.805 -3.881,0 -7.214,0.934 -10.002,2.801 -2.787,1.864 -4.935,4.578 -6.444,8.138 -1.511,3.56 -2.266,7.87 -2.266,12.93 0,5.032 0.773,9.305 2.321,12.817 1.546,3.512 3.713,6.195 6.5,8.048 2.787,1.855 6.059,2.782 9.817,2.782 1.939,0 3.727,-0.24 5.358,-0.719 1.634,-0.478 3.076,-1.173 4.329,-2.081 1.252,-0.907 2.314,-2.008 3.186,-3.296 0.872,-1.289 1.553,-2.768 2.044,-4.439 h 17.275 c -0.491,3.733 -1.645,7.158 -3.463,10.277 -1.816,3.117 -4.167,5.819 -7.053,8.103 -2.885,2.284 -6.189,4.045 -9.908,5.286 -3.72,1.24 -7.741,1.86 -12.063,1.86 -5.009,0 -9.675,-0.865 -13.996,-2.597 -4.324,-1.731 -8.11,-4.267 -11.364,-7.606 -3.255,-3.341 -5.789,-7.41 -7.607,-12.21 C -36,8.44 -36.908,2.958 -36.908,-3.205 c 0,-7.955 1.51,-14.819 4.532,-20.59 3.018,-5.77 7.231,-10.221 12.632,-13.352 5.402,-3.131 11.664,-4.696 18.786,-4.696 6.408,0 12.093,1.283 17.054,3.849 4.96,2.566 8.851,6.244 11.677,11.031 2.822,4.79 4.234,10.522 4.234,17.201 V 0 Z"
         style="fill:#ffffff;fill-opacity:1;fill-rule:nonzero;stroke:none"
         transform="matrix(0.35277776,0,0,-0.35277776,88.294513,163.22311)"
         clip-path="url(#clipPath4)" />
      <path
         id="path5"
         d="M 0,0 V 75.435 H 51.677 V 61.476 H 17.054 V 44.716 H 45.041 V 30.756 H 17.054 V 13.959 H 51.751 V 0 Z"
         style="fill:#ffffff;fill-opacity:1;fill-rule:nonzero;stroke:none"
         transform="matrix(0.35277776,0,0,-0.35277776,164.14611,177.62051)"
         clip-path="url(#clipPath6)" />
      <path
         id="path7"
         d="m 0,0 c -0.27,2.848 -1.449,5.065 -3.537,6.648 -2.086,1.584 -4.984,2.376 -8.692,2.376 -2.48,0 -4.566,-0.344 -6.262,-1.031 -1.693,-0.688 -2.971,-1.615 -3.83,-2.781 -0.86,-1.167 -1.301,-2.499 -1.326,-3.996 -0.024,-1.253 0.239,-2.351 0.793,-3.297 0.552,-0.946 1.348,-1.763 2.393,-2.45 1.043,-0.688 2.277,-1.283 3.703,-1.786 1.422,-0.503 2.97,-0.939 4.64,-1.308 l 6.629,-1.547 c 3.487,-0.761 6.636,-1.786 9.448,-3.075 2.813,-1.29 5.213,-2.849 7.202,-4.677 1.989,-1.83 3.518,-3.961 4.586,-6.391 1.068,-2.432 1.602,-5.194 1.602,-8.288 0,-4.691 -1.179,-8.729 -3.537,-12.118 -2.356,-3.39 -5.739,-6.004 -10.148,-7.845 -4.407,-1.843 -9.718,-2.764 -15.93,-2.764 -6.188,0 -11.578,0.939 -16.169,2.817 -4.592,1.88 -8.166,4.703 -10.72,8.473 -2.554,3.77 -3.89,8.477 -4.014,14.125 h 16.427 c 0.148,-2.48 0.836,-4.548 2.063,-6.207 1.228,-1.656 2.891,-2.902 4.991,-3.738 2.099,-0.835 4.513,-1.252 7.238,-1.252 2.579,0 4.801,0.362 6.668,1.086 1.865,0.725 3.308,1.733 4.328,3.021 1.018,1.289 1.54,2.782 1.565,4.476 -0.025,1.546 -0.498,2.866 -1.419,3.959 -0.921,1.092 -2.301,2.033 -4.144,2.817 -1.841,0.787 -4.137,1.498 -6.887,2.137 l -8.067,1.952 c -6.433,1.523 -11.511,3.941 -15.23,7.256 -3.72,3.316 -5.568,7.797 -5.545,13.445 -0.023,4.617 1.216,8.655 3.722,12.118 2.503,3.463 5.948,6.163 10.332,8.103 4.382,1.941 9.386,2.91 15.009,2.91 5.697,0 10.669,-0.969 14.917,-2.91 4.248,-1.94 7.551,-4.653 9.909,-8.14 C 15.065,8.632 16.269,4.592 16.317,0 Z"
         style="fill:#ffffff;fill-opacity:1;fill-rule:nonzero;stroke:none"
         transform="matrix(0.35277776,0,0,-0.35277776,200.07051,158.81811)"
         clip-path="url(#clipPath8)" />
      <path
         id="path9"
         d="m 0,0 h -16.872 v 57.349 l -1.73,0.022 L -35.641,0 h -16.854 l -16.582,57.371 -2.151,-0.022 V 0 h -16.874 v 75.434 h 28.677 l 14.48,-50.552 h 1.752 l 14.479,50.552 H 0 Z"
         style="fill:#ffffff;fill-opacity:1;fill-rule:nonzero;stroke:none"
         transform="matrix(0.35277776,0,0,-0.35277776,159.85751,177.61991)"
         clip-path="url(#clipPath10)" />
      <path
         id="path11"
         d="m 0,0 8.242,27.662 h 3.096 L 19.581,0 Z M 28.429,-29.688 H 46.698 L 21.37,45.747 H -1.788 l -25.364,-75.435 h 18.306 l 4.928,16.539 H 23.5 Z"
         style="fill:#ffffff;fill-opacity:1;fill-rule:nonzero;stroke:none"
         transform="matrix(0.35277776,0,0,-0.35277776,109.37891,167.14721)"
         clip-path="url(#clipPath12)" />
      <path
         id="path13"
         d="M 0,0 0.812,-1.684 H -0.289 L -1.036,0 Z m -2.391,-1.684 v 3.676 h 1.778 c 0.259,0 0.489,-0.049 0.69,-0.149 C 0.278,1.743 0.434,1.602 0.545,1.42 0.657,1.237 0.712,1.018 0.712,0.762 0.712,0.503 0.654,0.283 0.538,0.102 0.422,-0.079 0.261,-0.217 0.057,-0.311 -0.147,-0.406 -0.382,-0.453 -0.648,-0.453 h -1.195 v 0.722 h 1.006 c 0.15,0 0.271,0.042 0.364,0.125 0.093,0.082 0.139,0.205 0.139,0.368 0,0.169 -0.046,0.293 -0.139,0.371 -0.093,0.078 -0.213,0.117 -0.359,0.117 h -0.553 v -2.934 z m 1.46,-1.105 c 0.537,0 1.026,0.13 1.464,0.391 0.438,0.26 0.788,0.61 1.048,1.048 0.261,0.439 0.392,0.925 0.392,1.46 0,0.534 -0.131,1.021 -0.392,1.459 C 1.321,2.007 0.97,2.357 0.531,2.618 0.09,2.878 -0.397,3.009 -0.931,3.009 -1.466,3.009 -1.953,2.878 -2.391,2.618 -2.829,2.357 -3.179,2.007 -3.439,1.569 -3.7,1.131 -3.83,0.644 -3.83,0.11 c 0,-0.535 0.13,-1.021 0.391,-1.46 0.26,-0.438 0.61,-0.788 1.048,-1.048 0.438,-0.261 0.925,-0.391 1.46,-0.391 m 0,-1.086 c -0.552,0 -1.068,0.103 -1.55,0.309 -0.481,0.205 -0.905,0.491 -1.27,0.856 -0.365,0.366 -0.651,0.789 -0.857,1.271 -0.205,0.481 -0.308,0.997 -0.308,1.549 0,0.551 0.103,1.067 0.308,1.549 0.206,0.481 0.492,0.905 0.857,1.27 0.365,0.365 0.789,0.651 1.27,0.857 0.482,0.206 0.998,0.308 1.55,0.308 0.551,0 1.067,-0.102 1.549,-0.308 C 1.099,3.58 1.522,3.294 1.888,2.929 2.253,2.564 2.539,2.14 2.745,1.659 2.95,1.177 3.053,0.661 3.053,0.11 3.053,-0.442 2.95,-0.958 2.745,-1.439 2.539,-1.921 2.253,-2.344 1.888,-2.71 1.522,-3.075 1.099,-3.361 0.618,-3.566 0.136,-3.772 -0.38,-3.875 -0.931,-3.875"
         style="fill:#ffffff;fill-opacity:1;fill-rule:nonzero;stroke:none"
         transform="matrix(0.35277776,0,0,-0.35277776,207.98581,152.45311)"
         clip-path="url(#clipPath14)" />
      <path
         id="path15"
         d="m 948.825,545.801 h 17.053 v 75.435 h -17.053 z"
         style="fill:#ffffff;fill-opacity:1;fill-rule:nonzero;stroke:none"
         transform="matrix(0.35277776,0,0,-0.35277776,-233.44299,339.29821)"
         clip-path="url(#clipPath16)" />
      <path
         id="path17"
         d="m 0,0 c 0,5.132 -0.743,9.46 -2.229,12.983 -1.486,3.524 -3.597,6.2 -6.335,8.03 -2.737,1.829 -5.986,2.745 -9.742,2.745 -3.733,0 -6.968,-0.916 -9.705,-2.745 -2.739,-1.83 -4.857,-4.506 -6.354,-8.03 -1.5,-3.523 -2.247,-7.851 -2.247,-12.983 0,-5.133 0.747,-9.46 2.247,-12.983 1.497,-3.525 3.615,-6.202 6.354,-8.03 2.737,-1.83 5.972,-2.745 9.705,-2.745 3.756,0 7.005,0.915 9.742,2.745 2.738,1.828 4.849,4.505 6.335,8.03 C -0.743,-9.46 0,-5.133 0,0 m 17.349,0 c 0,-8.276 -1.572,-15.293 -4.714,-21.05 -3.145,-5.759 -7.404,-10.147 -12.782,-13.168 -5.379,-3.02 -11.431,-4.531 -18.159,-4.531 -6.728,0 -12.781,1.516 -18.159,4.55 -5.378,3.032 -9.639,7.432 -12.782,13.204 -3.143,5.769 -4.714,12.768 -4.714,20.995 0,8.274 1.571,15.291 4.714,21.05 3.143,5.759 7.404,10.147 12.782,13.168 5.378,3.02 11.431,4.531 18.159,4.531 6.728,0 12.78,-1.511 18.159,-4.531 C 5.231,31.197 9.49,26.809 12.635,21.05 15.777,15.291 17.349,8.274 17.349,0"
         style="fill:#ffffff;fill-opacity:1;fill-rule:nonzero;stroke:none"
         transform="matrix(0.35277776,0,0,-0.35277776,129.74231,133.44591)"
         clip-path="url(#clipPath18)" />
      <path
         id="path19"
         d="m 0,0 c -1.94,-0.787 -4.359,-1.179 -7.256,-1.179 h -9.945 v 20.86 h 9.908 c 2.897,0 5.316,-0.412 7.256,-1.234 1.94,-0.823 3.408,-2.058 4.402,-3.701 C 5.36,13.099 5.856,11.511 5.856,9.104 5.856,6.696 5.365,5.138 4.384,3.555 3.401,1.97 1.939,0.785 0,0 M 0.317,-15.606 9.076,-41.905 H 27.788 L 18.05,-13.577 H 4.818 l -0.791,2.44 c 2.527,0.491 6.832,1.251 10.65,3.849 4.924,3.347 8.747,9.319 8.749,16.389 v 0.003 c 0,5.058 -1.087,9.018 -3.26,12.751 -2.173,3.731 -5.291,6.611 -9.356,8.636 -4.063,2.026 -8.944,3.039 -14.64,3.039 h -30.425 v -75.435 h 17.054 v 26.299 z"
         style="fill:#ffffff;fill-opacity:1;fill-rule:nonzero;stroke:none"
         transform="matrix(0.35277776,0,0,-0.35277776,88.530013,131.96871)"
         clip-path="url(#clipPath20)" />
      <path
         id="path21"
         d="m 0,0 v -13.956 h 19.663 v -0.003 h 9.636 l 0.793,-2.442 c -2.478,-0.481 -6.666,-1.226 -10.429,-3.703 v -55.308 h 16.829 v 61.456 H 56.118 V 0 Z"
         style="fill:#ffffff;fill-opacity:1;fill-rule:nonzero;stroke:none"
         transform="matrix(0.35277776,0,0,-0.35277776,136.43161,120.14001)"
         clip-path="url(#clipPath22)" />
    </g>
  </g>
</svg>
