<svg width="535.7" height="212.6" xmlns="http://www.w3.org/2000/svg" version="1.1">
 <!-- Generator: Adobe Illustrator 30.2.1, SVG Export Plug-In . SVG Version: 2.1.1 Build 1)  -->

 <g>
  <title>Layer 1</title>
  <path id="svg_1" fill="#000000" d="m285.8,150.6c-0.2,-0.2 -0.3,-0.3 -0.5,-0.5c-0.1,-0.1 -0.3,-0.3 -0.4,-0.4l0,24.6c-0.3,11.8 -4.3,21.2 -11.9,28.2c-7.4,6.7 -17.2,10.2 -29,10.2s-14.6,-1.5 -20.7,-4.6c-3.4,-1.7 -6.5,-3.9 -9.1,-6.4c-0.2,-0.2 -0.3,-0.3 -0.5,-0.5c-0.2,-0.2 -59.5,-58.2 -59.6,-58.4c-0.1,0 -0.2,-0.2 -0.3,-0.3l0,9.9c0,7.3 -5.9,13.2 -13.2,13.2s-7.1,-1.6 -9.5,-4.1c-0.2,-0.2 -3.5,-3.5 -3.6,-3.6c-0.1,0 -0.2,-0.2 -0.3,-0.3c-3.4,5 -8,9 -13.7,11.8c-6.1,3.1 -13,4.6 -20.7,4.6c-11.8,0 -21.6,-3.4 -29,-10.2c-0.6,-0.5 -1.1,-1 -1.6,-1.6c-0.2,-0.2 -51.2,-51.1 -51.3,-51.3c-7,-7 -10.6,-16.1 -10.9,-27.2l0,-0.2s0,-70.4 0,-70.4c0,-7.2 5.9,-13.1 13.1,-13.1s7.1,1.6 9.5,4.1c0.2,0.2 0.4,0.3 0.5,0.5c0,0 32,32 32.1,32.1c0.1,0 0.2,0.2 0.3,0.3l0,-7.3c0,-7.3 5.9,-13.2 13.2,-13.2s7.1,1.6 9.5,4.1c0.2,0.2 0.4,0.3 0.5,0.5l13,13c0.1,0.1 0.2,0.2 0.4,0.3c1.2,-0.8 2.4,-1.5 3.8,-2.2c6.1,-3.1 13,-4.6 20.7,-4.6c11.8,0 21.6,3.4 29,10.2c0.6,0.5 9.9,9.9 9.9,9.9c0,0 0.1,0 0.2,0.2c0.3,-0.5 0.5,-1.1 0.9,-1.6c3.5,-6 8.6,-10.7 15,-13.9c6.1,-3.1 13,-4.6 20.7,-4.6c11.8,0 21.6,3.4 29,10.2c0.6,0.5 15.6,15.6 15.6,15.6c0.1,0.1 0.3,0.2 0.4,0.4l0,-33.9c0,-11.1 9,-20.1 20.1,-20.1s10.8,2.4 14.5,6.2l9.8,9.8s0,0 0,0c0.8,-3.9 2.6,-7.4 5.5,-10.3c0.8,-0.8 1.7,-1.5 2.7,-2.2c3.4,-2.4 7.4,-3.7 11.6,-3.7s10.8,2.3 14.6,6.3c0.2,0.2 0.3,0.3 0.5,0.5c0.2,0.2 23.3,23.3 23.3,23.3c0.2,0.2 0.3,0.3 0.5,0.5c0,0 0,0 0,0l0,-10.5c0,-11.1 9,-20.1 20.1,-20.1s10.8,2.4 14.5,6.2c0.2,0.2 0.3,0.3 0.5,0.5l9.3,9.3s0,0 0,0c0.8,-3.9 2.7,-7.4 5.5,-10.2c0.8,-0.8 1.7,-1.5 2.7,-2.2c3.4,-2.4 7.4,-3.7 11.6,-3.7s10.8,2.3 14.6,6.3c0.2,0.2 0.3,0.3 0.5,0.5l23.3,23.3c0.2,0.2 0.3,0.3 0.5,0.5c0,0 0,0 0,0l0,-10.5c0,-11.1 9,-20.1 20.1,-20.1s10.8,2.4 14.5,6.2c0.2,0.2 50.6,50.6 50.8,50.8c0.2,0.2 0.3,0.3 0.5,0.5c3.8,3.7 6.2,8.8 6.2,14.5l0,90.1c0,12 -7.9,20.1 -19.6,20.1s-10.1,-1.7 -14.1,-5.8c-0.2,-0.2 -0.3,-0.3 -0.5,-0.5c-0.2,-0.2 -24.7,-24.7 -24.9,-24.9c-0.2,-0.2 -0.3,-0.3 -0.5,-0.5c0,0 -0.2,-0.1 -0.2,-0.2c-2.4,8.5 -10.1,14.8 -19.4,14.8s-10.8,-2.4 -14.5,-6.2c-0.2,-0.2 -8.6,-8.6 -8.8,-8.8c-0.2,-0.2 -0.3,-0.3 -0.5,-0.5c0,0 -0.1,-0.1 -0.2,-0.2l0,12.7c0,12 -7.9,20.1 -19.6,20.1s-10.1,-1.7 -14.1,-5.8c-0.2,-0.2 -0.3,-0.3 -0.5,-0.5c-0.2,-0.2 -0.3,-0.3 -0.5,-0.5c-0.2,-0.2 -24.2,-24.2 -24.4,-24.4c-0.2,-0.2 -0.3,-0.3 -0.5,-0.5c0,0 -0.1,-0.1 -0.2,-0.2c-2.4,8.5 -10.1,14.8 -19.4,14.8s-10.8,-2.4 -14.5,-6.2c-0.2,-0.2 -0.3,-0.3 -0.5,-0.5c-0.2,-0.2 -8.6,-8.6 -8.8,-8.8c-0.2,-0.2 -0.3,-0.3 -0.5,-0.5c-1.7,9.4 -9.9,16.6 -19.8,16.6s-10.8,-2.4 -14.5,-6.2c-0.2,-0.2 -0.3,-0.3 -0.5,-0.5l-8.3,-8.3l0,0.2z" class="st1"/>
  <g id="svg_2">
   <path id="svg_3" fill="#fff" d="m359.3,8.3c-6.1,0.6 -10.7,6 -10.7,12.1l0,46.8c0,1 -1.3,1.4 -1.9,0.6c-7.4,-11.4 -33.9,-52.3 -35.9,-54.8c-2.2,-2.9 -5.6,-4.7 -9.4,-4.7s-4.9,0.8 -6.9,2.2c-0.5,0.3 -1,0.7 -1.5,1.2c-2.3,2.3 -3.5,5.4 -3.5,8.4c0,0 0,0 0,0l0,72.6c0,6.2 4.6,11.6 10.7,12.1c7,0.7 13,-4.9 13,-11.8l0,-30.1c0,-1 1.3,-1.4 1.9,-0.6c7.3,11.1 33,50.5 36,54.4c3.3,4.2 5.7,5.3 9.9,5.3c6.5,0 11.3,-3.7 11.3,-11.8l0,-90.1c0,-6.9 -5.9,-12.5 -13,-11.8z" class="st0"/>
   <path id="svg_4" fill="#fff" d="m257.2,8.3c-6.5,0 -11.8,5.3 -11.8,11.8l0,73.5c0,6.5 5.3,11.8 11.8,11.8s11.8,-5.3 11.8,-11.8l0,-73.5c0,-6.5 -5.3,-11.8 -11.8,-11.8z" class="st0"/>
   <path id="svg_5" fill="#fff" d="m68.7,24.9c-2.7,0 -4.9,2.2 -4.9,4.9l0,52.7c0,7.2 -2.1,12.8 -6.1,16.8c-4.1,4 -9.7,6 -16.8,6s-12.8,-2 -16.9,-6c-4.1,-3.9 -6.2,-9.6 -6.2,-16.9l0,-69.3c0,-2.6 -2.2,-4.8 -4.8,-4.8s-4.8,2.2 -4.8,4.8l0,70.4c0.2,9.4 3.3,16.8 9.2,22.2c5.9,5.3 13.7,8 23.4,8s12,-1.3 17,-3.7c5,-2.5 8.8,-6.1 11.6,-10.7c2.7,-4.6 4.1,-10.1 4.2,-16.3l0,-53.3c0,-2.7 -2.2,-4.9 -4.9,-4.9l0,0.1z" class="st0"/>
   <path id="svg_6" fill="#fff" d="m140,44c-5.9,-5.3 -13.7,-8 -23.4,-8s-12,1.3 -17,3.7c-4.9,2.5 -8.8,6.1 -11.6,10.7c-2.7,4.6 -4.1,10.1 -4.2,16.3l0,33.6c0,2.7 2.2,4.9 4.9,4.9s4.9,-2.2 4.9,-4.9l0,-33.1c0,-7.2 2.1,-12.8 6.1,-16.8c4.1,-4 9.7,-6 16.8,-6s12.8,2 16.9,6c4.1,3.9 6.2,9.6 6.2,16.9l0,47.2c0,2.6 2.2,4.8 4.8,4.8s4.8,-2.2 4.8,-4.8l0,-48.3c-0.2,-9.4 -3.3,-16.8 -9.2,-22.2z" class="st0"/>
   <path id="svg_7" fill="#fff" d="m224.7,66.2l0,0c-0.2,-9.4 -3.3,-16.9 -9.2,-22.2c-5.9,-5.3 -13.7,-8 -23.4,-8s-12,1.3 -17,3.7c-4.9,2.5 -8.8,6.1 -11.6,10.7c-2.5,4.3 -3.9,9.4 -4.1,15.2l0,0l0,9.4c0.2,9.4 3.3,16.8 9.2,22.2c5.9,5.3 13.7,8 23.4,8s12,-1.3 17,-3.7c2.3,-1.1 4.3,-2.5 6.1,-4.1l0,23.7c0,7.2 -2.1,12.9 -6.2,16.9c-4.1,4 -9.8,6 -16.9,6s-12.7,-2 -16.8,-6c-3.5,-3.4 -5.5,-7.9 -6.1,-13.5c0,-0.2 0,-0.9 -0.1,-2.6c0,-2.6 -2.2,-4.7 -4.8,-4.7s-2.5,0.5 -3.4,1.4c-0.9,0.9 -1.4,2.2 -1.4,3.5c0,0.9 0,1.7 0,1.9c0.3,5.2 1.7,9.9 4.1,14c2.7,4.6 6.6,8.2 11.6,10.7c4.9,2.5 10.6,3.7 17,3.7c9.7,0 17.6,-2.7 23.4,-8c5.9,-5.3 9,-12.8 9.2,-22.2l0,-47.7s0,0 0,-0.1l0,-8.3l0,0.1zm-9.6,1.1l0,6.6c0,7.2 -2.1,12.8 -6.3,16.9c-4.1,4 -9.7,6 -16.8,6s-12.8,-2 -16.9,-6c-4.1,-3.9 -6.2,-9.6 -6.2,-16.9l0,-6.5c0,-7.2 2.1,-12.9 6.3,-16.9c4.1,-4 9.7,-6 16.8,-6s12.8,2 16.9,6c4.1,3.9 6.2,9.6 6.2,16.9l0,-0.1z" class="st0"/>
   <path id="svg_8" fill="#fff" d="m462.5,8.3c-6.1,0.6 -10.7,6 -10.7,12.1l0,46.8c0,1 -1.3,1.4 -1.9,0.6c-7.4,-11.4 -33.9,-52.3 -35.9,-54.8c-2.2,-2.9 -5.6,-4.7 -9.4,-4.7s-4.9,0.8 -6.9,2.2c-0.5,0.3 -1,0.7 -1.5,1.2c-2.3,2.3 -3.5,5.4 -3.5,8.4c0,0 0,0 0,0l0,72.6c0,6.2 4.6,11.6 10.7,12.1c7,0.7 13,-4.9 13,-11.8l0,-30.1c0,-1 1.3,-1.4 1.9,-0.6c7.3,11.1 33,50.5 36,54.4c3.3,4.2 5.7,5.3 9.9,5.3c6.5,0 11.3,-3.7 11.3,-11.8l0,-90.1c0,-6.9 -5.9,-12.5 -13,-11.8z" class="st0"/>
  </g>
 </g>
</svg>